<svg width="171" height="119" viewBox="0 0 171 119" fill="none" xmlns="http://www.w3.org/2000/svg">
<path d="M77.0955 38.784C76.495 39.1191 75.7401 38.9005 75.405 38.3C68.9269 26.6284 60.6258 20.0947 50.7277 18.8891C28.3853 16.162 4.82009 41.1819 4.58678 41.4316C4.12016 41.9311 3.33001 41.9642 2.83054 41.4976C2.33107 41.0309 2.29796 40.2408 2.76457 39.7413C3.76328 38.6707 27.4392 13.5469 51.0223 16.4183C61.758 17.7261 70.6885 24.6821 77.5765 37.0882C77.9117 37.6887 77.693 38.4435 77.0925 38.7786L77.0955 38.784Z" fill="black"/>
<path d="M77.743 40.8767C76.9977 41.2926 76.0775 41.3069 75.2186 40.9143L64.7112 36.097C64.088 35.8119 63.8152 35.0711 64.1003 34.4479C64.3854 33.8248 65.1262 33.552 65.7494 33.8371L76.2568 38.6544C76.4776 38.7562 76.6027 38.6863 76.6321 38.4449L77.988 27.0144C78.0696 26.3289 78.6853 25.8447 79.3708 25.9263C80.0562 26.0079 80.5404 26.6236 80.4588 27.309L79.1029 38.7396C78.9944 39.6791 78.499 40.4548 77.7514 40.8791C77.7514 40.8791 77.7514 40.8791 77.746 40.8821L77.743 40.8767Z" fill="black"/>
<path d="M89.8604 57H81.6104C81.1804 57 80.7604 57.18 80.4604 57.49C80.1504 57.8 79.9904 58.22 80.0004 58.66V67.44C80.0004 68.34 80.7204 69.06 81.6104 69.06C82.5004 69.06 83.2204 68.34 83.2204 67.45V60.23H89.8604C90.7504 60.23 91.4704 59.51 91.4704 58.62C91.4704 57.73 90.7604 57 89.8604 57Z" fill="#FB2D2D"/>
<path d="M170.72 58.66C170.72 57.77 170 57.05 169.11 57.05H160.86C159.97 57.05 159.25 57.77 159.25 58.66C159.25 59.55 159.97 60.27 160.86 60.27H167.49V67.44C167.49 68.33 168.21 69.05 169.1 69.05C169.99 69.05 170.71 68.33 170.71 67.44V58.66H170.72Z" fill="#FB2D2D"/>
<path d="M81.61 106.39C80.72 106.39 80 107.11 80 108.01V116.74C80 117.63 80.72 118.35 81.61 118.35H89.86C90.75 118.35 91.47 117.63 91.47 116.74C91.47 115.85 90.75 115.13 89.86 115.13H83.23V108.01C83.23 107.12 82.51 106.4 81.62 106.4L81.61 106.39Z" fill="#FB2D2D"/>
<path d="M160.85 118.39H169.09C169.98 118.39 170.7 117.67 170.7 116.78V108C170.7 107.11 169.98 106.39 169.09 106.39C168.2 106.39 167.48 107.11 167.48 108V115.17H160.85C159.96 115.17 159.24 115.89 159.24 116.78C159.24 117.67 159.96 118.39 160.85 118.39Z" fill="#FB2D2D"/>
<path d="M91.47 67.4C91.47 66.51 90.75 65.79 89.86 65.79C88.97 65.79 88.25 66.51 88.25 67.4V108.27C88.25 109.16 88.97 109.88 89.86 109.88C90.75 109.88 91.47 109.16 91.47 108.27V67.4Z" fill="black"/>
<path d="M96.1406 67.4V108.27C96.1406 109.16 96.8606 109.88 97.7506 109.88C98.6406 109.88 99.3606 109.16 99.3606 108.27V67.4C99.3606 66.51 98.6406 65.79 97.7506 65.79C96.8606 65.79 96.1406 66.51 96.1406 67.4Z" fill="black"/>
<path d="M104.561 67.4001V103.97C104.561 104.56 105.041 105.05 105.641 105.05C106.241 105.05 106.721 104.57 106.721 103.97V67.4001C106.721 66.8101 106.241 66.3201 105.641 66.3201C105.041 66.3201 104.561 66.8001 104.561 67.4001Z" fill="black"/>
<path d="M111.91 67.4V103.97C111.91 104.86 112.63 105.58 113.52 105.58C114.41 105.58 115.13 104.86 115.13 103.97V67.4C115.13 66.51 114.41 65.79 113.52 65.79C112.63 65.79 111.91 66.51 111.91 67.4Z" fill="black"/>
<path d="M120.341 67.4001V103.97C120.341 104.56 120.821 105.05 121.421 105.05C122.021 105.05 122.501 104.57 122.501 103.97V67.4001C122.501 66.8101 122.021 66.3201 121.421 66.3201C120.821 66.3201 120.341 66.8001 120.341 67.4001Z" fill="black"/>
<path d="M127.69 67.4V103.97C127.69 104.86 128.41 105.58 129.3 105.58C130.19 105.58 130.91 104.86 130.91 103.97V67.4C130.91 66.51 130.19 65.79 129.3 65.79C128.41 65.79 127.69 66.51 127.69 67.4Z" fill="black"/>
<path d="M135.58 67.4V103.97C135.58 104.86 136.3 105.58 137.19 105.58C138.08 105.58 138.8 104.86 138.8 103.97V67.4C138.8 66.51 138.08 65.79 137.19 65.79C136.3 65.79 135.58 66.51 135.58 67.4Z" fill="black"/>
<path d="M144.011 67.4001V103.97C144.011 104.56 144.491 105.05 145.091 105.05C145.691 105.05 146.171 104.57 146.171 103.97V67.4001C146.171 66.8101 145.691 66.3201 145.091 66.3201C144.491 66.3201 144.011 66.8001 144.011 67.4001Z" fill="black"/>
<path d="M151.891 67.4001V108.27C151.891 108.86 152.371 109.35 152.971 109.35C153.571 109.35 154.051 108.87 154.051 108.27V67.4001C154.051 66.8101 153.571 66.3201 152.971 66.3201C152.371 66.3201 151.891 66.8001 151.891 67.4001Z" fill="black"/>
<path d="M160.85 109.93C161.74 109.93 162.46 109.21 162.46 108.32V67.4401C162.46 66.5501 161.74 65.8301 160.85 65.8301C159.96 65.8301 159.24 66.5501 159.24 67.4401V108.32C159.24 109.21 159.96 109.93 160.85 109.93Z" fill="black"/>
</svg>
