<svg width="390" height="844" viewBox="0 0 390 844" fill="none" xmlns="http://www.w3.org/2000/svg">
<line x1="383.713" y1="1.09278e-08" x2="383.713" y2="844" stroke="black" stroke-width="0.5"/>
<line x1="371.433" y1="1.09278e-08" x2="371.433" y2="844" stroke="black" stroke-width="0.5"/>
<line x1="359.152" y1="1.09278e-08" x2="359.152" y2="844" stroke="black" stroke-width="0.5"/>
<line x1="346.872" y1="1.09278e-08" x2="346.872" y2="844" stroke="black" stroke-width="0.5"/>
<line x1="334.591" y1="1.09278e-08" x2="334.591" y2="844" stroke="black" stroke-width="0.5"/>
<line x1="322.311" y1="1.09278e-08" x2="322.311" y2="844" stroke="black" stroke-width="0.5"/>
<line x1="310.03" y1="1.09278e-08" x2="310.03" y2="844" stroke="black" stroke-width="0.5"/>
<line x1="297.75" y1="1.09278e-08" x2="297.75" y2="844" stroke="black" stroke-width="0.5"/>
<line x1="285.47" y1="1.09278e-08" x2="285.47" y2="844" stroke="black" stroke-width="0.5"/>
<line x1="273.189" y1="1.09278e-08" x2="273.189" y2="844" stroke="black" stroke-width="0.5"/>
<line x1="260.909" y1="1.09278e-08" x2="260.909" y2="844" stroke="black" stroke-width="0.5"/>
<line x1="248.628" y1="1.09278e-08" x2="248.628" y2="844" stroke="black" stroke-width="0.5"/>
<line x1="236.348" y1="1.09278e-08" x2="236.348" y2="844" stroke="black" stroke-width="0.5"/>
<line x1="224.067" y1="1.09278e-08" x2="224.067" y2="844" stroke="black" stroke-width="0.5"/>
<line x1="211.787" y1="1.09278e-08" x2="211.787" y2="844" stroke="black" stroke-width="0.5"/>
<line x1="199.506" y1="1.09278e-08" x2="199.506" y2="844" stroke="black" stroke-width="0.5"/>
<line x1="187.226" y1="1.09278e-08" x2="187.226" y2="844" stroke="black" stroke-width="0.5"/>
<line x1="174.946" y1="1.09278e-08" x2="174.946" y2="844" stroke="black" stroke-width="0.5"/>
<line x1="162.665" y1="1.09278e-08" x2="162.665" y2="844" stroke="black" stroke-width="0.5"/>
<line x1="150.385" y1="1.09278e-08" x2="150.385" y2="844" stroke="black" stroke-width="0.5"/>
<line x1="138.104" y1="1.09278e-08" x2="138.104" y2="844" stroke="black" stroke-width="0.5"/>
<line x1="125.824" y1="1.09278e-08" x2="125.824" y2="844" stroke="black" stroke-width="0.5"/>
<line x1="113.543" y1="1.09278e-08" x2="113.543" y2="844" stroke="black" stroke-width="0.5"/>
<line x1="101.264" y1="1.09278e-08" x2="101.264" y2="844" stroke="black" stroke-width="0.5"/>
<line x1="88.9824" y1="1.09278e-08" x2="88.9824" y2="844" stroke="black" stroke-width="0.5"/>
<line x1="76.7021" y1="1.09278e-08" x2="76.7021" y2="844" stroke="black" stroke-width="0.5"/>
<line x1="64.4224" y1="1.09278e-08" x2="64.4223" y2="844" stroke="black" stroke-width="0.5"/>
<line x1="52.1411" y1="1.09278e-08" x2="52.1411" y2="844" stroke="black" stroke-width="0.5"/>
<line x1="39.8608" y1="1.09278e-08" x2="39.8608" y2="844" stroke="black" stroke-width="0.5"/>
<line x1="27.5811" y1="1.09278e-08" x2="27.581" y2="844" stroke="black" stroke-width="0.5"/>
<line x1="15.2998" y1="1.09278e-08" x2="15.2998" y2="844" stroke="black" stroke-width="0.5"/>
<line x1="3.01953" y1="1.09278e-08" x2="3.01949" y2="844" stroke="black" stroke-width="0.5"/>
<line x1="408.582" y1="829.178" x2="-19" y2="829.178" stroke="black" stroke-width="0.5"/>
<line x1="408.582" y1="812.991" x2="-19" y2="812.991" stroke="black" stroke-width="0.5"/>
<line x1="408.582" y1="796.803" x2="-19" y2="796.803" stroke="black" stroke-width="0.5"/>
<line x1="408.582" y1="780.615" x2="-19" y2="780.615" stroke="black" stroke-width="0.5"/>
<line x1="408.582" y1="764.427" x2="-19" y2="764.427" stroke="black" stroke-width="0.5"/>
<line x1="408.582" y1="748.24" x2="-19" y2="748.24" stroke="black" stroke-width="0.5"/>
<line x1="408.582" y1="732.052" x2="-19" y2="732.052" stroke="black" stroke-width="0.5"/>
<line x1="408.582" y1="715.864" x2="-19" y2="715.864" stroke="black" stroke-width="0.5"/>
<line x1="408.582" y1="699.676" x2="-19" y2="699.676" stroke="black" stroke-width="0.5"/>
<line x1="408.582" y1="683.488" x2="-19" y2="683.488" stroke="black" stroke-width="0.5"/>
<line x1="408.582" y1="667.3" x2="-19" y2="667.3" stroke="black" stroke-width="0.5"/>
<line x1="408.582" y1="651.113" x2="-19" y2="651.113" stroke="black" stroke-width="0.5"/>
<line x1="408.582" y1="634.925" x2="-19" y2="634.925" stroke="black" stroke-width="0.5"/>
<line x1="408.582" y1="618.737" x2="-19" y2="618.737" stroke="black" stroke-width="0.5"/>
<line x1="408.582" y1="602.549" x2="-19" y2="602.549" stroke="black" stroke-width="0.5"/>
<line x1="408.582" y1="586.361" x2="-19" y2="586.361" stroke="black" stroke-width="0.5"/>
<line x1="408.582" y1="570.173" x2="-19" y2="570.173" stroke="black" stroke-width="0.5"/>
<line x1="408.582" y1="553.985" x2="-19" y2="553.985" stroke="black" stroke-width="0.5"/>
<line x1="408.582" y1="537.798" x2="-19" y2="537.798" stroke="black" stroke-width="0.5"/>
<line x1="408.582" y1="521.61" x2="-19" y2="521.61" stroke="black" stroke-width="0.5"/>
<line x1="408.582" y1="505.422" x2="-19" y2="505.422" stroke="black" stroke-width="0.5"/>
<line x1="408.582" y1="489.234" x2="-19" y2="489.234" stroke="black" stroke-width="0.5"/>
<line x1="408.582" y1="473.046" x2="-19" y2="473.046" stroke="black" stroke-width="0.5"/>
<line x1="408.582" y1="456.858" x2="-19" y2="456.858" stroke="black" stroke-width="0.5"/>
<line x1="408.582" y1="440.671" x2="-19" y2="440.671" stroke="black" stroke-width="0.5"/>
<line x1="408.582" y1="424.483" x2="-19" y2="424.483" stroke="black" stroke-width="0.5"/>
<line x1="408.582" y1="408.295" x2="-19" y2="408.295" stroke="black" stroke-width="0.5"/>
<line x1="408.582" y1="392.107" x2="-19" y2="392.107" stroke="black" stroke-width="0.5"/>
<line x1="408.582" y1="375.919" x2="-19" y2="375.919" stroke="black" stroke-width="0.5"/>
<line x1="408.582" y1="359.731" x2="-19" y2="359.731" stroke="black" stroke-width="0.5"/>
<line x1="408.582" y1="343.544" x2="-19" y2="343.544" stroke="black" stroke-width="0.5"/>
<line x1="408.582" y1="327.356" x2="-19" y2="327.356" stroke="black" stroke-width="0.5"/>
<line x1="408.582" y1="311.168" x2="-19" y2="311.168" stroke="black" stroke-width="0.5"/>
<line x1="408.582" y1="294.98" x2="-19" y2="294.98" stroke="black" stroke-width="0.5"/>
<line x1="408.582" y1="278.792" x2="-19" y2="278.792" stroke="black" stroke-width="0.5"/>
<line x1="408.582" y1="262.604" x2="-19" y2="262.604" stroke="black" stroke-width="0.5"/>
<line x1="408.582" y1="246.417" x2="-19" y2="246.417" stroke="black" stroke-width="0.5"/>
<line x1="408.582" y1="230.229" x2="-19" y2="230.229" stroke="black" stroke-width="0.5"/>
<line x1="408.582" y1="214.041" x2="-19" y2="214.041" stroke="black" stroke-width="0.5"/>
<line x1="408.582" y1="197.853" x2="-19" y2="197.853" stroke="black" stroke-width="0.5"/>
<line x1="408.582" y1="181.666" x2="-19" y2="181.666" stroke="black" stroke-width="0.5"/>
<line x1="408.582" y1="165.478" x2="-19" y2="165.478" stroke="black" stroke-width="0.5"/>
<line x1="408.582" y1="149.29" x2="-19" y2="149.29" stroke="black" stroke-width="0.5"/>
<line x1="408.582" y1="133.102" x2="-19" y2="133.102" stroke="black" stroke-width="0.5"/>
<line x1="408.582" y1="116.914" x2="-19" y2="116.914" stroke="black" stroke-width="0.5"/>
<line x1="408.582" y1="100.726" x2="-19" y2="100.726" stroke="black" stroke-width="0.5"/>
<line x1="408.582" y1="84.5383" x2="-19" y2="84.5383" stroke="black" stroke-width="0.5"/>
<line x1="408.582" y1="68.3506" x2="-19" y2="68.3506" stroke="black" stroke-width="0.5"/>
<line x1="408.582" y1="52.1628" x2="-19" y2="52.1628" stroke="black" stroke-width="0.5"/>
<line x1="408.582" y1="35.9751" x2="-19" y2="35.9751" stroke="black" stroke-width="0.5"/>
<line x1="408.582" y1="19.7869" x2="-19" y2="19.7869" stroke="black" stroke-width="0.5"/>
<line x1="408.582" y1="3.59912" x2="-19" y2="3.59912" stroke="black" stroke-width="0.5"/>
</svg>
