<svg width="202" height="190" viewBox="0 0 202 190" fill="none" xmlns="http://www.w3.org/2000/svg">
<path d="M199.305 22.0751C196.079 20.2082 192.865 18.3159 189.696 16.3413C188.442 15.5629 187.175 15.2591 185.713 15.2718C172.26 15.3477 158.813 15.373 145.36 15.4173C123.091 15.4996 100.822 15.5945 78.5529 15.6578C57.5946 15.7211 36.6364 15.7591 15.6719 15.8034C15.1804 15.8097 14.6826 15.8097 14.21 15.8097C14.065 15.4427 13.9453 15.2148 13.8886 14.9743C12.956 10.9936 12.0234 7.00651 11.1034 3.0131C11.0152 2.62705 10.9585 2.22202 10.9585 1.82964C10.9711 0.741104 10.9018 0.627187 9.84313 0.551243C7.17766 0.361382 4.5185 0.171521 1.85303 0.0069755C0.498247 -0.0816262 -0.157092 0.677817 0.0319481 2.05747C0.189481 3.20929 0.353316 4.36112 0.51085 5.51294C0.98345 8.91777 1.46235 12.3163 1.92235 15.7274C2.06728 16.8097 2.57139 17.5058 3.5796 18.0437C6.56013 19.6323 9.45874 21.36 12.4267 22.9801C13.2206 23.4168 13.8067 23.9231 13.9327 24.8534C14.0083 25.3914 14.128 25.9356 14.1343 26.4799C14.1847 30.6315 14.2163 34.7768 14.2478 38.9284C14.3486 51.9276 14.4494 64.933 14.5502 77.9322C14.7834 107.43 15.0165 136.922 15.2497 166.42C15.256 166.774 15.2686 167.129 15.2434 167.483C15.1678 168.382 14.8275 169.002 13.8886 169.413C10.7505 170.793 7.68177 172.312 4.55631 173.711C3.85056 174.027 3.53549 174.426 3.49768 175.166C3.44097 176.179 3.34015 177.185 3.22672 178.191C2.85495 181.602 2.48317 185.02 2.06728 188.425C1.98536 189.102 2.23111 189.393 2.82344 189.456C3.5733 189.539 4.32946 189.577 5.08562 189.621C7.48643 189.747 9.89354 189.868 12.4267 190.001C12.6787 189.134 12.9749 188.336 13.1576 187.513C13.8067 184.552 14.4116 181.577 15.048 178.615C15.2245 177.786 15.445 176.97 15.653 176.134H19.6984C47.7646 176.236 75.8244 176.343 103.891 176.438C130.898 176.533 157.899 176.615 184.907 176.704C186.369 176.704 187.837 176.653 189.286 176.805C190.131 176.894 190.723 176.666 191.353 176.185C193.716 174.375 196.041 172.508 198.505 170.844C199.387 170.249 199.69 169.698 199.702 168.692C199.879 147.295 200.093 125.897 200.276 104.494C200.44 85.3684 200.578 66.2494 200.736 47.1241C200.799 39.7891 200.843 32.4542 201 25.1192C201.032 23.632 200.522 22.7776 199.305 22.0751ZM13.7311 22.0625C10.3598 20.1006 6.78698 18.4678 3.80015 15.8667C3.5607 15.6642 3.32125 15.3414 3.28344 15.0439C2.6533 10.6012 2.06098 6.15846 1.42454 1.48156C4.11521 1.60181 6.69246 1.74737 9.37683 2.03849C10.9396 8.68361 12.4897 15.2781 14.0461 21.8789C13.9453 21.9422 13.8382 21.9992 13.7311 22.0625ZM14.5754 17.7083C16.1256 17.6767 17.474 17.6261 18.8225 17.6197C33.8323 17.5564 48.8484 17.5058 63.8582 17.4235C84.6148 17.3159 105.371 17.1957 126.128 17.0755C144.666 16.9679 163.205 16.8603 181.744 16.7527C183.306 16.74 184.863 16.6957 186.425 16.7084C186.867 16.7084 187.371 16.7211 187.73 16.9299C190.691 18.645 193.628 20.4044 196.571 22.1511C196.558 22.2903 196.545 22.4295 196.533 22.5624C136.506 22.7776 76.4734 22.9928 16.4028 23.208C15.0543 21.6574 15.0921 19.7019 14.5754 17.7083ZM11.4752 188.482C8.94204 188.355 6.50342 188.229 3.84426 188.096C3.84426 187.583 3.80645 187.102 3.85056 186.634C4.15302 183.419 4.42398 180.198 4.81466 176.995C4.95329 175.9 5.54562 174.913 6.61684 174.407C9.33902 173.116 12.0801 171.856 14.8149 170.591C14.8905 170.559 15.0039 170.61 15.2812 170.648C14.0209 176.552 12.7669 182.438 11.4752 188.482ZM190.458 174.995C190.061 175.274 189.419 175.299 188.889 175.293C167.433 175.236 145.977 175.16 124.521 175.09C90.8279 174.97 57.1346 174.856 23.4414 174.736C21.425 174.73 19.4086 174.704 17.3984 174.679C16.9573 174.673 16.5225 174.622 15.9302 174.578C16.2831 172.894 16.6171 171.337 16.9762 169.616C76.9082 169.755 136.771 169.894 196.627 170.034C196.665 170.122 196.703 170.211 196.734 170.293C194.649 171.869 192.582 173.476 190.458 174.995ZM198.247 168.243C197.144 168.578 18.9044 167.926 16.6738 167.591C16.302 120.195 15.9365 72.7616 15.571 25.1129C76.8704 24.6825 138.05 24.3978 199.148 23.9864C199.274 24.0877 199.318 24.1193 199.349 24.1573C199.381 24.1889 199.419 24.2395 199.419 24.2838C199.45 24.7838 199.494 25.2838 199.494 25.7901C199.079 73.2869 198.663 120.784 198.247 168.243Z" fill="black"/>
<path d="M16.674 167.591C16.3085 120.189 15.9431 72.7618 15.5713 25.1131C76.8707 24.6827 138.05 24.3979 199.148 23.9866C199.274 24.0878 199.318 24.1131 199.35 24.1511C199.381 24.1891 199.419 24.2334 199.419 24.2777C199.451 24.7777 199.495 25.284 199.495 25.7839C199.079 73.2808 198.663 120.778 198.247 168.243C197.144 168.572 18.911 167.926 16.674 167.591Z" fill="white"/>
<path d="M196.533 22.5625C136.5 22.7777 76.4737 22.9929 16.4031 23.2017C15.0546 21.6575 15.0924 19.702 14.5757 17.7021C16.1258 17.6704 17.4743 17.6261 18.8165 17.6198C33.8263 17.5502 48.8424 17.4996 63.8521 17.4236C84.6087 17.316 105.365 17.1895 126.122 17.0692C144.66 16.9616 163.199 16.854 181.738 16.7465C183.3 16.7401 184.863 16.6958 186.419 16.7022C186.86 16.7022 187.365 16.7148 187.724 16.9237C190.685 18.6387 193.616 20.4044 196.558 22.1512C196.546 22.2904 196.533 22.4233 196.52 22.5625H196.533Z" fill="white"/>
<path d="M196.734 170.293C194.649 171.869 192.582 173.47 190.452 174.989C190.055 175.274 189.412 175.293 188.883 175.293C167.427 175.236 145.971 175.16 124.515 175.084C90.8215 174.97 57.1283 174.85 23.435 174.73C21.4186 174.723 19.4085 174.698 17.392 174.673C16.9572 174.673 16.5162 174.616 15.9238 174.571C16.283 172.888 16.6107 171.331 16.9762 169.61C76.9081 169.749 136.765 169.888 196.621 170.027C196.659 170.116 196.697 170.198 196.734 170.287V170.293Z" fill="white"/>
<path d="M13.7313 22.0626C10.3601 20.1007 6.78094 18.4679 3.80041 15.8668C3.56096 15.658 3.32151 15.3415 3.2837 15.0441C2.65357 10.6013 2.06124 6.15859 1.4248 1.48169C4.11548 1.60193 6.69272 1.75382 9.37709 2.04494C10.9398 8.68374 12.4963 15.2846 14.0464 21.8854C13.9393 21.9487 13.8384 22.0056 13.7313 22.0689V22.0626Z" fill="white"/>
<path d="M15.2814 170.648C14.0211 176.546 12.7671 182.432 11.4754 188.482C8.94852 188.355 6.50991 188.229 3.84444 188.096C3.84444 187.583 3.80663 187.102 3.84444 186.634C4.1469 183.419 4.41786 180.204 4.80854 176.995C4.94087 175.9 5.5395 174.913 6.61073 174.407C9.3329 173.116 12.074 171.856 14.8088 170.591C14.8844 170.559 14.9978 170.61 15.2751 170.648H15.2814Z" fill="white"/>
</svg>
