<svg width="216" height="182" viewBox="0 0 216 182" fill="none" xmlns="http://www.w3.org/2000/svg">
<path d="M20 170H33L29 181.5L18 181L20 170Z" fill="#D9D9D9"/>
<path d="M31 157H216L205.84 172H31V157Z" fill="#D9D9D9"/>
<path d="M44 3.04565H20.1479V159.006H44V3.04565Z" fill="white"/>
<path d="M9.5408 158.572C13.9074 158.981 18.0909 159.856 22.6342 160.208C22.5774 159.371 22.5647 158.83 22.5016 158.302C22.4322 157.711 22.2429 157.126 22.2429 156.541C22.1357 143.72 22.0473 130.894 21.959 118.074C21.877 105.657 21.7823 93.2328 21.7066 80.8153C21.5804 60.0503 21.4289 39.2853 21.3721 18.514C21.3595 12.9532 20.88 7.37982 21.5804 1.8253C21.6498 1.27173 21.8328 0.491708 21.0188 0.296702C20.0849 0.076534 20.2363 0.982368 20.0029 1.46674C19.9839 1.50448 19.9271 1.52964 19.782 1.65545C16.2673 2.29709 12.6264 2.97017 8.99183 3.63067C8.73311 2.02659 8.24093 0.737038 6.85272 0.183473C5.42665 -0.376383 4.24667 0.435093 3.35695 1.40383C2.17066 2.69339 1.16736 4.1465 0.107271 5.54928C0 5.68767 0 5.92671 0 6.11543C0.0820307 8.41776 0.233472 10.7264 0.258712 13.0287C0.378603 26.0501 0.466944 39.0714 0.567905 52.0991C0.668866 65.1708 0.769826 78.2425 0.870787 91.3142C1.02854 111.677 1.24939 132.045 1.29987 152.408C1.29987 156.05 2.12649 159.126 4.88398 161.567C5.74846 162.328 6.63187 163.089 7.58468 163.724C8.53119 164.353 9.37043 163.863 9.44615 162.693C9.50294 161.843 9.45246 160.988 9.46508 160.132C9.4777 159.642 9.51556 159.157 9.5408 158.572ZM7.60992 161.523C7.50265 161.585 7.40169 161.655 7.29442 161.718C5.86835 159.981 4.41704 158.258 3.04776 156.478C2.80797 156.169 2.83321 155.622 2.8269 155.175C2.75749 150.25 2.68808 145.325 2.65653 140.393C2.49878 117.615 2.36627 94.8368 2.18959 72.0589C2.02553 50.3881 1.8173 28.711 1.64692 7.04013C1.64692 6.50544 1.71002 5.90155 1.95612 5.44234C2.71963 4.02069 3.72924 2.75629 5.09852 1.85675C6.16492 1.15221 6.85903 1.39754 7.05464 2.63677C7.29442 4.11504 7.39538 5.63106 7.40169 7.1282C7.45217 19.6023 7.45848 32.0701 7.49003 44.5442C7.59099 79.293 7.69195 114.042 7.79292 148.784C7.79923 150.747 7.85602 152.71 7.83078 154.672C7.79292 156.956 7.68564 159.239 7.60992 161.523ZM9.28209 157.019C9.13696 106.367 8.98552 55.8168 8.84038 5.1404C12.6958 4.42328 16.3115 3.75648 20.148 3.04566C20.5329 54.9361 20.9115 106.688 21.2964 158.673C17.2517 158.113 13.3521 157.578 9.28209 157.019Z" fill="black"/>
<path d="M8.84029 5.1404C12.702 4.42328 16.3114 3.75648 20.1479 3.04565C20.5328 54.9361 20.9114 106.688 21.2963 158.673C17.2516 158.119 13.352 157.585 9.282 157.025C9.13056 106.374 8.98543 55.8231 8.83398 5.14669L8.84029 5.1404Z" fill="white"/>
<path d="M7.29451 161.718C5.86844 159.975 4.42343 158.258 3.04784 156.478C2.80806 156.169 2.83961 155.616 2.8333 155.176C2.76389 150.25 2.69448 145.318 2.66293 140.393C2.50518 117.615 2.37267 94.8369 2.19598 72.0527C2.03192 50.3818 1.82369 28.7047 1.65332 7.03391C1.65332 6.49921 1.71011 5.89532 1.9562 5.43612C2.72603 4.00817 3.73564 2.75007 5.09861 1.84423C6.16501 1.13969 6.85911 1.38502 7.05473 2.63055C7.2882 4.10882 7.38916 5.62483 7.39547 7.12197C7.44595 19.5961 7.45226 32.0639 7.49012 44.538C7.58477 79.2868 7.69204 114.036 7.793 148.784C7.793 150.747 7.8561 152.71 7.82455 154.666C7.78669 156.949 7.67942 159.233 7.6037 161.516C7.49643 161.579 7.38916 161.648 7.2882 161.711L7.29451 161.718Z" fill="white"/>
</svg>
