<svg width="158" height="158" viewBox="0 0 158 158" fill="none" xmlns="http://www.w3.org/2000/svg">
<circle cx="79" cy="79" r="73.5" fill="white" stroke="#FB2D2D" stroke-width="11"/>
<path d="M44.4719 70.075C45.4052 70.2417 46.1969 70.7333 46.8469 71.55C47.4969 72.3667 47.8219 73.2917 47.8219 74.325C47.8219 75.2083 47.5885 76.0083 47.1219 76.725C46.6719 77.425 46.0135 77.9833 45.1469 78.4C44.2802 78.8 43.2719 79 42.1219 79H35.1719V61.625H41.7969C42.9802 61.625 43.9969 61.825 44.8469 62.225C45.6969 62.625 46.3385 63.1667 46.7719 63.85C47.2052 64.5167 47.4219 65.2667 47.4219 66.1C47.4219 67.1 47.1552 67.9333 46.6219 68.6C46.0885 69.2667 45.3719 69.7583 44.4719 70.075ZM38.0219 68.925H41.5469C42.4802 68.925 43.2052 68.7167 43.7219 68.3C44.2552 67.8667 44.5219 67.25 44.5219 66.45C44.5219 65.6667 44.2552 65.0583 43.7219 64.625C43.2052 64.175 42.4802 63.95 41.5469 63.95H38.0219V68.925ZM41.8719 76.675C42.8385 76.675 43.5969 76.4417 44.1469 75.975C44.6969 75.5083 44.9719 74.8583 44.9719 74.025C44.9719 73.175 44.6802 72.5 44.0969 72C43.5135 71.5 42.7385 71.25 41.7719 71.25H38.0219V76.675H41.8719ZM56.8939 79.225C55.5939 79.225 54.4189 78.9333 53.3689 78.35C52.3189 77.75 51.4939 76.9167 50.8939 75.85C50.2939 74.7667 49.9939 73.5167 49.9939 72.1C49.9939 70.7 50.3023 69.4583 50.9189 68.375C51.5356 67.2917 52.3773 66.4583 53.4439 65.875C54.5106 65.2917 55.7023 65 57.0189 65C58.3356 65 59.5273 65.2917 60.5939 65.875C61.6606 66.4583 62.5023 67.2917 63.1189 68.375C63.7356 69.4583 64.0439 70.7 64.0439 72.1C64.0439 73.5 63.7273 74.7417 63.0939 75.825C62.4606 76.9083 61.5939 77.75 60.4939 78.35C59.4106 78.9333 58.2106 79.225 56.8939 79.225ZM56.8939 76.75C57.6273 76.75 58.3106 76.575 58.9439 76.225C59.5939 75.875 60.1189 75.35 60.5189 74.65C60.9189 73.95 61.1189 73.1 61.1189 72.1C61.1189 71.1 60.9273 70.2583 60.5439 69.575C60.1606 68.875 59.6523 68.35 59.0189 68C58.3856 67.65 57.7023 67.475 56.9689 67.475C56.2356 67.475 55.5523 67.65 54.9189 68C54.3023 68.35 53.8106 68.875 53.4439 69.575C53.0773 70.2583 52.8939 71.1 52.8939 72.1C52.8939 73.5833 53.2689 74.7333 54.0189 75.55C54.7856 76.35 55.7439 76.75 56.8939 76.75ZM72.8363 79.225C71.5363 79.225 70.3613 78.9333 69.3113 78.35C68.2613 77.75 67.4363 76.9167 66.8363 75.85C66.2363 74.7667 65.9363 73.5167 65.9363 72.1C65.9363 70.7 66.2447 69.4583 66.8613 68.375C67.478 67.2917 68.3197 66.4583 69.3863 65.875C70.453 65.2917 71.6447 65 72.9613 65C74.278 65 75.4697 65.2917 76.5363 65.875C77.603 66.4583 78.4447 67.2917 79.0613 68.375C79.678 69.4583 79.9863 70.7 79.9863 72.1C79.9863 73.5 79.6697 74.7417 79.0363 75.825C78.403 76.9083 77.5363 77.75 76.4363 78.35C75.353 78.9333 74.153 79.225 72.8363 79.225ZM72.8363 76.75C73.5697 76.75 74.253 76.575 74.8863 76.225C75.5363 75.875 76.0613 75.35 76.4613 74.65C76.8613 73.95 77.0613 73.1 77.0613 72.1C77.0613 71.1 76.8697 70.2583 76.4863 69.575C76.103 68.875 75.5947 68.35 74.9613 68C74.328 67.65 73.6447 67.475 72.9113 67.475C72.178 67.475 71.4947 67.65 70.8613 68C70.2447 68.35 69.753 68.875 69.3863 69.575C69.0197 70.2583 68.8363 71.1 68.8363 72.1C68.8363 73.5833 69.2113 74.7333 69.9613 75.55C70.728 76.35 71.6863 76.75 72.8363 76.75ZM88.2537 72.125L94.6037 79H90.7537L85.6537 73.075V79H82.8037V60.5H85.6537V71.25L90.6537 65.225H94.6037L88.2537 72.125ZM102.191 72.05C102.191 70.6667 102.474 69.4417 103.041 68.375C103.624 67.3083 104.407 66.4833 105.391 65.9C106.391 65.3 107.491 65 108.691 65C109.774 65 110.716 65.2167 111.516 65.65C112.332 66.0667 112.982 66.5917 113.466 67.225V65.225H116.341V79H113.466V76.95C112.982 77.6 112.324 78.1417 111.491 78.575C110.657 79.0083 109.707 79.225 108.641 79.225C107.457 79.225 106.374 78.925 105.391 78.325C104.407 77.7083 103.624 76.8583 103.041 75.775C102.474 74.675 102.191 73.4333 102.191 72.05ZM113.466 72.1C113.466 71.15 113.266 70.325 112.866 69.625C112.482 68.925 111.974 68.3917 111.341 68.025C110.707 67.6583 110.024 67.475 109.291 67.475C108.557 67.475 107.874 67.6583 107.241 68.025C106.607 68.375 106.091 68.9 105.691 69.6C105.307 70.2833 105.116 71.1 105.116 72.05C105.116 73 105.307 73.8333 105.691 74.55C106.091 75.2667 106.607 75.8167 107.241 76.2C107.891 76.5667 108.574 76.75 109.291 76.75C110.024 76.75 110.707 76.5667 111.341 76.2C111.974 75.8333 112.482 75.3 112.866 74.6C113.266 73.8833 113.466 73.05 113.466 72.1ZM50.3073 85.625C52.1573 85.625 53.774 85.9833 55.1573 86.7C56.5573 87.4 57.6323 88.4167 58.3823 89.75C59.149 91.0667 59.5323 92.6083 59.5323 94.375C59.5323 96.1417 59.149 97.675 58.3823 98.975C57.6323 100.275 56.5573 101.275 55.1573 101.975C53.774 102.658 52.1573 103 50.3073 103H44.6323V85.625H50.3073ZM50.3073 100.675C52.3407 100.675 53.899 100.125 54.9823 99.025C56.0657 97.925 56.6073 96.375 56.6073 94.375C56.6073 92.3583 56.0657 90.7833 54.9823 89.65C53.899 88.5167 52.3407 87.95 50.3073 87.95H47.4823V100.675H50.3073ZM65.2069 87.925V93.025H71.2069V95.35H65.2069V100.675H71.9569V103H62.3569V85.6H71.9569V87.925H65.2069ZM93.7673 85.625V103H90.9173V91.1L85.6173 103H83.6423L78.3173 91.1V103H75.4673V85.625H78.5423L84.6423 99.25L90.7173 85.625H93.7673ZM105.438 103.175C103.822 103.175 102.33 102.8 100.963 102.05C99.6132 101.283 98.5382 100.225 97.7382 98.875C96.9549 97.5083 96.5632 95.975 96.5632 94.275C96.5632 92.575 96.9549 91.05 97.7382 89.7C98.5382 88.35 99.6132 87.3 100.963 86.55C102.33 85.7833 103.822 85.4 105.438 85.4C107.072 85.4 108.563 85.7833 109.913 86.55C111.28 87.3 112.355 88.35 113.138 89.7C113.922 91.05 114.313 92.575 114.313 94.275C114.313 95.975 113.922 97.5083 113.138 98.875C112.355 100.225 111.28 101.283 109.913 102.05C108.563 102.8 107.072 103.175 105.438 103.175ZM105.438 100.7C106.588 100.7 107.613 100.442 108.513 99.925C109.413 99.3917 110.113 98.6417 110.613 97.675C111.13 96.6917 111.388 95.5583 111.388 94.275C111.388 92.9917 111.13 91.8667 110.613 90.9C110.113 89.9333 109.413 89.1917 108.513 88.675C107.613 88.1583 106.588 87.9 105.438 87.9C104.288 87.9 103.263 88.1583 102.363 88.675C101.463 89.1917 100.755 89.9333 100.238 90.9C99.7382 91.8667 99.4882 92.9917 99.4882 94.275C99.4882 95.5583 99.7382 96.6917 100.238 97.675C100.755 98.6417 101.463 99.3917 102.363 99.925C103.263 100.442 104.288 100.7 105.438 100.7Z" fill="black"/>
</svg>
