<svg width="181" height="148" viewBox="0 0 181 148" fill="none" xmlns="http://www.w3.org/2000/svg">
<path d="M176.852 31.2869C177.085 27.0124 177.249 22.7379 177.608 18.4759C177.949 14.4095 178.516 10.3682 178.97 6.31432C179.134 4.81382 178.661 4.08879 177.236 3.79877C175.244 3.39528 173.238 3.43311 171.221 3.74203C170.092 3.91226 168.938 4.04466 167.79 4.06357C166.031 4.08879 164.272 3.98791 162.506 3.9627C160.797 3.94378 159.076 4.08248 157.386 3.90595C150.153 3.14309 142.914 2.77112 135.644 3.1494C133.38 3.26919 131.116 3.37006 128.846 3.45833C120.743 3.76095 112.628 3.08635 104.525 4.07618C100.281 4.59946 95.9873 4.71925 91.7057 4.94622C87.2286 5.17949 82.7453 5.34341 78.2682 5.48841C75.9477 5.57037 73.6335 5.57037 71.313 5.57668C67.4855 5.57668 63.6642 6.05583 59.8304 5.59559C53.3166 4.80751 46.7712 4.6499 40.2133 4.71295C37.2875 4.73816 34.3679 4.56794 31.4484 4.43554C28.5793 4.29684 25.7228 4.05726 22.8474 4.47337C21.2584 4.70664 19.6378 4.69403 18.0298 4.79491C18.0235 4.73816 18.0235 4.68142 18.0235 4.62468C16.9642 4.62468 15.9048 4.63729 14.8518 4.62468C12.8907 4.60577 12.4934 4.96513 12.2664 6.93217C12.1025 8.28136 12.0331 9.65577 11.6863 10.9608C10.9485 13.7286 10.154 16.49 9.20817 19.201C6.55347 26.8485 4.23927 34.6284 0.600882 41.9165C-0.244082 43.6251 -0.231471 45.3904 0.85311 47.0863C1.69177 48.3977 2.42323 49.7847 3.20514 51.1339C5.39952 54.904 6.26971 59.1092 7.0327 63.3207C7.77047 67.3557 7.64435 71.4537 7.39843 75.5328C7.15251 79.5488 6.75525 83.5585 6.40843 87.5746C5.80309 94.7114 4.97704 101.798 1.95661 108.43C1.24406 109.994 1.43954 111.564 2.78896 112.856C3.17991 113.228 3.48259 113.72 3.74743 114.199C4.74373 115.996 5.18513 117.944 5.2608 119.987C5.28602 120.636 5.32385 121.304 5.51933 121.91C6.05532 123.58 6.67958 125.226 7.27232 126.884C9.48562 133.1 11.7431 139.298 12.8655 145.836C13.1745 147.645 13.5087 147.967 15.3688 147.992C18.0362 148.023 20.7098 147.967 23.3771 147.872C29.1216 147.664 34.8598 147.317 40.6043 147.21C47.8621 147.071 55.1263 147.166 62.3779 147.052C67.4161 146.977 72.4544 146.643 77.4926 146.567C82.9345 146.485 88.3763 146.567 93.8181 146.586C94.373 146.586 94.9279 146.63 95.4828 146.636C97.4502 146.655 99.4113 146.718 101.379 146.674C104.803 146.598 108.227 146.384 111.657 146.359C122.036 146.277 132.422 146.252 142.807 146.226C146.332 146.22 149.863 146.245 153.388 146.321C155.097 146.359 156.806 146.542 158.508 146.693C162.216 147.015 165.905 147.714 169.638 146.863C170.565 146.649 171.555 146.718 172.482 146.517C173.598 146.271 174.695 145.918 175.773 145.527C176.599 145.23 177.016 144.581 177.085 143.673C177.236 141.618 177.57 139.563 177.602 137.507C177.734 127.729 177.829 117.957 177.861 108.184C177.879 102.088 177.772 95.9913 177.697 89.8947C177.678 88.2303 177.583 86.5722 177.514 84.9077C177.261 78.767 176.927 72.6326 176.776 66.4856C176.58 58.9831 176.524 51.4743 176.435 43.9655C176.417 42.0048 176.48 40.0377 176.543 38.077C176.618 35.8136 176.732 33.5503 176.852 31.2869ZM5.56978 33.5818C14.4923 34.0862 22.942 36.5954 30.78 41.1348C38.4162 45.5543 44.6273 51.4491 49.1989 59.0147C46.5947 61.2465 44.085 63.3964 41.4997 65.6156C41.1529 64.8716 40.6736 64.052 40.3647 63.1757C39.7026 61.2843 38.5927 59.6703 37.3568 58.1383C35.6165 55.9821 33.8887 53.807 32.0348 51.758C28.4847 47.8366 24.0077 45.4534 18.9505 44.016C15.4256 43.0198 11.8944 42.4335 8.21817 42.919C6.67958 43.1207 5.11577 43.1838 3.55826 43.2783C2.87094 43.3225 2.17731 43.2846 1.27559 43.2846C2.77004 39.9053 4.13208 36.8287 5.56978 33.5818ZM42.1555 71.6869C42.9815 73.7612 43.5364 80.7404 43.0383 82.9785C41.4618 82.9785 39.8539 83.1235 38.2775 82.9533C33.4095 82.4237 28.6297 82.8209 23.8752 83.9116C23.6861 83.9557 23.4843 83.9747 23.2951 84.0062C22.6519 81.8437 23.1249 73.2127 24.0329 70.9493C30.0737 70.5836 36.0957 72.0274 42.1555 71.6869ZM40.9637 69.6632C40.9889 69.411 41.0141 69.1651 41.0331 68.9129C41.1213 68.9129 41.2096 68.9129 41.2916 68.9066C41.3231 69.1525 41.3546 69.3984 41.3862 69.6379C41.2474 69.6506 41.1087 69.6569 40.9637 69.6632ZM3.6087 107.39C5.1536 104.54 5.4878 101.356 6.16882 98.2672C6.95073 94.7177 7.32907 91.1178 7.57499 87.4926C7.90919 82.6759 8.34429 77.8592 8.63435 73.0361C8.98116 67.3494 8.31276 61.7509 6.61652 56.3289C5.89767 54.0403 4.74373 51.8841 3.70329 49.709C3.11686 48.4922 2.32234 47.37 1.67916 46.1721C1.43323 45.7182 1.33865 45.1823 1.09903 44.4384C4.69328 44.5266 8.02269 43.5305 11.6611 44.306C12.3799 43.5809 13.433 43.871 14.3662 44.0853C16.6678 44.6212 18.9946 45.1382 21.2016 45.9578C25.4643 47.5402 29.2162 49.936 32.0853 53.5675C33.1131 54.8662 34.1724 56.1587 35.2823 57.3881C37.5523 59.891 39.1161 62.7911 40.3205 65.9182C40.5917 66.6306 40.6988 67.217 40.3016 67.9042C39.9737 68.4653 39.7782 69.0957 39.4818 69.8019C34.2103 69.9658 28.9829 68.5851 23.5915 69.2408C22.8348 70.2306 22.3682 71.46 22.2925 72.7524C22.097 76.1191 22.0214 79.4921 21.9142 82.8587C21.9015 83.2622 21.9583 83.672 22.0529 84.0629C22.2673 84.9203 22.8852 85.2986 23.7554 85.0717C27.9424 83.9936 32.1925 83.7162 36.4929 83.9431C38.6432 84.0629 40.7871 84.2142 43.1455 84.3655C42.7041 85.8913 42.3446 87.3476 41.8591 88.7662C40.1818 93.6522 37.6027 97.9772 33.8635 101.59C32.4699 102.933 30.9692 104.105 29.1909 104.881C25.83 106.35 22.5006 107.932 19.0514 109.168C16.8444 109.956 14.4293 110.051 11.8944 109.899C12.2475 108.802 12.5565 107.806 12.897 106.823C13.0294 106.444 13.3258 105.99 12.752 105.852C12.525 105.795 12.052 106.186 11.907 106.476C11.6169 107.056 11.4908 107.712 11.2638 108.329C11.0936 108.796 10.8792 109.244 10.627 109.836C8.17403 109.408 5.7022 109.357 3.26189 108.374C3.388 108.008 3.45737 107.674 3.6087 107.39ZM6.21926 118.265C5.9292 116.021 5.09685 114.004 3.72221 112.194C3.1673 111.469 2.42323 110.738 2.89616 109.578C4.17622 109.83 5.43736 110.095 6.7048 110.315C8.09836 110.561 9.48562 110.845 10.8855 110.971C14.7509 111.33 18.5217 110.908 22.1096 109.332C24.5058 108.273 26.8831 107.188 29.2792 106.123C31.5177 105.127 33.4284 103.683 35.1435 101.937C39.8224 97.1576 42.7356 91.4519 44.0787 84.933C44.703 81.8878 44.2868 78.8112 44.1292 75.7471C43.9904 73.0992 43.2274 70.6025 42.332 68.1311C42.105 67.5133 42.0735 67.0152 42.5527 66.473C44.6778 64.0962 47.1054 62.085 49.88 60.2567C50.1763 60.7926 50.4538 61.2591 50.6934 61.7446C60.4988 81.0808 54.212 102.958 35.6417 114.161C29.6008 117.805 23.0618 120.05 16.0562 120.8C13.1114 121.115 10.1288 121.084 7.16512 121.203C6.97595 121.216 6.78047 121.153 6.53455 121.115C6.43366 120.151 6.34538 119.205 6.21926 118.265ZM175.408 49.7973C175.471 55.3391 175.445 60.8808 175.609 66.4226C175.849 74.1773 176.227 81.9257 176.543 89.674C176.568 90.3801 176.606 91.0863 176.612 91.7924C176.656 97.2837 176.751 102.775 176.719 108.266C176.662 118.644 176.549 129.021 176.423 139.399C176.41 140.653 176.221 141.908 176.095 143.162C176.019 143.925 175.635 144.499 174.909 144.764C174.254 145.01 173.585 145.281 172.904 145.382C170.71 145.684 168.503 145.943 166.296 146.157C165.501 146.233 164.688 146.151 163.887 146.069C159.227 145.59 154.574 145.092 149.869 145.211C146.244 145.3 142.612 145.041 138.986 145.029C132.283 145.003 125.58 144.997 118.877 145.085C113.082 145.161 107.287 145.382 101.498 145.539C100.742 145.558 99.9851 145.59 99.2284 145.583C93.6857 145.539 88.143 145.413 82.6003 145.464C76.6035 145.514 70.6068 145.741 64.6101 145.855C60.833 145.924 57.0495 145.88 53.2724 145.949C46.0146 146.075 38.7567 146.227 31.5051 146.409C26.5173 146.535 21.5295 146.731 16.5417 146.882C15.8922 146.901 15.2364 146.819 14.4545 146.775C14.3158 146.441 14.0951 146.107 14.032 145.741C12.6132 137.967 9.97116 130.585 7.00748 123.297C6.93811 123.12 6.90028 122.925 6.78047 122.527C7.82091 122.477 8.76046 122.401 9.70001 122.395C18.6415 122.345 27.0848 120.314 34.885 115.92C43.5112 111.066 50.0061 104.219 53.6571 94.9321C58.008 83.8549 57.1946 72.9416 52.2194 62.2426C51.8158 61.3726 51.3744 60.5278 50.9393 59.6577C51.0339 59.5316 51.097 59.374 51.2105 59.2984C56.8162 55.7299 62.8256 53.4666 69.6042 54.034C72.013 54.2357 74.3965 54.6645 76.7927 54.9608C77.9403 55.1058 79.0943 55.1878 80.3617 55.3138C80.6013 56.0263 80.8473 56.8333 81.1436 57.6276C81.4211 58.3779 81.7048 59.1407 82.0769 59.8532C82.7327 61.1015 83.1299 61.2528 84.5172 60.8619C93.2947 58.4031 102.06 55.9191 110.843 53.4918C111.865 53.2144 112.47 52.8361 112.426 51.7076C112.369 50.3017 112.477 48.8831 112.319 47.4961C111.903 43.8773 111.096 40.3467 109.393 37.0809C109.305 36.9043 109.198 36.7467 108.996 36.4126C99.0581 39.2875 89.1203 42.1687 79.151 45.0562C78.8484 46.5945 79.088 48.0257 79.3087 49.4568C79.5294 50.888 79.7312 52.3255 79.9771 53.9773C79.2204 53.9773 78.5835 54.0403 77.9656 53.9646C75.5694 53.6683 73.1795 53.3153 70.7771 53.0063C65.7451 52.3633 60.9276 53.2081 56.3307 55.2571C54.3129 56.1587 52.3833 57.2683 50.2772 58.3527C39.9169 42.4146 24.8778 34.1997 5.86614 32.3398C6.08054 31.6967 6.30124 31.06 6.51563 30.4232C8.43887 24.749 10.4315 19.0938 12.2475 13.3881C12.8655 11.44 13.0988 9.35945 13.3825 7.32306C13.5969 5.78473 13.6978 5.56407 15.2364 5.67755C18.5658 5.92343 21.8763 5.86669 25.1868 5.40015C26.2273 5.25514 27.2992 5.34341 28.3586 5.37493C33.0942 5.53885 37.8235 5.85408 42.559 5.85408C48.4107 5.86039 54.2372 6.17562 60.0637 6.72412C62.5103 6.95109 64.9947 6.85652 67.4603 6.82499C73.5579 6.73673 79.6681 6.75564 85.7531 6.44672C93.5533 6.04953 101.334 5.34341 109.128 4.82012C111.487 4.66251 113.864 4.56163 116.229 4.62468C123.083 4.80121 129.931 4.57424 136.779 4.22749C141.861 3.9627 146.956 4.06987 152.032 4.58685C154.391 4.83273 156.749 5.02187 159.107 5.23623C159.158 5.24253 159.208 5.24884 159.259 5.24884C162.683 4.99035 166.1 5.17949 169.524 5.23623C171.517 5.27406 173.51 4.91469 175.508 4.75708C175.899 4.72555 176.316 4.76338 176.707 4.84534C177.779 5.07231 177.942 5.31188 177.816 6.40258C177.331 10.7023 176.763 15.0021 176.372 19.3144C176.051 22.9207 175.912 26.5522 175.736 30.171C175.622 32.4848 175.565 34.7986 175.515 37.1124C175.445 40.1828 175.389 43.2531 175.351 46.3235C175.338 47.4835 175.395 48.6372 175.408 49.7973ZM80.078 45.983C89.6689 43.2027 99.0203 40.498 108.517 37.7492C109.002 38.9912 109.545 40.0251 109.809 41.1284C110.396 43.6251 110.875 46.1469 111.323 48.6688C111.461 49.4505 111.386 50.2765 111.348 51.0771C111.31 51.8589 110.907 52.2939 110.093 52.5209C101.606 54.8662 93.1308 57.2557 84.6496 59.6262C83.4641 59.954 83.2876 59.8847 82.7894 58.7499C81.6102 56.0515 81.0238 53.1955 80.5761 50.3017C80.3554 48.921 80.2482 47.5213 80.078 45.983Z" fill="#D9D9D9"/>
<path d="M6.78684 122.527C7.82728 122.477 8.76683 122.401 9.70008 122.395C18.6416 122.345 27.0849 120.314 34.8914 115.92C43.5176 111.066 50.0124 104.212 53.6571 94.932C58.0081 83.8548 57.1946 72.9352 52.2194 62.2363C51.8159 61.3725 51.3745 60.5214 50.9394 59.6514C51.034 59.5253 51.0907 59.3677 51.2042 59.292C56.8163 55.7236 62.8193 53.4602 69.6043 54.0277C72.013 54.2294 74.3966 54.6581 76.7928 54.9607C77.9341 55.1057 79.088 55.1877 80.3555 55.3075C80.5951 56.0262 80.841 56.8332 81.1374 57.6213C81.4211 58.3715 81.6986 59.1344 82.0706 59.8468C82.7264 61.0951 83.1237 61.2464 84.5109 60.8556C93.2885 58.3968 102.053 55.9127 110.837 53.4855C111.852 53.2017 112.458 52.8298 112.414 51.7012C112.357 50.2953 112.464 48.8768 112.306 47.4898C111.89 43.8709 111.083 40.3403 109.387 37.0745C109.299 36.9043 109.185 36.7404 108.983 36.4062C99.0456 39.2875 89.1078 42.1624 79.1385 45.0499C78.8358 46.5882 79.0754 48.0193 79.2961 49.4505C79.5168 50.8816 79.7249 52.3128 79.9645 53.9646C79.2078 53.9646 78.571 54.0277 77.953 53.952C75.5505 53.6557 73.1607 53.3026 70.7645 52.9937C65.7326 52.3506 60.915 53.1954 56.3181 55.2444C54.3003 56.146 52.3708 57.2556 50.271 58.34C39.917 42.4145 24.8779 34.1933 5.86621 32.3398C6.08691 31.6967 6.3013 31.0599 6.5157 30.4232C8.43894 24.749 10.4315 19.1001 12.2476 13.3881C12.8655 11.4399 13.0989 9.35941 13.3826 7.32302C13.597 5.78469 13.6979 5.56403 15.2365 5.67751C18.5659 5.92339 21.8764 5.86665 25.1869 5.40011C26.2273 5.2551 27.2993 5.34337 28.3587 5.37489C33.0942 5.5325 37.8235 5.84774 42.5591 5.85404C48.4171 5.85404 54.2373 6.17558 60.0637 6.72408C62.5103 6.95105 64.9948 6.85648 67.4603 6.82495C73.5579 6.73669 79.6619 6.76191 85.7532 6.45298C93.5533 6.05579 101.335 5.34967 109.128 4.82639C111.487 4.66877 113.864 4.5679 116.229 4.63094C123.089 4.80747 129.931 4.58051 136.785 4.23375C141.868 3.97526 146.963 4.07614 152.039 4.59942C154.397 4.839 156.755 5.03444 159.114 5.2488C159.164 5.2488 159.215 5.26141 159.265 5.26141C162.689 5.00922 166.107 5.19206 169.531 5.2551C171.523 5.28662 173.516 4.92726 175.515 4.77595C175.912 4.74443 176.322 4.78226 176.713 4.86422C177.791 5.09118 177.949 5.33076 177.829 6.42146C177.344 10.7275 176.77 15.021 176.385 19.3396C176.063 22.9459 175.925 26.5773 175.748 30.1962C175.635 32.51 175.578 34.8238 175.527 37.1376C175.458 40.2079 175.401 43.2783 175.364 46.3486C175.351 47.5087 175.408 48.6624 175.42 49.8225C175.483 55.3642 175.458 60.906 175.622 66.4478C175.855 74.2024 176.234 81.9508 176.549 89.6992C176.581 90.4053 176.618 91.1114 176.618 91.8113C176.662 97.3026 176.757 102.794 176.726 108.285C176.669 118.663 176.555 129.04 176.429 139.424C176.417 140.678 176.227 141.933 176.101 143.181C176.026 143.944 175.641 144.518 174.91 144.789C174.254 145.029 173.592 145.306 172.904 145.401C170.71 145.703 168.509 145.968 166.302 146.176C165.508 146.252 164.688 146.176 163.893 146.094C159.234 145.615 154.58 145.111 149.876 145.23C146.25 145.325 142.618 145.06 138.992 145.047C132.289 145.022 125.586 145.016 118.883 145.104C113.088 145.18 107.293 145.401 101.499 145.558C100.742 145.577 99.9851 145.609 99.2284 145.602C93.6857 145.558 88.143 145.432 82.6003 145.482C76.6036 145.533 70.6069 145.766 64.6164 145.873C60.8393 145.943 57.0559 145.899 53.2788 145.968C46.0209 146.094 38.7694 146.245 31.5115 146.428C26.5237 146.554 21.5359 146.75 16.5481 146.901C15.8986 146.92 15.2428 146.838 14.4546 146.794C14.3159 146.46 14.0952 146.126 14.0321 145.76C12.6133 137.986 9.97122 130.604 7.01385 123.315C6.94449 123.139 6.90665 122.95 6.78684 122.546V122.527Z" fill="#D9D9D9"/>
<path d="M36.4925 83.9431C32.1921 83.7161 27.942 83.9935 23.755 85.0716C22.8848 85.2986 22.2669 84.9203 22.0525 84.0629C21.9579 83.672 21.9011 83.2622 21.9138 82.8587C22.021 79.492 22.0966 76.1191 22.2921 72.7524C22.3678 71.4599 22.8344 70.2305 23.5911 69.2407C28.9825 68.585 34.2099 69.9658 39.4814 69.8018C39.7778 69.0957 39.9733 68.4653 40.3012 67.9041C40.6984 67.2169 40.5913 66.6306 40.3201 65.9182C39.1157 62.7911 37.5519 59.891 35.2819 57.388C34.172 56.1586 33.1127 54.8662 32.0849 53.5674C29.2158 49.936 25.4639 47.5402 21.2012 45.9578C18.9942 45.1382 16.6674 44.6212 14.3658 44.0853C13.4326 43.8709 12.3795 43.5809 11.6607 44.3059C8.0223 43.5305 4.69288 44.5266 1.09863 44.4383C1.33825 45.1823 1.43284 45.7182 1.67876 46.1721C2.32194 47.37 3.11646 48.4922 3.70289 49.709C4.74333 51.8841 5.89727 54.0403 6.61612 56.3289C8.31236 61.7508 8.98076 67.3493 8.63395 73.0361C8.34389 77.8591 7.90879 82.6759 7.57459 87.4926C7.32867 91.1178 6.95033 94.7177 6.16842 98.2672C5.4874 101.356 5.1532 104.54 3.6083 107.39C3.45697 107.674 3.3876 108.008 3.26149 108.374C5.7018 109.357 8.17363 109.407 10.6266 109.836C10.8788 109.244 11.0932 108.796 11.2634 108.329C11.4904 107.712 11.6165 107.056 11.9066 106.476C12.0516 106.186 12.5246 105.795 12.7516 105.852C13.3254 105.99 13.029 106.444 12.8966 106.823C12.5561 107.806 12.2471 108.802 11.894 109.899C14.4289 110.051 16.844 109.956 19.051 109.168C22.5002 107.932 25.8296 106.35 29.1905 104.881C30.9688 104.105 32.4695 102.933 33.8631 101.59C37.6023 97.9772 40.1814 93.6522 41.8587 88.7661C42.3442 87.3476 42.7037 85.8912 43.1451 84.3655C40.7867 84.2142 38.6428 84.0629 36.4925 83.9431ZM16.3774 67.3241C16.2638 68.6166 16.8818 69.9279 16.4215 71.233C15.5324 71.0817 15.5954 70.508 15.5324 70.0351C15.2234 67.6898 15.2549 67.2043 15.8729 66.2775C16.0873 66.6937 16.4026 67.0278 16.3774 67.3241ZM14.4478 57.3502C14.7063 57.615 15.0784 57.8104 15.1099 58.0563C15.2865 59.4812 15.8792 60.8745 15.5828 62.3561C14.4667 61.3852 13.8929 58.6174 14.4478 57.3502ZM12.9912 52.42C12.575 51.3167 12.2219 50.1945 12.0327 48.9651C12.9534 48.8074 13.1362 49.2614 13.2686 49.6838C13.5083 50.4466 13.7227 51.2221 13.8677 52.0039C13.9118 52.2245 13.6848 52.4956 13.5839 52.7415C13.3821 52.6343 13.0479 52.5776 12.9912 52.42ZM14.2334 100.045C14.2145 100.133 13.9875 100.177 13.6596 100.341C13.5524 99.9631 13.4137 99.7362 13.4452 99.5218C13.6281 98.2357 13.8298 96.9558 14.0884 95.6823C14.1262 95.4679 14.4604 95.3166 14.6559 95.1338C14.8072 95.3103 15.1162 95.5184 15.091 95.6634C14.8388 97.1324 14.5424 98.5887 14.2334 100.045ZM15.7909 90.1342C15.7531 90.3612 15.5072 90.5629 15.3621 90.7773C15.2234 90.7395 15.091 90.7017 14.9523 90.6638C14.7126 89.3525 14.9901 88.0222 15.0153 86.7108C15.0153 86.5784 15.2549 86.3641 15.4063 86.3452C15.5576 86.3262 15.8288 86.465 15.8792 86.5973C15.9927 86.9126 16.0747 87.2656 16.0558 87.5998C16.0053 88.4509 15.9233 89.2957 15.7909 90.1342ZM16.2512 82.3796C15.4378 82.1904 15.5513 81.6987 15.5513 81.2762C15.5513 78.6472 15.7468 77.5124 16.4845 76.9576C16.8188 78.7922 16.9323 80.5827 16.2512 82.3796Z" fill="#D9D9D9"/>
<path d="M6.54077 121.109C6.43357 120.144 6.34529 119.205 6.22548 118.259C5.93542 116.015 5.10307 113.997 3.72842 112.188C3.17352 111.456 2.42945 110.731 2.90237 109.571C4.18243 109.824 5.44357 110.088 6.71102 110.309C8.09827 110.555 9.48553 110.839 10.8854 110.965C14.7508 111.318 18.5216 110.902 22.1095 109.319C24.5057 108.266 26.8893 107.182 29.2791 106.116C31.5177 105.12 33.4283 103.677 35.1434 101.93C39.8223 97.1513 42.7418 91.4456 44.0786 84.9266C44.7029 81.8815 44.2867 78.8048 44.1291 75.7408C43.9903 73.0928 43.2273 70.5899 42.3319 68.1248C42.1049 67.5006 42.0734 67.0026 42.5526 66.4667C44.6777 64.0835 47.1054 62.0724 49.8862 60.244C50.1825 60.7862 50.46 61.2528 50.6996 61.7319C60.4987 81.0682 54.2182 102.952 35.6479 114.149C29.607 117.793 23.068 120.037 16.0624 120.787C13.1176 121.103 10.135 121.071 7.17134 121.191C6.97586 121.197 6.78038 121.134 6.54077 121.096V121.109Z" fill="#D9D9D9"/>
<path d="M80.0775 45.983C89.6685 43.2026 99.0261 40.498 108.516 37.7491C109.002 38.9912 109.544 40.0314 109.803 41.1347C110.389 43.6314 110.868 46.1469 111.316 48.6688C111.455 49.4505 111.379 50.2764 111.341 51.0771C111.303 51.8589 110.9 52.2939 110.08 52.5209C101.593 54.8662 93.1177 57.2556 84.6365 59.6262C83.4511 59.9603 83.2745 59.8847 82.7764 58.7498C81.5972 56.0578 81.0044 53.1955 80.5567 50.308C80.3424 48.9272 80.2352 47.5276 80.0586 45.9893L80.0775 45.983Z" fill="#D9D9D9"/>
<path d="M1.27539 43.2846C2.76984 39.9053 4.13187 36.8287 5.56957 33.5755C14.4921 34.0861 22.9418 36.5891 30.7798 41.1284C38.416 45.5479 44.6271 51.4428 49.1987 59.0083C46.5945 61.2402 44.0848 63.39 41.4995 65.6093C41.1464 64.8716 40.6734 64.052 40.3644 63.1694C39.7024 61.278 38.5925 59.664 37.3566 58.1383C35.6163 55.9821 33.8885 53.807 32.0346 51.7517C28.4908 47.8302 24.0138 45.4471 18.9566 44.0159C15.4317 43.0198 11.8942 42.4335 8.22428 42.9189C6.67938 43.1207 5.12187 43.1837 3.56436 43.2783C2.87704 43.3224 2.17711 43.2846 1.2817 43.2846H1.27539Z" fill="#D9D9D9"/>
<path d="M24.0388 70.9493C30.0797 70.5836 36.0953 72.0274 42.1551 71.6806C42.9812 73.7548 43.5361 80.7404 43.0379 82.9785C41.4678 82.9785 39.8535 83.1235 38.2834 82.9533C33.4154 82.4237 28.6294 82.8209 23.8812 83.9116C23.6857 83.9557 23.4902 83.9746 23.2947 84.0062C22.6516 81.8374 23.1245 73.2126 24.0388 70.9493Z" fill="#D9D9D9"/>
<path d="M41.2918 68.9066C41.3233 69.1525 41.3548 69.392 41.3863 69.6379C41.2476 69.6442 41.1089 69.6505 40.9639 69.6568C40.9891 69.411 41.008 69.1588 41.0332 68.9129C41.1215 68.9129 41.2035 68.9129 41.2918 68.9129V68.9066Z" fill="#D9D9D9"/>
<path d="M16.4851 76.9576C16.8193 78.7859 16.9328 80.5827 16.2518 82.3796C15.4447 82.1904 15.5582 81.6987 15.5582 81.2763C15.5582 78.6472 15.7537 77.5124 16.4851 76.9639V76.9576Z" fill="#D9D9D9"/>
<path d="M13.6602 100.341C13.5593 99.9694 13.4143 99.7362 13.4458 99.5281C13.6287 98.242 13.8304 96.9558 14.089 95.6823C14.1331 95.4679 14.461 95.3166 14.6565 95.1338C14.8078 95.3103 15.1168 95.5184 15.0916 95.6634C14.8394 97.126 14.543 98.5887 14.234 100.039C14.2151 100.127 13.9881 100.171 13.6602 100.335V100.341Z" fill="#D9D9D9"/>
<path d="M15.5833 62.3561C14.4672 61.3852 13.8997 58.6174 14.4546 57.3502C14.7132 57.615 15.0852 57.8168 15.1104 58.0563C15.287 59.4812 15.8797 60.8745 15.5833 62.3561Z" fill="#D9D9D9"/>
<path d="M15.88 66.2712C16.0881 66.6936 16.4097 67.0215 16.3782 67.3241C16.2647 68.6103 16.8826 69.9279 16.4223 71.233C15.5332 71.0817 15.5963 70.5079 15.5332 70.0351C15.2179 67.6898 15.2558 67.2043 15.8737 66.2775L15.88 66.2712Z" fill="#D9D9D9"/>
<path d="M14.9523 90.6575C14.7127 89.3462 14.9901 88.0222 15.0153 86.7045C15.0153 86.5721 15.255 86.3641 15.4 86.3452C15.5513 86.3262 15.8225 86.4649 15.8729 86.591C15.9927 86.9063 16.0684 87.2656 16.0495 87.5998C15.999 88.4446 15.9171 89.2957 15.7846 90.1279C15.7468 90.3612 15.5009 90.5566 15.3559 90.771C15.2234 90.7332 15.0847 90.6953 14.9523 90.6575Z" fill="#D9D9D9"/>
<path d="M12.0391 48.9651C12.9534 48.8074 13.1426 49.2614 13.275 49.6838C13.5146 50.4466 13.729 51.2221 13.874 52.0102C13.9182 52.2308 13.6912 52.4956 13.5903 52.7478C13.3822 52.6406 13.0543 52.5839 12.9975 52.4263C12.5814 51.323 12.2345 50.2008 12.0454 48.9714L12.0391 48.9651Z" fill="#D9D9D9"/>
<path d="M178.852 28.2869C179.085 24.0124 179.249 19.7379 179.608 15.4759C179.949 11.4095 180.516 7.36819 180.97 3.31432C181.134 1.81382 180.661 1.08879 179.236 0.798775C177.244 0.395279 175.238 0.433107 173.221 0.742033C172.092 0.912258 170.938 1.04466 169.79 1.06357C168.031 1.08879 166.272 0.987914 164.506 0.962695C162.797 0.943781 161.076 1.08248 159.386 0.905954C152.153 0.143094 144.914 -0.228879 137.644 0.149399C135.38 0.269187 133.116 0.370061 130.846 0.458325C122.743 0.760947 114.628 0.0863526 106.525 1.07618C102.281 1.59946 97.9873 1.71925 93.7057 1.94622C89.2286 2.17949 84.7453 2.34341 80.2682 2.48841C77.9477 2.57037 75.6335 2.57037 73.313 2.57668C69.4855 2.57668 65.6642 3.05583 61.8304 2.59559C55.3166 1.80751 48.7712 1.6499 42.2133 1.71295C39.2875 1.73816 36.3679 1.56794 33.4484 1.43554C30.5793 1.29684 27.7228 1.05726 24.8474 1.47337C23.2584 1.70664 21.6378 1.69403 20.0298 1.79491C20.0235 1.73816 20.0235 1.68142 20.0235 1.62468C18.9642 1.62468 17.9048 1.63729 16.8518 1.62468C14.8907 1.60577 14.4934 1.96513 14.2664 3.93217C14.1025 5.28136 14.0331 6.65577 13.6863 7.96083C12.9485 10.7286 12.154 13.49 11.2082 16.201C8.55347 23.8485 6.23927 31.6284 2.60088 38.9165C1.75592 40.6251 1.76853 42.3904 2.85311 44.0863C3.69177 45.3977 4.42323 46.7847 5.20514 48.1339C7.39952 51.904 8.26971 56.1092 9.0327 60.3207C9.77047 64.3557 9.64435 68.4537 9.39843 72.5328C9.15251 76.5488 8.75525 80.5585 8.40843 84.5746C7.80309 91.7114 6.97704 98.7978 3.95661 105.43C3.24406 106.994 3.43954 108.564 4.78896 109.856C5.17991 110.228 5.48259 110.72 5.74743 111.199C6.74373 112.996 7.18513 114.944 7.2608 116.987C7.28602 117.636 7.32385 118.304 7.51933 118.91C8.05532 120.58 8.67958 122.226 9.27232 123.884C11.4856 130.1 13.7431 136.298 14.8655 142.836C15.1745 144.645 15.5087 144.967 17.3688 144.992C20.0362 145.023 22.7098 144.967 25.3771 144.872C31.1216 144.664 36.8598 144.317 42.6043 144.21C49.8621 144.071 57.1263 144.166 64.3779 144.052C69.4161 143.977 74.4544 143.643 79.4926 143.567C84.9345 143.485 90.3763 143.567 95.8181 143.586C96.373 143.586 96.9279 143.63 97.4828 143.636C99.4502 143.655 101.411 143.718 103.379 143.674C106.803 143.598 110.227 143.384 113.657 143.359C124.036 143.277 134.422 143.252 144.807 143.226C148.332 143.22 151.863 143.245 155.388 143.321C157.097 143.359 158.806 143.542 160.508 143.693C164.216 144.015 167.905 144.714 171.638 143.863C172.565 143.649 173.555 143.718 174.482 143.517C175.598 143.271 176.695 142.918 177.773 142.527C178.599 142.23 179.016 141.581 179.085 140.673C179.236 138.618 179.57 136.563 179.602 134.507C179.734 124.729 179.829 114.957 179.861 105.184C179.879 99.0878 179.772 92.9913 179.697 86.8947C179.678 85.2303 179.583 83.5722 179.514 81.9077C179.261 75.767 178.927 69.6326 178.776 63.4856C178.58 55.9831 178.524 48.4743 178.435 40.9655C178.417 39.0048 178.48 37.0377 178.543 35.077C178.618 32.8136 178.732 30.5503 178.852 28.2869ZM7.56978 30.5818C16.4923 31.0862 24.942 33.5954 32.78 38.1348C40.4162 42.5543 46.6273 48.4491 51.1989 56.0147C48.5947 58.2465 46.085 60.3964 43.4997 62.6156C43.1529 61.8716 42.6736 61.052 42.3647 60.1757C41.7026 58.2843 40.5927 56.6703 39.3568 55.1383C37.6165 52.9821 35.8887 50.807 34.0348 48.758C30.4847 44.8366 26.0077 42.4534 20.9505 41.016C17.4256 40.0198 13.8944 39.4335 10.2182 39.919C8.67958 40.1207 7.11577 40.1838 5.55826 40.2783C4.87094 40.3225 4.17731 40.2846 3.27559 40.2846C4.77004 36.9053 6.13208 33.8287 7.56978 30.5818ZM44.1555 68.6869C44.9815 70.7612 45.5364 77.7404 45.0383 79.9785C43.4618 79.9785 41.8539 80.1235 40.2775 79.9533C35.4095 79.4237 30.6297 79.8209 25.8752 80.9116C25.6861 80.9557 25.4843 80.9747 25.2951 81.0062C24.6519 78.8437 25.1249 70.2127 26.0329 67.9493C32.0737 67.5836 38.0957 69.0274 44.1555 68.6869ZM42.9637 66.6632C42.9889 66.411 43.0141 66.1651 43.0331 65.9129C43.1213 65.9129 43.2096 65.9129 43.2916 65.9066C43.3231 66.1525 43.3546 66.3984 43.3862 66.6379C43.2474 66.6506 43.1087 66.6569 42.9637 66.6632ZM5.6087 104.39C7.1536 101.54 7.4878 98.3565 8.16882 95.2672C8.95073 91.7177 9.32907 88.1178 9.57499 84.4926C9.90919 79.6759 10.3443 74.8592 10.6343 70.0361C10.9812 64.3494 10.3128 58.7509 8.61652 53.3289C7.89767 51.0403 6.74373 48.8841 5.70329 46.709C5.11686 45.4922 4.32234 44.37 3.67916 43.1721C3.43323 42.7182 3.33865 42.1823 3.09903 41.4384C6.69328 41.5266 10.0227 40.5305 13.6611 41.306C14.3799 40.5809 15.433 40.871 16.3662 41.0853C18.6678 41.6212 20.9946 42.1382 23.2016 42.9578C27.4643 44.5402 31.2162 46.936 34.0853 50.5675C35.1131 51.8662 36.1724 53.1587 37.2823 54.3881C39.5523 56.891 41.1161 59.7911 42.3205 62.9182C42.5917 63.6306 42.6988 64.217 42.3016 64.9042C41.9737 65.4653 41.7782 66.0957 41.4818 66.8019C36.2103 66.9658 30.9829 65.5851 25.5915 66.2408C24.8348 67.2306 24.3682 68.46 24.2925 69.7524C24.097 73.1191 24.0214 76.4921 23.9142 79.8587C23.9015 80.2622 23.9583 80.672 24.0529 81.0629C24.2673 81.9203 24.8852 82.2986 25.7554 82.0717C29.9424 80.9936 34.1925 80.7162 38.4929 80.9431C40.6432 81.0629 42.7871 81.2142 45.1455 81.3655C44.7041 82.8913 44.3446 84.3476 43.8591 85.7662C42.1818 90.6522 39.6027 94.9772 35.8635 98.5898C34.4699 99.9327 32.9692 101.105 31.1909 101.881C27.83 103.35 24.5006 104.932 21.0514 106.168C18.8444 106.956 16.4293 107.051 13.8944 106.899C14.2475 105.802 14.5565 104.806 14.897 103.823C15.0294 103.444 15.3258 102.99 14.752 102.852C14.525 102.795 14.052 103.186 13.907 103.476C13.6169 104.056 13.4908 104.712 13.2638 105.329C13.0936 105.796 12.8792 106.244 12.627 106.836C10.174 106.408 7.7022 106.357 5.26189 105.374C5.388 105.008 5.45737 104.674 5.6087 104.39ZM8.21926 115.265C7.9292 113.021 7.09685 111.004 5.72221 109.194C5.1673 108.469 4.42323 107.738 4.89616 106.578C6.17622 106.83 7.43736 107.095 8.7048 107.315C10.0984 107.561 11.4856 107.845 12.8855 107.971C16.7509 108.33 20.5217 107.908 24.1096 106.332C26.5058 105.273 28.8831 104.188 31.2792 103.123C33.5177 102.127 35.4284 100.683 37.1435 98.9365C41.8224 94.1576 44.7356 88.4519 46.0787 81.933C46.703 78.8878 46.2868 75.8112 46.1292 72.7471C45.9904 70.0992 45.2274 67.6025 44.332 65.1311C44.105 64.5133 44.0735 64.0152 44.5527 63.473C46.6778 61.0962 49.1054 59.085 51.88 57.2567C52.1763 57.7926 52.4538 58.2591 52.6934 58.7446C62.4988 78.0808 56.212 99.9579 37.6417 111.161C31.6008 114.805 25.0618 117.05 18.0562 117.8C15.1114 118.115 12.1288 118.084 9.16512 118.203C8.97595 118.216 8.78047 118.153 8.53455 118.115C8.43366 117.151 8.34538 116.205 8.21926 115.265ZM177.408 46.7973C177.471 52.3391 177.445 57.8808 177.609 63.4226C177.849 71.1773 178.227 78.9257 178.543 86.674C178.568 87.3801 178.606 88.0863 178.612 88.7924C178.656 94.2837 178.751 99.775 178.719 105.266C178.662 115.644 178.549 126.021 178.423 136.399C178.41 137.653 178.221 138.908 178.095 140.162C178.019 140.925 177.635 141.499 176.909 141.764C176.254 142.01 175.585 142.281 174.904 142.382C172.71 142.684 170.503 142.943 168.296 143.157C167.501 143.233 166.688 143.151 165.887 143.069C161.227 142.59 156.574 142.092 151.869 142.211C148.244 142.3 144.612 142.041 140.986 142.029C134.283 142.003 127.58 141.997 120.877 142.085C115.082 142.161 109.287 142.382 103.498 142.539C102.742 142.558 101.985 142.59 101.228 142.583C95.6857 142.539 90.143 142.413 84.6003 142.464C78.6035 142.514 72.6068 142.741 66.6101 142.855C62.833 142.924 59.0495 142.88 55.2724 142.949C48.0146 143.075 40.7567 143.227 33.5051 143.409C28.5173 143.535 23.5295 143.731 18.5417 143.882C17.8922 143.901 17.2364 143.819 16.4545 143.775C16.3158 143.441 16.0951 143.107 16.032 142.741C14.6132 134.967 11.9712 127.585 9.00748 120.297C8.93811 120.12 8.90028 119.925 8.78047 119.527C9.82091 119.477 10.7605 119.401 11.7 119.395C20.6415 119.345 29.0848 117.314 36.885 112.92C45.5112 108.066 52.0061 101.219 55.6571 91.9321C60.008 80.8549 59.1946 69.9416 54.2194 59.2426C53.8158 58.3726 53.3744 57.5278 52.9393 56.6577C53.0339 56.5316 53.097 56.374 53.2105 56.2984C58.8162 52.7299 64.8256 50.4666 71.6042 51.034C74.013 51.2357 76.3965 51.6645 78.7927 51.9608C79.9403 52.1058 81.0943 52.1878 82.3617 52.3138C82.6013 53.0263 82.8473 53.8333 83.1436 54.6276C83.4211 55.3779 83.7048 56.1407 84.0769 56.8532C84.7327 58.1015 85.1299 58.2528 86.5172 57.8619C95.2947 55.4031 104.06 52.9191 112.843 50.4918C113.865 50.2144 114.47 49.8361 114.426 48.7076C114.369 47.3017 114.477 45.8831 114.319 44.4961C113.903 40.8773 113.096 37.3467 111.393 34.0809C111.305 33.9043 111.198 33.7467 110.996 33.4126C101.058 36.2875 91.1203 39.1687 81.151 42.0562C80.8484 43.5945 81.088 45.0257 81.3087 46.4568C81.5294 47.888 81.7312 49.3255 81.9771 50.9773C81.2204 50.9773 80.5835 51.0403 79.9656 50.9646C77.5694 50.6683 75.1795 50.3153 72.7771 50.0063C67.7451 49.3633 62.9276 50.2081 58.3307 52.2571C56.3129 53.1587 54.3833 54.2683 52.2772 55.3527C41.9169 39.4146 26.8778 31.1997 7.86614 29.3398C8.08054 28.6967 8.30124 28.06 8.51563 27.4232C10.4389 21.749 12.4315 16.0938 14.2475 10.3881C14.8655 8.43998 15.0988 6.35945 15.3825 4.32306C15.5969 2.78473 15.6978 2.56407 17.2364 2.67755C20.5658 2.92343 23.8763 2.86669 27.1868 2.40015C28.2273 2.25514 29.2992 2.34341 30.3586 2.37493C35.0942 2.53885 39.8235 2.85408 44.559 2.85408C50.4107 2.86039 56.2372 3.17562 62.0637 3.72412C64.5103 3.95109 66.9947 3.85652 69.4603 3.82499C75.5579 3.73673 81.6681 3.75564 87.7531 3.44672C95.5533 3.04953 103.334 2.34341 111.128 1.82012C113.487 1.66251 115.864 1.56163 118.229 1.62468C125.083 1.80121 131.931 1.57424 138.779 1.22749C143.861 0.962695 148.956 1.06987 154.032 1.58685C156.391 1.83273 158.749 2.02187 161.107 2.23623C161.158 2.24253 161.208 2.24884 161.259 2.24884C164.683 1.99035 168.1 2.17949 171.524 2.23623C173.517 2.27406 175.51 1.91469 177.508 1.75708C177.899 1.72555 178.316 1.76338 178.707 1.84534C179.779 2.07231 179.942 2.31188 179.816 3.40258C179.331 7.70234 178.763 12.0021 178.372 16.3144C178.051 19.9207 177.912 23.5522 177.736 27.171C177.622 29.4848 177.565 31.7986 177.515 34.1124C177.445 37.1828 177.389 40.2531 177.351 43.3235C177.338 44.4835 177.395 45.6372 177.408 46.7973ZM82.078 42.983C91.6689 40.2027 101.02 37.498 110.517 34.7492C111.002 35.9912 111.545 37.0251 111.809 38.1284C112.396 40.6251 112.875 43.1469 113.323 45.6688C113.461 46.4505 113.386 47.2765 113.348 48.0771C113.31 48.8589 112.907 49.2939 112.093 49.5209C103.606 51.8662 95.1308 54.2557 86.6496 56.6262C85.4641 56.954 85.2876 56.8847 84.7894 55.7499C83.6102 53.0515 83.0238 50.1955 82.5761 47.3017C82.3554 45.921 82.2482 44.5213 82.078 42.983Z" fill="black"/>
<path d="M8.78684 119.527C9.82728 119.477 10.7668 119.401 11.7001 119.395C20.6416 119.345 29.0849 117.314 36.8914 112.92C45.5176 108.066 52.0124 101.212 55.6571 91.932C60.0081 80.8548 59.1946 69.9352 54.2194 59.2363C53.8159 58.3725 53.3745 57.5214 52.9394 56.6514C53.034 56.5253 53.0907 56.3677 53.2042 56.292C58.8163 52.7236 64.8193 50.4602 71.6043 51.0277C74.013 51.2294 76.3966 51.6581 78.7928 51.9607C79.9341 52.1057 81.088 52.1877 82.3555 52.3075C82.5951 53.0262 82.841 53.8332 83.1374 54.6213C83.4211 55.3715 83.6986 56.1344 84.0706 56.8468C84.7264 58.0951 85.1237 58.2464 86.5109 57.8556C95.2885 55.3968 104.053 52.9127 112.837 50.4855C113.852 50.2017 114.458 49.8298 114.414 48.7012C114.357 47.2953 114.464 45.8768 114.306 44.4898C113.89 40.8709 113.083 37.3403 111.387 34.0745C111.299 33.9043 111.185 33.7404 110.983 33.4062C101.046 36.2875 91.1078 39.1624 81.1385 42.0499C80.8358 43.5882 81.0754 45.0193 81.2961 46.4505C81.5168 47.8816 81.7249 49.3128 81.9645 50.9646C81.2078 50.9646 80.571 51.0277 79.953 50.952C77.5505 50.6557 75.1607 50.3026 72.7645 49.9937C67.7326 49.3506 62.915 50.1954 58.3181 52.2444C56.3003 53.146 54.3708 54.2556 52.271 55.34C41.917 39.4145 26.8779 31.1933 7.86621 29.3398C8.08691 28.6967 8.3013 28.0599 8.5157 27.4232C10.4389 21.749 12.4315 16.1001 14.2476 10.3881C14.8655 8.43994 15.0989 6.35941 15.3826 4.32302C15.597 2.78469 15.6979 2.56403 17.2365 2.67751C20.5659 2.92339 23.8764 2.86665 27.1869 2.40011C28.2273 2.2551 29.2993 2.34337 30.3587 2.37489C35.0942 2.5325 39.8235 2.84774 44.5591 2.85404C50.4171 2.85404 56.2373 3.17558 62.0637 3.72408C64.5103 3.95105 66.9948 3.85648 69.4603 3.82495C75.5579 3.73669 81.6619 3.76191 87.7532 3.45298C95.5533 3.05579 103.335 2.34967 111.128 1.82639C113.487 1.66877 115.864 1.5679 118.229 1.63094C125.089 1.80747 131.931 1.58051 138.785 1.23375C143.868 0.975263 148.963 1.07614 154.039 1.59942C156.397 1.839 158.755 2.03444 161.114 2.2488C161.164 2.2488 161.215 2.26141 161.265 2.26141C164.689 2.00922 168.107 2.19206 171.531 2.2551C173.523 2.28662 175.516 1.92726 177.515 1.77595C177.912 1.74443 178.322 1.78226 178.713 1.86422C179.791 2.09118 179.949 2.33076 179.829 3.42146C179.344 7.72751 178.77 12.021 178.385 16.3396C178.063 19.9459 177.925 23.5773 177.748 27.1962C177.635 29.51 177.578 31.8238 177.527 34.1376C177.458 37.2079 177.401 40.2783 177.364 43.3486C177.351 44.5087 177.408 45.6624 177.42 46.8225C177.483 52.3642 177.458 57.906 177.622 63.4478C177.855 71.2024 178.234 78.9508 178.549 86.6992C178.581 87.4053 178.618 88.1114 178.618 88.8113C178.662 94.3026 178.757 99.7939 178.726 105.285C178.669 115.663 178.555 126.04 178.429 136.424C178.417 137.678 178.227 138.933 178.101 140.181C178.026 140.944 177.641 141.518 176.91 141.789C176.254 142.029 175.592 142.306 174.904 142.401C172.71 142.703 170.509 142.968 168.302 143.176C167.508 143.252 166.688 143.176 165.893 143.094C161.234 142.615 156.58 142.111 151.876 142.23C148.25 142.325 144.618 142.06 140.992 142.047C134.289 142.022 127.586 142.016 120.883 142.104C115.088 142.18 109.293 142.401 103.499 142.558C102.742 142.577 101.985 142.609 101.228 142.602C95.6857 142.558 90.143 142.432 84.6003 142.482C78.6036 142.533 72.6069 142.766 66.6164 142.873C62.8393 142.943 59.0559 142.899 55.2788 142.968C48.0209 143.094 40.7694 143.245 33.5115 143.428C28.5237 143.554 23.5359 143.75 18.5481 143.901C17.8986 143.92 17.2428 143.838 16.4546 143.794C16.3159 143.46 16.0952 143.126 16.0321 142.76C14.6133 134.986 11.9712 127.604 9.01385 120.315C8.94449 120.139 8.90665 119.95 8.78684 119.546V119.527Z" fill="white"/>
<path d="M38.4925 80.9431C34.1921 80.7161 29.942 80.9935 25.755 82.0716C24.8848 82.2986 24.2669 81.9203 24.0525 81.0629C23.9579 80.672 23.9011 80.2622 23.9138 79.8587C24.021 76.492 24.0966 73.1191 24.2921 69.7524C24.3678 68.4599 24.8344 67.2305 25.5911 66.2407C30.9825 65.585 36.2099 66.9658 41.4814 66.8018C41.7778 66.0957 41.9733 65.4653 42.3012 64.9041C42.6984 64.2169 42.5913 63.6306 42.3201 62.9182C41.1157 59.7911 39.5519 56.891 37.2819 54.388C36.172 53.1586 35.1127 51.8662 34.0849 50.5674C31.2158 46.936 27.4639 44.5402 23.2012 42.9578C20.9942 42.1382 18.6674 41.6212 16.3658 41.0853C15.4326 40.8709 14.3795 40.5809 13.6607 41.3059C10.0223 40.5305 6.69288 41.5266 3.09863 41.4383C3.33825 42.1823 3.43284 42.7182 3.67876 43.1721C4.32194 44.37 5.11646 45.4922 5.70289 46.709C6.74333 48.8841 7.89727 51.0403 8.61612 53.3289C10.3124 58.7508 10.9808 64.3493 10.6339 70.0361C10.3439 74.8591 9.90879 79.6759 9.57459 84.4926C9.32867 88.1178 8.95033 91.7177 8.16842 95.2672C7.4874 98.3565 7.1532 101.54 5.6083 104.39C5.45697 104.674 5.3876 105.008 5.26149 105.374C7.7018 106.357 10.1736 106.407 12.6266 106.836C12.8788 106.244 13.0932 105.796 13.2634 105.329C13.4904 104.712 13.6165 104.056 13.9066 103.476C14.0516 103.186 14.5246 102.795 14.7516 102.852C15.3254 102.99 15.029 103.444 14.8966 103.823C14.5561 104.806 14.2471 105.802 13.894 106.899C16.4289 107.051 18.844 106.956 21.051 106.168C24.5002 104.932 27.8296 103.35 31.1905 101.881C32.9688 101.105 34.4695 99.9326 35.8631 98.5897C39.6023 94.9772 42.1814 90.6522 43.8587 85.7661C44.3442 84.3476 44.7037 82.8912 45.1451 81.3655C42.7867 81.2142 40.6428 81.0629 38.4925 80.9431ZM18.3774 64.3241C18.2638 65.6166 18.8818 66.9279 18.4215 68.233C17.5324 68.0817 17.5954 67.508 17.5324 67.0351C17.2234 64.6898 17.2549 64.2043 17.8729 63.2775C18.0873 63.6937 18.4026 64.0278 18.3774 64.3241ZM16.4478 54.3502C16.7063 54.615 17.0784 54.8104 17.1099 55.0563C17.2865 56.4812 17.8792 57.8745 17.5828 59.3561C16.4667 58.3852 15.8929 55.6174 16.4478 54.3502ZM14.9912 49.42C14.575 48.3167 14.2219 47.1945 14.0327 45.9651C14.9534 45.8074 15.1362 46.2614 15.2686 46.6838C15.5083 47.4466 15.7227 48.2221 15.8677 49.0039C15.9118 49.2245 15.6848 49.4956 15.5839 49.7415C15.3821 49.6343 15.0479 49.5776 14.9912 49.42ZM16.2334 97.0451C16.2145 97.1334 15.9875 97.1775 15.6596 97.3414C15.5524 96.9631 15.4137 96.7362 15.4452 96.5218C15.6281 95.2357 15.8298 93.9558 16.0884 92.6823C16.1262 92.4679 16.4604 92.3166 16.6559 92.1338C16.8072 92.3103 17.1162 92.5184 17.091 92.6634C16.8388 94.1324 16.5424 95.5887 16.2334 97.0451ZM17.7909 87.1342C17.7531 87.3612 17.5072 87.5629 17.3621 87.7773C17.2234 87.7395 17.091 87.7017 16.9523 87.6638C16.7126 86.3525 16.9901 85.0222 17.0153 83.7108C17.0153 83.5784 17.2549 83.3641 17.4063 83.3452C17.5576 83.3262 17.8288 83.465 17.8792 83.5973C17.9927 83.9126 18.0747 84.2656 18.0558 84.5998C18.0053 85.4509 17.9233 86.2957 17.7909 87.1342ZM18.2512 79.3796C17.4378 79.1904 17.5513 78.6987 17.5513 78.2762C17.5513 75.6472 17.7468 74.5124 18.4845 73.9576C18.8188 75.7922 18.9323 77.5827 18.2512 79.3796Z" fill="white"/>
<path d="M8.54077 118.109C8.43357 117.144 8.34529 116.205 8.22548 115.259C7.93542 113.015 7.10307 110.997 5.72842 109.188C5.17352 108.456 4.42945 107.731 4.90237 106.571C6.18243 106.824 7.44357 107.088 8.71102 107.309C10.0983 107.555 11.4855 107.839 12.8854 107.965C16.7508 108.318 20.5216 107.902 24.1095 106.319C26.5057 105.266 28.8893 104.182 31.2791 103.116C33.5177 102.12 35.4283 100.677 37.1434 98.9302C41.8223 94.1513 44.7418 88.4456 46.0786 81.9266C46.7029 78.8815 46.2867 75.8048 46.1291 72.7408C45.9903 70.0928 45.2273 67.5899 44.3319 65.1248C44.1049 64.5006 44.0734 64.0026 44.5526 63.4667C46.6777 61.0835 49.1054 59.0724 51.8862 57.244C52.1825 57.7862 52.46 58.2528 52.6996 58.7319C62.4987 78.0682 56.2182 99.9515 37.6479 111.149C31.607 114.793 25.068 117.037 18.0624 117.787C15.1176 118.103 12.135 118.071 9.17134 118.191C8.97586 118.197 8.78038 118.134 8.54077 118.096V118.109Z" fill="white"/>
<path d="M82.0775 42.983C91.6685 40.2026 101.026 37.498 110.516 34.7491C111.002 35.9912 111.544 37.0314 111.803 38.1347C112.389 40.6314 112.868 43.1469 113.316 45.6688C113.455 46.4505 113.379 47.2764 113.341 48.0771C113.303 48.8589 112.9 49.2939 112.08 49.5209C103.593 51.8662 95.1177 54.2556 86.6365 56.6262C85.4511 56.9603 85.2745 56.8847 84.7764 55.7498C83.5972 53.0578 83.0044 50.1955 82.5567 47.308C82.3424 45.9272 82.2352 44.5276 82.0586 42.9893L82.0775 42.983Z" fill="white"/>
<path d="M3.27539 40.2846C4.76984 36.9053 6.13187 33.8287 7.56957 30.5755C16.4921 31.0861 24.9418 33.5891 32.7798 38.1284C40.416 42.5479 46.6271 48.4428 51.1987 56.0083C48.5945 58.2402 46.0848 60.39 43.4995 62.6093C43.1464 61.8716 42.6734 61.052 42.3644 60.1694C41.7024 58.278 40.5925 56.664 39.3566 55.1383C37.6163 52.9821 35.8885 50.807 34.0346 48.7517C30.4908 44.8302 26.0138 42.4471 20.9566 41.0159C17.4317 40.0198 13.8942 39.4335 10.2243 39.9189C8.67938 40.1207 7.12187 40.1837 5.56436 40.2783C4.87704 40.3224 4.17711 40.2846 3.2817 40.2846H3.27539Z" fill="white"/>
<path d="M26.0388 67.9493C32.0797 67.5836 38.0953 69.0274 44.1551 68.6806C44.9812 70.7548 45.5361 77.7404 45.0379 79.9785C43.4678 79.9785 41.8535 80.1235 40.2834 79.9533C35.4154 79.4237 30.6294 79.8209 25.8812 80.9116C25.6857 80.9557 25.4902 80.9746 25.2947 81.0062C24.6516 78.8374 25.1245 70.2126 26.0388 67.9493Z" fill="white"/>
<path d="M43.2918 65.9066C43.3233 66.1525 43.3548 66.392 43.3863 66.6379C43.2476 66.6442 43.1089 66.6505 42.9639 66.6568C42.9891 66.411 43.008 66.1588 43.0332 65.9129C43.1215 65.9129 43.2035 65.9129 43.2918 65.9129V65.9066Z" fill="white"/>
<path d="M18.4851 73.9576C18.8193 75.7859 18.9328 77.5827 18.2518 79.3796C17.4447 79.1904 17.5582 78.6987 17.5582 78.2763C17.5582 75.6472 17.7537 74.5124 18.4851 73.9639V73.9576Z" fill="black"/>
<path d="M15.6602 97.3414C15.5593 96.9694 15.4143 96.7362 15.4458 96.5281C15.6287 95.242 15.8304 93.9558 16.089 92.6823C16.1331 92.4679 16.461 92.3166 16.6565 92.1338C16.8078 92.3103 17.1168 92.5184 17.0916 92.6634C16.8394 94.126 16.543 95.5887 16.234 97.0388C16.2151 97.127 15.9881 97.1712 15.6602 97.3351V97.3414Z" fill="black"/>
<path d="M17.5833 59.3561C16.4672 58.3852 15.8997 55.6174 16.4546 54.3502C16.7132 54.615 17.0852 54.8168 17.1104 55.0563C17.287 56.4812 17.8797 57.8745 17.5833 59.3561Z" fill="black"/>
<path d="M17.88 63.2712C18.0881 63.6936 18.4097 64.0215 18.3782 64.3241C18.2647 65.6103 18.8826 66.9279 18.4223 68.233C17.5332 68.0817 17.5963 67.5079 17.5332 67.0351C17.2179 64.6898 17.2558 64.2043 17.8737 63.2775L17.88 63.2712Z" fill="black"/>
<path d="M16.9523 87.6575C16.7127 86.3462 16.9901 85.0222 17.0153 83.7045C17.0153 83.5721 17.255 83.3641 17.4 83.3452C17.5513 83.3262 17.8225 83.4649 17.8729 83.591C17.9927 83.9063 18.0684 84.2656 18.0495 84.5998C17.999 85.4446 17.9171 86.2957 17.7846 87.1279C17.7468 87.3612 17.5009 87.5566 17.3559 87.771C17.2234 87.7332 17.0847 87.6953 16.9523 87.6575Z" fill="black"/>
<path d="M14.0391 45.9651C14.9534 45.8074 15.1426 46.2614 15.275 46.6838C15.5146 47.4466 15.729 48.2221 15.874 49.0102C15.9182 49.2308 15.6912 49.4956 15.5903 49.7478C15.3822 49.6406 15.0543 49.5839 14.9975 49.4263C14.5814 48.323 14.2345 47.2008 14.0454 45.9714L14.0391 45.9651Z" fill="black"/>
</svg>
