<svg width="106" height="67" viewBox="0 0 106 67" fill="none" xmlns="http://www.w3.org/2000/svg">
<path d="M52.97 65.4101C81.6722 65.4101 104.94 57.9556 104.94 48.7601C104.94 39.5646 81.6722 32.1101 52.97 32.1101C24.2678 32.1101 1 39.5646 1 48.7601C1 57.9556 24.2678 65.4101 52.97 65.4101Z" fill="white" stroke="black" stroke-width="2" stroke-miterlimit="10"/>
<path d="M93.7398 10.8401H11.7998V43.0601C19.1898 46.7301 34.1798 52.9301 53.9698 52.6701C72.4398 52.4301 86.4398 46.6801 93.7398 43.0601V10.8401Z" fill="#FB2D2D" stroke="black" stroke-width="2" stroke-miterlimit="10"/>
<path d="M52.7898 20.68C75.4059 20.68 93.7398 16.2745 93.7398 10.84C93.7398 5.40552 75.4059 1 52.7898 1C30.1738 1 11.8398 5.40552 11.8398 10.84C11.8398 16.2745 30.1738 20.68 52.7898 20.68Z" fill="#FB2D2D" stroke="black" stroke-width="2" stroke-miterlimit="10"/>
</svg>
