<svg width="307" height="67" viewBox="0 0 307 67" fill="none" xmlns="http://www.w3.org/2000/svg">
<rect x="75.5" y="13.5" width="230" height="50" fill="white" stroke="black" stroke-width="3"/>
<path d="M111.368 49H121.64C125.576 49 127.816 46.6 127.816 43.24C127.816 40.648 125.96 38.344 123.688 37.992C125.64 37.576 127.4 35.784 127.4 33.096C127.4 29.992 125.192 27.656 121.384 27.656H111.368V49ZM114.568 36.712V30.472H120.776C122.92 30.472 124.104 31.848 124.104 33.608C124.104 35.368 122.92 36.712 120.776 36.712H114.568ZM114.568 46.184V39.528H120.936C123.304 39.528 124.52 41.064 124.52 42.824C124.52 44.904 123.176 46.184 120.936 46.184H114.568ZM138.558 49.384C143.39 49.384 146.366 45.736 146.366 41.256C146.366 36.808 143.39 33.16 138.558 33.16C133.758 33.16 130.75 36.808 130.75 41.256C130.75 45.736 133.758 49.384 138.558 49.384ZM138.558 46.824C135.486 46.824 133.758 44.2 133.758 41.256C133.758 38.344 135.486 35.72 138.558 35.72C141.662 35.72 143.358 38.344 143.358 41.256C143.358 44.2 141.662 46.824 138.558 46.824ZM156.871 49.384C161.703 49.384 164.679 45.736 164.679 41.256C164.679 36.808 161.703 33.16 156.871 33.16C152.071 33.16 149.063 36.808 149.063 41.256C149.063 45.736 152.071 49.384 156.871 49.384ZM156.871 46.824C153.799 46.824 152.071 44.2 152.071 41.256C152.071 38.344 153.799 35.72 156.871 35.72C159.975 35.72 161.671 38.344 161.671 41.256C161.671 44.2 159.975 46.824 156.871 46.824ZM178.703 49H182.351L175.631 40.552L182.287 33.544H178.671L171.215 41.384V27.656H168.335V49H171.215V44.712L173.551 42.344L178.703 49ZM202.746 49H205.626V38.568C205.626 34.632 202.778 33.16 199.418 33.16C196.922 33.16 194.81 33.992 193.082 35.688L194.33 37.672C195.706 36.296 197.21 35.624 198.97 35.624C201.178 35.624 202.746 36.776 202.746 38.696V41.256C201.562 39.88 199.77 39.208 197.69 39.208C195.098 39.208 192.314 40.744 192.314 44.264C192.314 47.656 195.13 49.384 197.69 49.384C199.77 49.384 201.53 48.648 202.746 47.304V49ZM202.746 45.608C201.882 46.76 200.378 47.368 198.778 47.368C196.698 47.368 195.226 46.12 195.226 44.296C195.226 42.472 196.698 41.224 198.778 41.224C200.378 41.224 201.882 41.832 202.746 42.984V45.608ZM229.5 49H232.38V27.656H229.5V35.784C228.252 34.12 226.428 33.16 224.444 33.16C220.411 33.16 217.532 36.328 217.532 41.288C217.532 46.344 220.411 49.384 224.444 49.384C226.492 49.384 228.348 48.328 229.5 46.792V49ZM229.5 44.584C228.7 45.832 226.972 46.824 225.212 46.824C222.332 46.824 220.54 44.488 220.54 41.288C220.54 38.056 222.332 35.72 225.212 35.72C226.972 35.72 228.7 36.744 229.5 37.992V44.584ZM236.032 41.256C236.032 46.12 239.424 49.384 244.032 49.384C246.528 49.384 248.704 48.584 250.24 47.08L248.896 45.192C247.744 46.376 245.952 47.016 244.32 47.016C241.216 47.016 239.296 44.84 239.072 42.216H251.296V41.512C251.296 36.776 248.416 33.16 243.776 33.16C239.264 33.16 236.032 36.776 236.032 41.256ZM243.776 35.528C247.04 35.528 248.416 38.088 248.48 40.136H239.04C239.2 38.024 240.672 35.528 243.776 35.528ZM273.682 49H276.562V37.832C276.562 34.728 275.026 33.16 272.178 33.16C269.906 33.16 267.858 34.6 266.962 36.04C266.482 34.376 265.106 33.16 262.77 33.16C260.466 33.16 258.418 34.76 257.778 35.72V33.544H254.898V49H257.778V37.96C258.546 36.84 260.05 35.72 261.554 35.72C263.506 35.72 264.274 36.904 264.274 38.696V49H267.154V37.928C267.89 36.808 269.426 35.72 270.994 35.72C272.882 35.72 273.682 36.904 273.682 38.696V49ZM287.996 49.384C292.828 49.384 295.804 45.736 295.804 41.256C295.804 36.808 292.828 33.16 287.996 33.16C283.196 33.16 280.188 36.808 280.188 41.256C280.188 45.736 283.196 49.384 287.996 49.384ZM287.996 46.824C284.924 46.824 283.196 44.2 283.196 41.256C283.196 38.344 284.924 35.72 287.996 35.72C291.1 35.72 292.796 38.344 292.796 41.256C292.796 44.2 291.1 46.824 287.996 46.824Z" fill="black"/>
<path d="M52.97 65.4101C81.6722 65.4101 104.94 57.9556 104.94 48.7601C104.94 39.5646 81.6722 32.1101 52.97 32.1101C24.2678 32.1101 1 39.5646 1 48.7601C1 57.9556 24.2678 65.4101 52.97 65.4101Z" fill="white" stroke="black" stroke-width="2" stroke-miterlimit="10"/>
<path d="M93.7398 10.8401H11.7998V43.0601C19.1898 46.7301 34.1798 52.9301 53.9698 52.6701C72.4398 52.4301 86.4398 46.6801 93.7398 43.0601V10.8401Z" fill="#FB2D2D" stroke="black" stroke-width="2" stroke-miterlimit="10"/>
<path d="M52.7898 20.68C75.4059 20.68 93.7398 16.2745 93.7398 10.84C93.7398 5.40552 75.4059 1 52.7898 1C30.1738 1 11.8398 5.40552 11.8398 10.84C11.8398 16.2745 30.1738 20.68 52.7898 20.68Z" fill="#FB2D2D" stroke="black" stroke-width="2" stroke-miterlimit="10"/>
</svg>
