<svg width="25" height="52" viewBox="0 0 25 52" fill="none" xmlns="http://www.w3.org/2000/svg">
<path d="M15.9994 8.44657C16.4876 8.23789 17.0086 8.10869 17.4159 7.97501C18.4087 8.96541 17.7515 10.4176 18.6834 11.4374C19.0278 11.1109 19.3122 10.8749 19.5577 10.6031C21.1445 8.84727 22.5273 6.90229 24.3575 5.37226C24.9294 4.89418 24.8874 4.34965 24.2762 3.85892H24.2766C23.5974 3.28831 22.8697 2.78047 22.1019 2.3411C20.5905 1.52147 19.035 0.784989 17.4875 0.0362522C17.2676 -0.00817331 17.0413 -0.0118417 16.8203 0.0256556V3.52748C15.5975 4.05897 14.3876 4.53623 13.2203 5.10353L13.2199 5.10312C11.1237 6.08985 9.18129 7.3847 7.45517 8.94614C6.13833 10.2003 4.9801 11.6162 4.00692 13.1612C2.30685 15.6095 1.11181 18.3827 0.493372 21.3136C-0.686902 27.1545 0.267098 33.2332 3.17667 38.4095C4.81708 41.514 7.21803 44.1347 10.1468 46.0165C12.9086 47.8086 15.9138 49.1784 19.0665 50.0824C20.4057 50.437 24.536 52.8703 24.081 49.3496C23.9216 48.1163 24.2292 46.2182 22.7282 46.1542C20.4146 46.0409 18.1385 45.5172 16.002 44.6063C10.6463 42.3687 7.21362 38.2057 5.54132 32.6834C4.65864 29.9494 4.37591 27.052 4.71311 24.1949C5.04993 21.3378 5.99868 18.5908 7.49207 16.147C9.42765 12.7054 12.415 10.0015 15.9994 8.44657Z" fill="#4DF7CE"/>
</svg>
