<svg width="147" height="41" viewBox="0 0 147 41" fill="none" xmlns="http://www.w3.org/2000/svg">
<path d="M1.5 13.42V6.94C1.5 3.94 3.93 1.5 6.94 1.5H139.25C142.25 1.5 144.69 3.94 144.69 6.94V13.42" stroke="black" stroke-width="3" stroke-miterlimit="10"/>
<path d="M144.69 26.64C144.69 29.65 142.25 32.09 139.25 32.09H6.94C3.93 32.09 1.5 29.65 1.5 26.64" stroke="black" stroke-width="3" stroke-miterlimit="10"/>
<path d="M144.69 13.42V33.12C144.69 36.12 142.25 38.56 139.25 38.56H6.94C3.93 38.56 1.5 36.12 1.5 33.12V13.42" stroke="black" stroke-width="3" stroke-miterlimit="10"/>
<path d="M58.9258 16.79C58.7738 16.51 58.5538 16.298 58.2658 16.154C57.9858 16.002 57.6538 15.926 57.2698 15.926C56.6058 15.926 56.0738 16.146 55.6738 16.586C55.2738 17.018 55.0738 17.598 55.0738 18.326C55.0738 19.102 55.2818 19.71 55.6978 20.15C56.1218 20.582 56.7018 20.798 57.4378 20.798C57.9418 20.798 58.3658 20.67 58.7098 20.414C59.0618 20.158 59.3178 19.79 59.4778 19.31H56.8738V17.798H61.3378V19.706C61.1858 20.218 60.9258 20.694 60.5578 21.134C60.1978 21.574 59.7378 21.93 59.1778 22.202C58.6178 22.474 57.9858 22.61 57.2818 22.61C56.4498 22.61 55.7058 22.43 55.0498 22.07C54.4018 21.702 53.8938 21.194 53.5258 20.546C53.1658 19.898 52.9858 19.158 52.9858 18.326C52.9858 17.494 53.1658 16.754 53.5258 16.106C53.8938 15.45 54.4018 14.942 55.0498 14.582C55.6978 14.214 56.4378 14.03 57.2698 14.03C58.2778 14.03 59.1258 14.274 59.8138 14.762C60.5098 15.25 60.9698 15.926 61.1938 16.79H58.9258ZM65.5225 22.646C64.8665 22.646 64.2745 22.506 63.7465 22.226C63.2265 21.946 62.8145 21.546 62.5105 21.026C62.2145 20.506 62.0665 19.898 62.0665 19.202C62.0665 18.514 62.2185 17.91 62.5225 17.39C62.8265 16.862 63.2425 16.458 63.7705 16.178C64.2985 15.898 64.8905 15.758 65.5465 15.758C66.2025 15.758 66.7945 15.898 67.3225 16.178C67.8505 16.458 68.2665 16.862 68.5705 17.39C68.8745 17.91 69.0265 18.514 69.0265 19.202C69.0265 19.89 68.8705 20.498 68.5585 21.026C68.2545 21.546 67.8345 21.946 67.2985 22.226C66.7705 22.506 66.1785 22.646 65.5225 22.646ZM65.5225 20.87C65.9145 20.87 66.2465 20.726 66.5185 20.438C66.7985 20.15 66.9385 19.738 66.9385 19.202C66.9385 18.666 66.8025 18.254 66.5305 17.966C66.2665 17.678 65.9385 17.534 65.5465 17.534C65.1465 17.534 64.8145 17.678 64.5505 17.966C64.2865 18.246 64.1545 18.658 64.1545 19.202C64.1545 19.738 64.2825 20.15 64.5385 20.438C64.8025 20.726 65.1305 20.87 65.5225 20.87ZM74.7101 13.67V22.55H72.6581V13.67H74.7101ZM77.2291 15.158C76.8691 15.158 76.5731 15.054 76.3411 14.846C76.1171 14.63 76.0051 14.366 76.0051 14.054C76.0051 13.734 76.1171 13.47 76.3411 13.262C76.5731 13.046 76.8691 12.938 77.2291 12.938C77.5811 12.938 77.8691 13.046 78.0931 13.262C78.3251 13.47 78.4411 13.734 78.4411 14.054C78.4411 14.366 78.3251 14.63 78.0931 14.846C77.8691 15.054 77.5811 15.158 77.2291 15.158ZM78.2491 15.854V22.55H76.1971V15.854H78.2491ZM82.7482 20.63L84.2002 15.854H86.3842L84.0082 22.55H81.4762L79.1002 15.854H81.2962L82.7482 20.63ZM93.5599 19.094C93.5599 19.286 93.5479 19.486 93.5239 19.694H88.8799C88.9119 20.11 89.0439 20.43 89.2759 20.654C89.5159 20.87 89.8079 20.978 90.1519 20.978C90.6639 20.978 91.0199 20.762 91.2199 20.33H93.4039C93.2919 20.77 93.0879 21.166 92.7919 21.518C92.5039 21.87 92.1399 22.146 91.6999 22.346C91.2599 22.546 90.7679 22.646 90.2239 22.646C89.5679 22.646 88.9839 22.506 88.4719 22.226C87.9599 21.946 87.5599 21.546 87.2719 21.026C86.9839 20.506 86.8399 19.898 86.8399 19.202C86.8399 18.506 86.9799 17.898 87.2599 17.378C87.5479 16.858 87.9479 16.458 88.4599 16.178C88.9719 15.898 89.5599 15.758 90.2239 15.758C90.8719 15.758 91.4479 15.894 91.9519 16.166C92.4559 16.438 92.8479 16.826 93.1279 17.33C93.4159 17.834 93.5599 18.422 93.5599 19.094ZM91.4599 18.554C91.4599 18.202 91.3399 17.922 91.0999 17.714C90.8599 17.506 90.5599 17.402 90.1999 17.402C89.8559 17.402 89.5639 17.502 89.3239 17.702C89.0919 17.902 88.9479 18.186 88.8919 18.554H91.4599Z" fill="black"/>
</svg>
