<svg width="147" height="34" viewBox="0 0 147 34" fill="none" xmlns="http://www.w3.org/2000/svg">
<g clip-path="url(#clip0_518_2281)">
<path d="M144.7 6.95V13.42C144.7 10.41 142.26 7.97 139.26 7.97H6.95C3.94 7.97 1.51 10.41 1.51 13.42H1.5V6.95C1.5 3.94 3.94 1.5 6.95 1.5H139.25C142.26 1.5 144.7 3.94 144.7 6.95Z" fill="black"/>
<path d="M1.51 13.42C1.51 10.41 3.94 7.96997 6.95 7.96997H139.26C142.26 7.96997 144.7 10.41 144.7 13.42V26.64C144.7 29.65 142.26 32.09 139.25 32.09H6.95C3.94 32.09 1.5 29.65 1.5 26.65V13.42H1.51Z" fill="#FB2D2D"/>
<path d="M144.7 26.64C144.7 29.65 142.26 32.09 139.25 32.09H6.95C3.94 32.09 1.5 29.65 1.5 26.65V6.95C1.5 3.94 3.94 1.5 6.95 1.5H139.25C142.26 1.5 144.7 3.94 144.7 6.95V13.42" stroke="black" stroke-width="3" stroke-miterlimit="10"/>
<path d="M144.7 26.64V13.42C144.7 10.41 142.26 7.96997 139.26 7.96997H6.94977C3.93977 7.96997 1.50977 10.41 1.50977 13.42V26.64" stroke="black" stroke-width="3" stroke-miterlimit="10"/>
<path d="M54.1651 17.416V25.84H52.1131V17.416H54.1651ZM59.3842 24.1V25.84H58.3402C57.5962 25.84 57.0162 25.66 56.6002 25.3C56.1842 24.932 55.9762 24.336 55.9762 23.512V20.848H55.1602V19.144H55.9762V17.512H58.0282V19.144H59.3722V20.848H58.0282V23.536C58.0282 23.736 58.0762 23.88 58.1722 23.968C58.2682 24.056 58.4282 24.1 58.6522 24.1H59.3842ZM60.9952 17.416H63.0952L61.7512 20.632H60.3712L60.9952 17.416ZM67.0246 25.936C66.4406 25.936 65.9206 25.836 65.4646 25.636C65.0086 25.436 64.6486 25.164 64.3846 24.82C64.1206 24.468 63.9726 24.076 63.9406 23.644H65.9686C65.9926 23.876 66.1006 24.064 66.2926 24.208C66.4846 24.352 66.7206 24.424 67.0006 24.424C67.2566 24.424 67.4526 24.376 67.5886 24.28C67.7326 24.176 67.8046 24.044 67.8046 23.884C67.8046 23.692 67.7046 23.552 67.5046 23.464C67.3046 23.368 66.9806 23.264 66.5326 23.152C66.0526 23.04 65.6526 22.924 65.3326 22.804C65.0126 22.676 64.7366 22.48 64.5046 22.216C64.2726 21.944 64.1566 21.58 64.1566 21.124C64.1566 20.74 64.2606 20.392 64.4686 20.08C64.6846 19.76 64.9966 19.508 65.4046 19.324C65.8206 19.14 66.3126 19.048 66.8806 19.048C67.7206 19.048 68.3806 19.256 68.8606 19.672C69.3486 20.088 69.6286 20.64 69.7006 21.328H67.8046C67.7726 21.096 67.6686 20.912 67.4926 20.776C67.3246 20.64 67.1006 20.572 66.8206 20.572C66.5806 20.572 66.3966 20.62 66.2686 20.716C66.1406 20.804 66.0766 20.928 66.0766 21.088C66.0766 21.28 66.1766 21.424 66.3766 21.52C66.5846 21.616 66.9046 21.712 67.3366 21.808C67.8326 21.936 68.2366 22.064 68.5486 22.192C68.8606 22.312 69.1326 22.512 69.3646 22.792C69.6046 23.064 69.7286 23.432 69.7366 23.896C69.7366 24.288 69.6246 24.64 69.4006 24.952C69.1846 25.256 68.8686 25.496 68.4526 25.672C68.0446 25.848 67.5686 25.936 67.0246 25.936ZM75.587 16.96V25.84H73.535V16.96H75.587ZM78.1061 18.448C77.7461 18.448 77.4501 18.344 77.2181 18.136C76.9941 17.92 76.8821 17.656 76.8821 17.344C76.8821 17.024 76.9941 16.76 77.2181 16.552C77.4501 16.336 77.7461 16.228 78.1061 16.228C78.4581 16.228 78.7461 16.336 78.9701 16.552C79.2021 16.76 79.3181 17.024 79.3181 17.344C79.3181 17.656 79.2021 17.92 78.9701 18.136C78.7461 18.344 78.4581 18.448 78.1061 18.448ZM79.1261 19.144V25.84H77.0741V19.144H79.1261ZM83.6251 23.92L85.0771 19.144H87.2611L84.8851 25.84H82.3531L79.9771 19.144H82.1731L83.6251 23.92ZM94.4369 22.384C94.4369 22.576 94.4249 22.776 94.4009 22.984H89.7569C89.7889 23.4 89.9209 23.72 90.1529 23.944C90.3929 24.16 90.6849 24.268 91.0289 24.268C91.5409 24.268 91.8969 24.052 92.0969 23.62H94.2809C94.1689 24.06 93.9649 24.456 93.6689 24.808C93.3809 25.16 93.0169 25.436 92.5769 25.636C92.1369 25.836 91.6449 25.936 91.1009 25.936C90.4449 25.936 89.8609 25.796 89.3489 25.516C88.8369 25.236 88.4369 24.836 88.1489 24.316C87.8609 23.796 87.7169 23.188 87.7169 22.492C87.7169 21.796 87.8569 21.188 88.1369 20.668C88.4249 20.148 88.8249 19.748 89.3369 19.468C89.8489 19.188 90.4369 19.048 91.1009 19.048C91.7489 19.048 92.3249 19.184 92.8289 19.456C93.3329 19.728 93.7249 20.116 94.0049 20.62C94.2929 21.124 94.4369 21.712 94.4369 22.384ZM92.3369 21.844C92.3369 21.492 92.2169 21.212 91.9769 21.004C91.7369 20.796 91.4369 20.692 91.0769 20.692C90.7329 20.692 90.4409 20.792 90.2009 20.992C89.9689 21.192 89.8249 21.476 89.7689 21.844H92.3369ZM98.2194 17.116L97.9794 22.864H96.2394L95.9994 17.116H98.2194ZM97.1394 25.936C96.7794 25.936 96.4834 25.832 96.2514 25.624C96.0274 25.408 95.9154 25.144 95.9154 24.832C95.9154 24.512 96.0274 24.244 96.2514 24.028C96.4834 23.812 96.7794 23.704 97.1394 23.704C97.4914 23.704 97.7794 23.812 98.0034 24.028C98.2354 24.244 98.3514 24.512 98.3514 24.832C98.3514 25.144 98.2354 25.408 98.0034 25.624C97.7794 25.832 97.4914 25.936 97.1394 25.936Z" fill="black"/>
</g>
<defs>
<clipPath id="clip0_518_2281">
<rect width="146.2" height="33.59" fill="white"/>
</clipPath>
</defs>
</svg>
