<svg width="221" height="198" viewBox="0 0 221 198" fill="none" xmlns="http://www.w3.org/2000/svg">
<path d="M20 186H33L29 197.5L18 197L20 186Z" fill="#D9D9D9"/>
<path d="M31 173H216L205.84 188H31V173Z" fill="#D9D9D9"/>
<path d="M44 19.0457H20.1479V175.006H44V19.0457Z" fill="white"/>
<path d="M9.5408 174.572C13.9074 174.981 18.0909 175.856 22.6342 176.208C22.5774 175.371 22.5647 174.83 22.5016 174.302C22.4322 173.711 22.2429 173.126 22.2429 172.54C22.1357 159.72 22.0473 146.894 21.959 134.074C21.877 121.657 21.7823 109.233 21.7066 96.8153C21.5804 76.0503 21.4289 55.2853 21.3721 34.514C21.3595 28.9532 20.88 23.3798 21.5804 17.8253C21.6498 17.2717 21.8328 16.4917 21.0188 16.2967C20.0849 16.0765 20.2363 16.9824 20.0029 17.4667C19.9839 17.5045 19.9271 17.5296 19.782 17.6555C16.2673 18.2971 12.6264 18.9702 8.99183 19.6307C8.73311 18.0266 8.24093 16.737 6.85272 16.1835C5.42665 15.6236 4.24667 16.4351 3.35695 17.4038C2.17066 18.6934 1.16736 20.1465 0.107271 21.5493C0 21.6877 0 21.9267 0 22.1154C0.0820307 24.4178 0.233472 26.7264 0.258712 29.0287C0.378603 42.0501 0.466944 55.0714 0.567905 68.0991C0.668866 81.1708 0.769826 94.2425 0.870787 107.314C1.02854 127.677 1.24939 148.045 1.29987 168.408C1.29987 172.05 2.12649 175.126 4.88398 177.567C5.74846 178.328 6.63187 179.089 7.58468 179.724C8.53119 180.353 9.37043 179.863 9.44615 178.693C9.50294 177.843 9.45246 176.988 9.46508 176.132C9.4777 175.642 9.51556 175.157 9.5408 174.572ZM7.60992 177.523C7.50265 177.585 7.40169 177.655 7.29442 177.718C5.86835 175.981 4.41704 174.258 3.04776 172.478C2.80797 172.169 2.83321 171.622 2.8269 171.175C2.75749 166.25 2.68808 161.325 2.65653 156.393C2.49878 133.615 2.36627 110.837 2.18959 88.0589C2.02553 66.3881 1.8173 44.711 1.64692 23.0401C1.64692 22.5054 1.71002 21.9016 1.95612 21.4423C2.71963 20.0207 3.72924 18.7563 5.09852 17.8567C6.16492 17.1522 6.85903 17.3975 7.05464 18.6368C7.29442 20.115 7.39538 21.6311 7.40169 23.1282C7.45217 35.6023 7.45848 48.0701 7.49003 60.5442C7.59099 95.293 7.69195 130.042 7.79292 164.784C7.79923 166.747 7.85602 168.71 7.83078 170.672C7.79292 172.956 7.68564 175.239 7.60992 177.523ZM9.28209 173.019C9.13696 122.367 8.98552 71.8168 8.84038 21.1404C12.6958 20.4233 16.3115 19.7565 20.148 19.0457C20.5329 70.9361 20.9115 122.688 21.2964 174.673C17.2517 174.113 13.3521 173.578 9.28209 173.019Z" fill="black"/>
<path d="M8.84029 21.1404C12.702 20.4233 16.3114 19.7565 20.1479 19.0457C20.5328 70.9361 20.9114 122.688 21.2963 174.673C17.2516 174.119 13.352 173.585 9.282 173.025C9.13056 122.374 8.98543 71.8231 8.83398 21.1467L8.84029 21.1404Z" fill="white"/>
<path d="M7.29451 177.718C5.86844 175.975 4.42343 174.258 3.04784 172.478C2.80806 172.169 2.83961 171.616 2.8333 171.176C2.76389 166.25 2.69448 161.318 2.66293 156.393C2.50518 133.615 2.37267 110.837 2.19598 88.0527C2.03192 66.3818 1.82369 44.7047 1.65332 23.0339C1.65332 22.4992 1.71011 21.8953 1.9562 21.4361C2.72603 20.0082 3.73564 18.7501 5.09861 17.8442C6.16501 17.1397 6.85911 17.385 7.05473 18.6305C7.2882 20.1088 7.38916 21.6248 7.39547 23.122C7.44595 35.5961 7.45226 48.0639 7.49012 60.538C7.58477 95.2868 7.69204 130.036 7.793 164.784C7.793 166.747 7.8561 168.71 7.82455 170.666C7.78669 172.949 7.67942 175.233 7.6037 177.516C7.49643 177.579 7.38916 177.648 7.2882 177.711L7.29451 177.718Z" fill="white"/>
<path d="M218.305 22.0751C215.079 20.2082 211.865 18.3159 208.696 16.3413C207.442 15.5629 206.175 15.2591 204.713 15.2718C191.26 15.3477 177.813 15.373 164.36 15.4173C142.091 15.4996 119.822 15.5945 97.5529 15.6578C76.5947 15.7211 55.6364 15.7591 34.6719 15.8034C34.1804 15.8097 33.6826 15.8097 33.21 15.8097C33.065 15.4427 32.9453 15.2148 32.8886 14.9743C31.956 10.9936 31.0234 7.00651 30.1034 3.0131C30.0152 2.62705 29.9585 2.22202 29.9585 1.82964C29.9711 0.741104 29.9018 0.627187 28.8431 0.551243C26.1777 0.361382 23.5185 0.171521 20.853 0.0069755C19.4982 -0.0816262 18.8429 0.677817 19.0319 2.05747C19.1895 3.20929 19.3533 4.36112 19.5108 5.51294C19.9834 8.91778 20.4624 12.3163 20.9223 15.7274C21.0673 16.8097 21.5714 17.5058 22.5796 18.0437C25.5601 19.6323 28.4587 21.36 31.4267 22.9801C32.2206 23.4168 32.8067 23.9231 32.9327 24.8534C33.0083 25.3914 33.128 25.9356 33.1343 26.4799C33.1847 30.6315 33.2163 34.7768 33.2478 38.9284C33.3486 51.9276 33.4494 64.933 33.5502 77.9322C33.7834 107.43 34.0165 136.922 34.2497 166.42C34.256 166.774 34.2686 167.129 34.2434 167.483C34.1678 168.382 33.8275 169.002 32.8886 169.413C29.7505 170.793 26.6818 172.312 23.5563 173.711C22.8506 174.027 22.5355 174.426 22.4977 175.166C22.441 176.179 22.3401 177.185 22.2267 178.191C21.8549 181.602 21.4832 185.02 21.0673 188.425C20.9854 189.102 21.2311 189.393 21.8234 189.456C22.5733 189.539 23.3295 189.577 24.0856 189.621C26.4864 189.747 28.8935 189.868 31.4267 190.001C31.6787 189.134 31.9749 188.336 32.1576 187.513C32.8067 184.552 33.4116 181.577 34.048 178.615C34.2245 177.786 34.445 176.97 34.653 176.134H38.6984C66.7646 176.236 94.8244 176.343 122.891 176.438C149.898 176.533 176.899 176.615 203.907 176.704C205.369 176.704 206.837 176.653 208.286 176.805C209.131 176.894 209.723 176.666 210.353 176.185C212.716 174.375 215.041 172.508 217.505 170.844C218.387 170.249 218.69 169.698 218.702 168.692C218.879 147.295 219.093 125.897 219.276 104.494C219.44 85.3684 219.578 66.2494 219.736 47.1241C219.799 39.7891 219.843 32.4542 220 25.1192C220.032 23.632 219.522 22.7776 218.305 22.0751ZM32.7311 22.0625C29.3598 20.1006 25.787 18.4678 22.8001 15.8667C22.5607 15.6642 22.3212 15.3414 22.2834 15.0439C21.6533 10.6012 21.061 6.15846 20.4245 1.48156C23.1152 1.60181 25.6925 1.74737 28.3768 2.03849C29.9396 8.68361 31.4897 15.2781 33.0461 21.8789C32.9453 21.9422 32.8382 21.9992 32.7311 22.0625ZM33.5754 17.7083C35.1256 17.6767 36.474 17.6261 37.8225 17.6197C52.8323 17.5564 67.8484 17.5058 82.8582 17.4235C103.615 17.316 124.371 17.1957 145.128 17.0755C163.666 16.9679 182.205 16.8603 200.744 16.7527C202.306 16.74 203.863 16.6957 205.425 16.7084C205.867 16.7084 206.371 16.7211 206.73 16.9299C209.691 18.645 212.628 20.4044 215.571 22.1511C215.558 22.2903 215.545 22.4295 215.533 22.5624C155.506 22.7776 95.4734 22.9928 35.4028 23.208C34.0543 21.6574 34.0921 19.7019 33.5754 17.7083ZM30.4752 188.482C27.942 188.355 25.5034 188.229 22.8443 188.096C22.8443 187.583 22.8064 187.102 22.8506 186.634C23.153 183.419 23.424 180.198 23.8147 176.995C23.9533 175.9 24.5456 174.913 25.6168 174.407C28.339 173.116 31.0801 171.856 33.8149 170.591C33.8905 170.559 34.0039 170.61 34.2812 170.648C33.0209 176.552 31.7669 182.438 30.4752 188.482ZM209.458 174.995C209.061 175.274 208.419 175.299 207.889 175.293C186.433 175.236 164.977 175.16 143.521 175.09C109.828 174.97 76.1346 174.856 42.4414 174.736C40.425 174.73 38.4086 174.704 36.3984 174.679C35.9573 174.673 35.5225 174.622 34.9302 174.578C35.2831 172.894 35.6171 171.337 35.9762 169.616C95.9082 169.755 155.771 169.894 215.627 170.034C215.665 170.122 215.703 170.211 215.734 170.293C213.649 171.869 211.582 173.476 209.458 174.995ZM217.247 168.243C216.144 168.578 37.9044 167.926 35.6738 167.591C35.302 120.195 34.9365 72.7616 34.571 25.1129C95.8704 24.6825 157.05 24.3978 218.148 23.9864C218.274 24.0877 218.318 24.1193 218.349 24.1573C218.381 24.1889 218.419 24.2395 218.419 24.2838C218.45 24.7838 218.494 25.2838 218.494 25.7901C218.079 73.2869 217.663 120.784 217.247 168.243Z" fill="black"/>
<path d="M35.674 167.591C35.3085 120.189 34.9431 72.7618 34.5713 25.1131C95.8707 24.6827 157.05 24.3979 218.148 23.9866C218.274 24.0878 218.318 24.1131 218.35 24.1511C218.381 24.1891 218.419 24.2334 218.419 24.2777C218.451 24.7777 218.495 25.284 218.495 25.7839C218.079 73.2808 217.663 120.778 217.247 168.243C216.144 168.572 37.911 167.926 35.674 167.591Z" fill="white"/>
<path d="M215.533 22.5625C155.5 22.7777 95.4737 22.9929 35.4031 23.2017C34.0546 21.6575 34.0924 19.702 33.5757 17.7021C35.1258 17.6704 36.4743 17.6261 37.8165 17.6198C52.8263 17.5502 67.8424 17.4996 82.8521 17.4236C103.609 17.316 124.365 17.1895 145.122 17.0692C163.66 16.9616 182.199 16.854 200.738 16.7465C202.3 16.7401 203.863 16.6958 205.419 16.7022C205.861 16.7022 206.365 16.7148 206.724 16.9237C209.685 18.6387 212.616 20.4044 215.558 22.1512C215.546 22.2904 215.533 22.4233 215.52 22.5625H215.533Z" fill="white"/>
<path d="M215.734 170.293C213.649 171.869 211.582 173.47 209.452 174.989C209.055 175.274 208.412 175.293 207.883 175.293C186.427 175.236 164.971 175.16 143.515 175.084C109.821 174.97 76.1283 174.85 42.435 174.73C40.4186 174.723 38.4085 174.698 36.392 174.673C35.9572 174.673 35.5162 174.616 34.9238 174.571C35.283 172.888 35.6107 171.331 35.9762 169.61C95.9081 169.749 155.765 169.888 215.621 170.027C215.659 170.116 215.697 170.198 215.734 170.287V170.293Z" fill="white"/>
<path d="M32.7313 22.0626C29.3601 20.1007 25.7809 18.4679 22.8004 15.8668C22.561 15.658 22.3215 15.3415 22.2837 15.0441C21.6536 10.6013 21.0612 6.15859 20.4248 1.48169C23.1155 1.60193 25.6927 1.75382 28.3771 2.04494C29.9398 8.68374 31.4963 15.2846 33.0464 21.8854C32.9393 21.9487 32.8384 22.0056 32.7313 22.0689V22.0626Z" fill="white"/>
<path d="M34.2814 170.648C33.0211 176.546 31.7671 182.432 30.4754 188.482C27.9485 188.355 25.5099 188.229 22.8444 188.096C22.8444 187.583 22.8066 187.102 22.8444 186.634C23.1469 183.419 23.4179 180.204 23.8085 176.995C23.9409 175.9 24.5395 174.913 25.6107 174.407C28.3329 173.116 31.074 171.856 33.8088 170.591C33.8844 170.559 33.9978 170.61 34.2751 170.648H34.2814Z" fill="white"/>
</svg>
