<svg width="26" height="53" viewBox="0 0 26 53" fill="none" xmlns="http://www.w3.org/2000/svg">
<path d="M21.8846 13.3018C20.1967 10.2021 17.7493 7.5985 14.7797 5.7439C11.9789 3.97813 8.93876 2.63922 5.75604 1.77029C3.07815 1.09922 -0.798455 -0.756285 0.87537 4.05469C1.34841 5.41363 2.1728 5.68401 3.43598 5.85245C5.3092 6.07901 7.14703 6.54359 8.90616 7.23593C14.3216 9.41713 17.8259 13.5578 19.5761 19.0874C20.4976 21.8242 20.8175 24.7329 20.5133 27.609C20.2091 30.485 19.2884 33.2582 17.8161 35.7331C15.911 39.2167 12.939 41.9723 9.35207 43.5807C8.86331 43.7966 8.34111 43.9331 7.93251 44.0728C6.92195 43.0899 7.56504 41.6216 6.61455 40.6089C6.27206 40.9415 5.9888 41.182 5.74503 41.4586C4.17033 43.2432 2.80317 45.2158 0.980397 46.7772C0.410655 47.2651 0.459806 47.8116 1.08073 48.2975L1.08113 48.2967C1.77135 48.8617 2.50956 49.3627 3.28721 49.7945C4.81797 50.5991 6.39184 51.3198 7.95756 52.0527C8.17957 52.0945 8.40724 52.0953 8.62925 52.0551C8.61434 50.8314 8.60024 49.6904 8.58654 48.5354C9.81021 47.9856 11.0214 47.4907 12.1892 46.9057H12.1888C14.2856 45.8876 16.2241 44.5614 17.9415 42.9699C19.2506 41.6928 20.3989 40.2548 21.3592 38.6898C23.039 36.2075 24.2075 33.4047 24.7938 30.4509C25.9095 24.5649 24.8751 18.4672 21.8846 13.3018Z" fill="#4DF7CE"/>
</svg>
