<svg width="206" height="291" viewBox="0 0 206 291" fill="none" xmlns="http://www.w3.org/2000/svg">
<path d="M205.574 134.159C204.29 130.024 203.343 125.797 201.708 121.758C200.525 118.848 199.65 115.8 198.875 112.751C197.62 107.827 195.956 103.037 194.196 98.2861C192.297 93.1792 190.22 88.13 188.056 83.1241C186.454 79.4262 184.67 75.8004 182.819 72.2226C181.395 69.472 179.347 67.1782 177.029 65.1009C173.206 61.6818 168.878 58.9456 164.723 55.9738C163.262 54.9303 161.622 54.1369 160.049 53.2569C158.78 52.5404 157.477 51.8816 156.202 51.1651C152.995 49.357 149.898 47.3373 146.498 45.8754C145.916 45.6254 145.397 45.1733 144.921 44.7357C143.151 43.1008 141.055 42.0717 138.737 41.5716C137.506 41.3071 136.4 40.8887 135.356 40.2203C132.596 38.4459 130.182 36.2435 127.715 34.0988C124.638 31.4203 122.781 27.9339 121.228 24.2793C120.714 23.0675 120.161 21.9326 119.406 20.865C118.53 19.6292 117.415 18.8598 115.876 18.7636C115.227 18.7203 114.578 18.6482 113.924 18.6434C111.62 18.6338 109.312 18.6482 107.004 18.6434C106.677 18.6434 106.345 18.5953 105.984 18.5665C105.912 17.1094 105.845 15.7485 105.778 14.378C106.302 14.2434 106.749 14.1376 107.187 14.0126C109.216 13.4451 111.043 12.4978 112.596 11.0552C115.722 8.14587 115.309 3.67853 111.697 1.44245C109.726 0.221028 107.567 -0.230995 105.282 0.110427C102.892 0.461467 100.878 1.68289 99.1127 3.25536C98.425 3.86126 97.949 4.77974 97.5643 5.6405C97.0882 6.70805 97.1844 7.82849 97.8288 8.84314C98.3048 9.59812 99.1512 9.98282 99.8869 9.82413C100.728 9.64139 100.954 9.2038 100.599 8.41516C100.502 8.20358 100.401 7.99199 100.272 7.80445C99.8917 7.2322 100.002 6.70805 100.406 6.21756C100.627 5.95307 100.853 5.67417 101.132 5.48181C103.623 3.71219 106.316 3.20727 109.197 4.36137C111.423 5.2558 112.068 6.64073 110.259 8.95855C109.447 9.99724 108.35 10.733 107.187 11.3485C106.61 11.6563 106.023 11.9448 105.465 12.2814C103.83 13.2768 103.57 13.9452 103.936 15.8255C104.114 16.7536 104.2 17.6913 104.34 18.7011C102.95 18.8454 101.652 18.9175 100.368 19.1195C98.1654 19.4609 95.9726 19.8312 93.7942 20.288C92.3997 20.5765 91.4091 21.4229 90.8945 22.8222C90.2694 24.5149 89.6298 26.2028 88.87 27.8378C87.3793 31.0356 85.4847 33.9689 82.6283 36.1425C80.6134 37.6765 78.5504 39.148 76.4779 40.6098C75.6363 41.2013 74.7756 41.8072 73.833 42.216C70.0149 43.8702 66.4227 45.9235 62.8931 48.1163C57.9978 51.1554 53.0592 54.1273 48.1879 57.2049C44.0957 59.7872 40.0082 62.4031 36.6709 65.9857C35.6226 67.1109 34.5695 68.2314 33.4827 69.3181C32.3334 70.4722 31.338 71.7418 30.6215 73.2036C27.8757 78.8299 25.0529 84.4225 22.4706 90.1257C20.8068 93.7995 19.2728 97.5263 17.3685 101.09C15.9019 103.831 14.6083 106.663 13.2186 109.447C11.5067 112.886 9.8813 116.372 8.02993 119.738C5.69768 123.984 3.57702 128.331 1.591 132.746C0.816787 134.467 0.196457 136.227 0.0233415 138.141C-0.106495 139.516 0.307058 140.632 1.22072 141.603C1.50925 141.911 1.80258 142.224 2.13439 142.483C3.59144 143.623 5.09659 144.662 6.88545 145.248C7.44807 145.436 8.0155 145.777 8.43387 146.191C9.77551 147.509 11.0979 148.855 11.9972 150.543C12.2136 150.947 12.5165 151.308 12.7714 151.692C13.9447 153.428 15.546 154.765 17.0223 156.222C18.2389 157.424 19.6046 158.381 21.1338 159.146C22.1629 159.656 23.115 160.31 24.1152 160.882C25.0818 161.43 26.0147 162.079 27.0486 162.459C29.1837 163.248 31.2707 163.277 33.3144 161.925C35.262 160.632 37.3393 159.545 39.3638 158.367C39.9601 158.016 40.5564 157.665 41.1575 157.323C41.3787 157.203 41.6095 157.107 41.874 156.987C42.6338 158.838 43.3743 160.603 43.6917 162.517C44.1149 165.094 44.5813 167.667 45.0718 170.23C45.6729 173.361 46.3221 176.477 46.9569 179.602C47.0146 179.9 47.0723 180.227 47.2406 180.468C47.5772 180.958 47.5628 181.473 47.5291 182.016C47.2839 186.503 47.0386 190.994 46.7934 195.481C46.6395 198.207 46.4904 200.934 46.3221 203.656C46.0576 207.873 45.6874 212.09 45.5383 216.312C45.3555 221.458 45.3748 226.613 45.2834 231.763C45.1872 236.952 45.1007 242.14 44.9372 247.324C44.7545 253.2 44.4852 259.077 44.2688 264.953C44.1678 267.718 44.163 270.488 43.9995 273.253C43.6965 278.432 43.3118 283.606 43.4272 288.805C43.432 288.997 43.4176 289.189 43.4417 289.382C43.5523 290.3 44.1101 290.718 45.0237 290.627C45.6296 290.569 46.2404 290.526 46.8511 290.526C50.6933 290.516 54.5355 290.584 58.3777 290.502C62.1429 290.42 65.8986 290.29 69.659 290.656C71.6451 290.843 73.6407 290.949 75.6363 290.992C77.2473 291.031 78.863 290.911 80.4739 290.882C82.5561 290.843 84.4989 290.31 86.3214 289.329C89.1874 287.785 91.7024 285.785 94.025 283.51C95.0637 282.491 96.1601 281.524 97.2421 280.543C98.425 279.471 99.8292 279.067 101.397 279.264C103.229 279.495 105.047 279.802 106.879 279.985C109.096 280.202 111.173 280.841 113.116 281.894C115.477 283.183 117.8 284.539 120.141 285.857C120.978 286.328 121.815 286.799 122.676 287.218C126.604 289.127 130.769 289.444 135.049 289.141C140.151 288.78 145.258 288.603 150.369 289.002C152.201 289.141 153.961 288.901 155.645 288.146C156.106 287.939 156.39 287.617 156.476 287.121C156.707 285.804 157.005 284.486 157.145 283.154C157.688 277.999 158.289 272.844 158.664 267.675C159.03 262.674 160.155 257.802 160.963 252.878C161.752 248.069 162.66 243.27 163.358 238.447C163.858 235.028 164.103 231.571 164.449 228.132C164.719 225.497 165.123 222.862 165.195 220.217C165.349 214.918 165.483 209.604 165.305 204.31C165.132 199.049 164.618 193.803 164.161 188.561C163.762 183.925 163.214 179.309 163.281 174.644C163.382 167.879 163.468 161.113 163.141 154.351C163.045 152.361 162.872 150.365 162.612 148.389C162.463 147.259 162.069 146.162 161.79 145.075C162.511 144.114 163.516 143.739 164.57 143.493C165.69 143.229 166.272 143.484 166.916 144.465C167.993 146.1 169.027 147.763 170.138 149.379C171.182 150.899 172.211 152.442 173.418 153.827C174.365 154.914 175.481 155.919 176.692 156.693C178.491 157.843 179.669 157.641 181.318 156.304C181.588 156.087 181.852 155.861 182.107 155.626C182.905 154.9 183.406 154.02 183.473 152.923C183.535 151.923 183.603 150.928 183.665 149.932C183.732 148.86 184.17 148.038 185.127 147.48C187.253 146.244 189.325 144.926 191.475 143.739C194.932 141.82 198.433 139.978 201.924 138.117C202.602 137.761 203.299 137.434 204.011 137.165C205.641 136.54 206.093 135.823 205.574 134.159ZM83.2005 44.9521C86.9225 43.12 90.6397 41.2782 94.3857 39.499C97.3238 38.1045 100.44 37.2774 103.691 37.0561C106.133 36.8927 108.523 37.3399 110.889 37.84C113.371 38.3593 115.838 38.946 118.285 39.5952C119.463 39.9077 120.613 40.379 121.733 40.8695C123.142 41.4898 124.513 42.1871 125.883 42.8796C126.431 43.1537 126.96 43.471 127.46 43.8269C128.336 44.4472 129.177 45.1108 130.144 45.8418C129.451 46.1736 128.874 46.4669 128.283 46.7314C124.248 48.5395 120.137 50.0927 115.794 51.0593C112.25 51.8431 108.721 51.9345 105.138 51.6171C100.353 51.1891 95.5783 50.6649 90.8945 49.5541C87.6775 48.7943 84.5614 47.7172 81.5607 45.9283C82.1666 45.5629 82.6619 45.2166 83.2005 44.9521ZM128.639 49.8523C127.72 50.5303 126.989 51.1458 126.186 51.6459C123.94 53.0501 121.738 54.5504 119.386 55.743C117.213 56.849 114.885 57.6809 112.577 58.4792C111.707 58.7821 110.673 58.7773 109.735 58.6908C106.513 58.3974 103.383 57.6617 100.281 56.724C96.9728 55.7238 93.6932 54.6466 90.4954 53.3338C88.4324 52.4875 86.4801 51.444 84.6624 50.0927C84.9268 50.1552 85.2106 50.1889 85.4606 50.2899C89.1009 51.7036 92.8998 52.4971 96.7564 52.9539C100.834 53.4348 104.926 53.858 109.024 54.0888C112.722 54.2956 116.381 53.8291 119.93 52.6606C122.656 51.7565 125.489 51.1458 128.085 49.8571C128.172 49.8138 128.302 49.8523 128.639 49.8523ZM31.5448 160.281C30.4003 160.973 29.1452 160.786 27.9815 160.358C27.0967 160.035 26.284 159.492 25.4521 159.016C24.3172 158.372 23.2256 157.655 22.0715 157.059C20.8357 156.414 19.7393 155.611 18.7054 154.674C16.527 152.707 14.6805 150.49 13.0359 148.052C11.6846 146.052 9.94382 144.335 7.77026 143.157C7.47211 142.993 7.14512 142.878 6.82293 142.753C5.82752 142.363 4.9379 141.82 4.04828 140.897C7.97223 141.801 11.7038 142.657 15.4306 143.517C16.5126 143.772 17.5849 144.061 18.6717 144.306C19.9701 144.604 21.1194 145.191 22.1196 146.066C22.8698 146.725 23.6199 147.388 24.3509 148.066C26.4379 149.99 28.8423 151.134 31.7275 151.053C32.4777 151.033 32.9201 151.336 33.2952 151.966C33.9684 153.096 34.5887 154.222 34.7618 155.558C34.858 156.313 35.0888 157.049 35.2716 157.843C34.0405 158.655 32.8191 159.511 31.5448 160.281ZM93.0344 281.231C90.7455 283.64 88.1872 285.703 85.2635 287.29C83.792 288.088 82.2195 288.564 80.5316 288.569C77.5069 288.578 74.4774 288.574 71.4527 288.554C71.0007 288.55 70.5535 288.453 70.1014 288.396C70.0822 288.295 70.0582 288.194 70.0389 288.098C71.7124 287.569 73.3858 287.044 75.0593 286.52C78.9688 285.294 82.9072 284.159 86.7061 282.587C88.8893 281.692 91.2023 281.11 93.4528 280.389C93.4913 280.456 93.5297 280.519 93.5682 280.586C93.3903 280.803 93.222 281.029 93.0344 281.231ZM153.894 285.645C153.793 286.477 153.62 286.612 152.778 286.665C151.937 286.717 151.091 286.679 150.249 286.679C146.527 286.669 142.805 286.621 139.083 286.655C136.626 286.679 134.173 286.833 131.716 286.919C128.235 287.035 125.056 285.987 122.05 284.332C119.127 282.726 116.227 281.067 113.323 279.427C113.231 279.379 113.159 279.293 112.972 279.124C114.058 278.99 115.049 278.966 115.991 278.735C118.593 278.086 121.17 277.35 123.758 276.643C126.311 275.941 128.821 274.965 131.48 274.849C135.005 274.7 138.535 274.734 142.065 274.744C142.973 274.749 143.767 275.186 144.392 275.864C145.69 277.268 147.253 278.293 148.951 279.144C149.533 279.437 150.086 279.783 150.663 280.086C151.773 280.678 152.889 281.264 154.192 281.952C154.106 283.063 154.053 284.361 153.894 285.645ZM201.929 135.52C197.486 137.886 193.033 140.223 188.618 142.633C186.969 143.537 185.425 144.628 183.814 145.6C182.348 146.484 181.569 147.773 181.41 149.451C181.338 150.254 181.256 151.067 181.294 151.865C181.362 153.361 180.448 154.188 179.361 154.909C178.885 155.227 178.347 155.078 177.952 154.775C177.015 154.049 176.024 153.351 175.259 152.466C174.129 151.163 173.148 149.73 172.167 148.307C170.951 146.532 169.917 144.619 168.57 142.955C167.724 141.906 167.166 140.786 166.676 139.584C165.93 137.747 165.594 135.804 165.469 133.857C165.296 131.015 165.416 128.168 165.786 125.34C165.955 124.085 166.137 122.83 166.301 121.575C166.33 121.354 166.306 121.133 166.306 120.873C165.344 121.863 163.892 127.384 163.699 130.89C163.502 134.405 164.392 137.732 165.618 141.079C165.248 141.151 164.887 141.224 164.526 141.291C163.108 141.57 161.824 142.137 160.727 143.104C159.876 143.849 159.443 144.715 159.809 145.859C160.689 148.605 160.747 151.442 160.867 154.289C161.155 161.324 161.035 168.359 160.977 175.395C160.944 179.708 161.434 183.988 161.824 188.272C162.074 191.028 162.372 193.779 162.612 196.534C163.214 203.555 163.218 210.59 163.031 217.625C162.963 220.347 162.612 223.064 162.372 225.776C162.122 228.57 161.93 231.373 161.579 234.153C161.03 238.462 160.453 242.765 159.742 247.045C159.011 251.44 158.054 255.792 157.289 260.183C156.895 262.448 156.678 264.751 156.438 267.04C156.02 271.051 155.649 275.066 155.25 279.081C155.245 279.148 155.188 279.211 155.106 279.379C154.423 279.528 153.86 279.269 153.327 278.975C151.644 278.052 149.951 277.143 148.316 276.133C147.513 275.633 146.777 274.984 146.104 274.306C144.931 273.128 143.536 272.479 141.901 272.411C138.136 272.258 134.356 272.113 130.62 272.657C128.239 273.003 125.907 273.715 123.57 274.32C122.084 274.705 120.617 275.176 119.156 275.643C115.996 276.648 112.779 276.961 109.48 276.653C108.144 276.533 106.792 276.552 105.451 276.513C105.032 276.499 104.619 276.508 104.244 276.508C104.167 276.379 104.099 276.316 104.099 276.254C104.095 272.334 104.186 268.415 104.061 264.496C103.979 261.818 103.585 259.144 103.359 256.466C102.95 251.599 102.469 246.737 102.195 241.866C101.993 238.264 102.075 234.643 102.032 231.032C102.027 230.671 102.032 230.311 102.032 229.95C101.94 229.936 101.854 229.921 101.767 229.907C101.676 230.118 101.551 230.32 101.503 230.542C100.565 235.196 100.276 239.909 100.156 244.641C99.9927 250.887 100.498 257.081 101.45 263.251C101.685 264.804 101.709 266.391 101.868 267.958C102.094 270.175 102.354 272.387 102.594 274.604C102.657 275.21 102.7 275.816 102.758 276.47C99.6513 276.951 96.5977 277.422 93.5105 277.898C93.5345 277.788 93.5297 277.658 93.5874 277.59C95.8235 274.926 96.2852 271.801 95.9293 268.478C95.1888 261.486 94.429 254.494 93.6644 247.502C93.5249 246.218 93.323 244.944 93.1498 243.669C93.0729 243.665 92.996 243.66 92.9142 243.655C92.8565 243.833 92.7507 244.016 92.7459 244.194C92.5824 252.768 92.4718 261.342 93.6163 269.872C93.8423 271.536 94.1981 273.253 93.4384 274.869C92.919 275.975 92.3516 277.086 91.6207 278.057C91.2456 278.557 90.5098 278.855 89.8751 279.076C85.754 280.543 81.6617 282.101 77.4733 283.361C72.3327 284.905 67.3268 286.934 61.9746 287.737C60.9071 287.9 59.8636 288.03 58.772 287.968C57.4977 287.9 56.1801 287.602 54.9394 288.314C54.6413 288.482 54.1844 288.396 53.8045 288.396C51.4963 288.396 49.1929 288.386 46.8847 288.372C45.8172 288.367 45.697 288.28 45.7354 287.165C45.8605 283.323 46.0288 279.485 46.1682 275.643C46.2981 272.108 46.4135 268.574 46.5481 265.044C46.7789 259.014 47.0242 252.979 47.2598 246.949C47.2791 246.492 47.3079 246.031 47.3175 245.569C47.4185 240.573 47.5195 235.576 47.6109 230.58C47.6638 227.661 47.7455 224.737 47.7407 221.818C47.7311 215.625 48.1879 209.455 48.6544 203.281C48.8563 200.602 48.9621 197.909 49.1064 195.221C49.3709 190.388 49.6305 185.551 49.895 180.718C50.1114 176.611 50.3038 172.505 50.5538 168.403C50.7654 164.988 51.0443 161.579 51.2944 158.17C51.3088 157.977 51.328 157.785 51.3136 157.593C51.2511 156.847 50.7702 156.386 50.1451 156.453C49.4767 156.52 48.8082 157.179 48.9814 157.775C49.1978 158.525 49.0102 159.218 48.9525 159.934C48.6496 163.844 48.3418 167.749 48.034 171.658C48.0244 171.735 48.0004 171.807 47.8321 171.932C47.7503 171.601 47.6445 171.274 47.582 170.942C47.1011 168.374 46.5866 165.811 46.173 163.233C45.7835 160.814 44.9468 158.554 43.9177 156.362C43.509 155.496 43.6148 154.866 44.2592 154.202C44.6823 153.765 45.0526 153.26 45.3796 152.745C46.0817 151.659 46.9521 150.75 48.034 150.057C48.9092 149.499 49.3805 148.706 49.5247 147.706C49.7075 146.436 50.1643 145.306 50.876 144.219C52.1455 142.272 52.4292 140.156 51.5156 137.954C51.2222 137.242 50.9962 136.492 50.6067 135.838C49.116 133.342 48.5005 130.582 48.0196 127.764C47.2358 123.123 47.0771 118.44 46.9376 113.751C46.9136 112.866 46.8944 111.981 46.8511 111.101C46.8366 110.818 46.7501 110.539 46.6443 110.005C46.3894 110.399 46.2115 110.558 46.1875 110.736C45.293 116.785 44.4034 122.844 45.0766 128.98C45.2546 130.611 45.6633 132.231 46.1442 133.804C46.4279 134.737 46.9713 135.631 47.558 136.415C48.3322 137.449 48.9044 138.564 49.3661 139.747C50.0393 141.493 49.4526 143.965 48.0773 145.253C47.5964 145.705 47.3848 146.268 47.3416 146.893C47.2983 147.566 46.9857 148.028 46.4279 148.398C45.2594 149.172 44.3649 150.211 43.5475 151.346C42.9271 152.207 41.9846 152.861 41.4605 153.765C40.5756 155.294 39.0897 155.876 37.6711 156.602C37.6375 156.621 37.5942 156.616 37.3826 156.64C37.272 156.208 37.0941 155.756 37.0412 155.289C36.8633 153.722 36.1708 152.38 35.4158 151.024C34.6128 149.586 33.5741 148.677 31.8189 148.682C33.0451 148.24 34.0982 147.581 34.9542 146.662C35.3677 146.225 35.7717 145.71 35.964 145.152C36.7815 142.82 37.1999 140.459 36.921 137.925C36.1949 131.269 35.9159 124.59 36.4401 117.891C36.5555 116.401 36.6084 114.9 36.6757 113.405C36.6853 113.15 36.6228 112.895 36.4113 112.568C36.2958 112.756 36.1083 112.934 36.0746 113.14C35.5024 116.583 34.8821 120.027 34.4012 123.489C33.7953 127.802 33.7424 132.149 33.9588 136.497C34.0165 137.646 34.1367 138.795 34.2569 139.94C34.3531 140.877 34.2906 141.777 33.9347 142.657C33.7905 143.012 33.6799 143.388 33.6077 143.763C33.2567 145.58 32.0353 146.489 30.3426 146.912C29.4914 147.124 28.6643 147.379 27.7507 147.331C27.2457 147.302 26.861 147.196 26.5052 146.883C25.6973 146.172 24.8846 145.47 24.096 144.734C22.538 143.282 20.7154 142.382 18.6381 141.916C16.652 141.474 14.6997 140.887 12.7185 140.44C10.5064 139.94 8.27999 139.512 6.05834 139.069C5.43801 138.949 4.97156 138.689 4.51953 138.199C4.05789 137.699 3.34139 137.439 2.56237 136.973C2.47581 136.497 2.87494 135.944 3.15385 135.381C5.44763 130.774 7.77026 126.177 10.0592 121.565C12.3482 116.959 14.5987 112.328 16.8925 107.716C18.0033 105.48 19.2247 103.302 20.2827 101.042C21.4704 98.5025 22.6341 95.9443 23.6199 93.3235C25.0674 89.4621 27.0822 85.8699 28.7749 82.1287C29.8809 79.681 31.136 77.2959 32.3238 74.8819C33.0932 73.319 34.0838 71.9149 35.3389 70.6934C36.0554 70.001 36.719 69.2508 37.3922 68.5103C40.2294 65.375 43.5907 62.8888 47.1204 60.6095C49.2458 59.2342 51.429 57.9358 53.5833 56.6038C58.1565 53.7714 62.72 50.9246 67.3124 48.1259C69.1156 47.0247 70.9814 46.0293 72.8328 45.0098C73.3954 44.6973 74.0014 44.4568 74.5832 44.1875C75.2901 44.9906 75.9393 45.7408 76.6077 46.4765C79.4016 49.5541 82.7292 51.9297 86.3551 53.9349C92.3468 57.2481 98.7761 59.4217 105.335 61.2346C107.778 61.9126 110.298 61.7636 112.76 61.2442C113.491 61.0903 114.13 60.5758 114.842 60.3017C117.391 59.3207 119.915 58.282 122.228 56.8154C124.787 55.19 127.316 53.5165 129.821 51.8046C132.942 49.6743 135.621 47.0103 138.386 44.4568C138.607 44.2501 138.848 44.0577 139.098 43.8413C140.761 44.3559 142.175 45.207 143.44 46.3803C144.137 47.0247 144.902 47.6787 145.758 48.0538C148.97 49.4676 151.903 51.3815 154.947 53.0886C156.323 53.858 157.693 54.6322 159.107 55.3246C161.747 56.6086 164.142 58.2772 166.503 59.9939C167.748 60.9028 168.989 61.8069 170.263 62.6628C172.668 64.2737 174.856 66.154 176.928 68.1592C179.534 70.6838 181.299 73.7999 182.766 77.0795C185.103 82.3018 187.44 87.5289 189.657 92.8041C190.893 95.7375 191.903 98.7718 192.965 101.772C193.841 104.235 194.769 106.682 195.466 109.192C197 114.713 198.765 120.152 200.554 125.585C201.419 128.211 202.073 130.904 202.79 133.573C203.093 134.703 202.919 134.991 201.929 135.52Z" fill="black"/>
<path d="M202.79 133.573C202.074 130.904 201.42 128.211 200.554 125.585C198.765 120.152 197 114.713 195.466 109.192C194.769 106.682 193.841 104.235 192.966 101.772C191.903 98.7718 190.893 95.7375 189.657 92.8041C187.441 87.5289 185.103 82.3018 182.766 77.0795C181.3 73.7999 179.535 70.6838 176.929 68.1592C174.856 66.154 172.668 64.2737 170.264 62.6628C168.989 61.8068 167.749 60.9028 166.503 59.9939C164.142 58.2772 161.747 56.6086 159.107 55.3246C157.693 54.6322 156.323 53.858 154.948 53.0886C151.904 51.3815 148.97 49.4676 145.758 48.0538C144.902 47.6787 144.138 47.0247 143.44 46.3803C142.176 45.207 140.762 44.3558 139.098 43.8413C138.848 44.0577 138.608 44.2501 138.386 44.4568C135.621 47.0103 132.943 49.6743 129.822 51.8046C127.317 53.5165 124.787 55.19 122.229 56.8154C119.916 58.282 117.391 59.3207 114.843 60.3017C114.131 60.5758 113.491 61.0903 112.76 61.2442C110.298 61.7636 107.779 61.9126 105.336 61.2346C98.7765 59.4217 92.3472 57.2481 86.3555 53.9349C82.7297 51.9297 79.402 49.5541 76.6081 46.4765C75.9397 45.7408 75.2906 44.9906 74.5837 44.1875C74.0018 44.4568 73.3959 44.6973 72.8333 45.0098C70.9819 46.0293 69.1161 47.0247 67.3128 48.1259C62.7204 50.9246 58.1569 53.7714 53.5838 56.6038C51.4295 57.9358 49.2463 59.2342 47.1208 60.6095C43.5912 62.8888 40.2299 65.375 37.3927 68.5103C36.7195 69.2508 36.0559 70.001 35.3393 70.6934C34.0843 71.9149 33.0937 73.319 32.3243 74.8819C31.1365 77.2959 29.8814 79.681 28.7754 82.1287C27.0827 85.8699 25.0678 89.462 23.6204 93.3235C22.6346 95.9443 21.4709 98.5025 20.2831 101.042C19.2252 103.302 18.0038 105.48 16.8929 107.716C14.5992 112.328 12.3487 116.959 10.0597 121.565C7.77071 126.177 5.44808 130.774 3.1543 135.381C2.87539 135.944 2.47626 136.497 2.56282 136.973C3.34184 137.439 4.05834 137.699 4.51999 138.199C4.97201 138.689 5.43846 138.949 6.05879 139.069C8.28044 139.512 10.5069 139.94 12.7189 140.44C14.7001 140.887 16.6525 141.474 18.6385 141.916C20.7159 142.382 22.5384 143.282 24.0965 144.734C24.8851 145.47 25.6978 146.172 26.5056 146.883C26.8615 147.196 27.2462 147.302 27.7511 147.331C28.6648 147.379 29.4919 147.124 30.343 146.912C32.0357 146.489 33.2572 145.58 33.6082 143.763C33.6803 143.388 33.7909 143.012 33.9352 142.657C34.291 141.777 34.3535 140.877 34.2574 139.94C34.1372 138.795 34.0169 137.646 33.9592 136.497C33.7428 132.149 33.7957 127.802 34.4016 123.489C34.8825 120.027 35.5028 116.583 36.0751 113.14C36.1087 112.934 36.2963 112.756 36.4117 112.568C36.6233 112.895 36.6858 113.15 36.6762 113.405C36.6089 114.9 36.556 116.401 36.4406 117.891C35.9164 124.59 36.1953 131.269 36.9214 137.925C37.2003 140.459 36.782 142.82 35.9645 145.152C35.7721 145.71 35.3682 146.225 34.9546 146.662C34.0987 147.581 33.0456 148.24 31.8193 148.682C33.5745 148.677 34.6132 149.586 35.4163 151.024C36.1713 152.38 36.8637 153.722 37.0416 155.289C37.0945 155.756 37.2725 156.208 37.3831 156.64C37.5947 156.616 37.6379 156.621 37.6716 156.602C39.0902 155.876 40.5761 155.294 41.4609 153.765C41.9851 152.861 42.9276 152.207 43.5479 151.346C44.3654 150.211 45.2598 149.172 46.4284 148.398C46.9862 148.028 47.2987 147.566 47.342 146.893C47.3853 146.268 47.5969 145.705 48.0778 145.253C49.4531 143.965 50.0397 141.493 49.3665 139.747C48.9049 138.564 48.3326 137.449 47.5584 136.415C46.9717 135.631 46.4284 134.737 46.1446 133.804C45.6638 132.231 45.255 130.611 45.0771 128.98C44.4039 122.844 45.2935 116.785 46.1879 110.736C46.212 110.558 46.3899 110.399 46.6447 110.005C46.7505 110.539 46.8371 110.818 46.8515 111.101C46.8948 111.981 46.914 112.866 46.9381 113.751C47.0775 118.44 47.2362 123.123 48.0201 127.764C48.5009 130.582 49.1165 133.342 50.6072 135.838C50.9967 136.492 51.2227 137.242 51.516 137.954C52.4297 140.156 52.146 142.272 50.8765 144.219C50.1648 145.306 49.7079 146.436 49.5252 147.706C49.3809 148.706 48.9097 149.499 48.0345 150.057C46.9525 150.75 46.0821 151.659 45.38 152.745C45.0531 153.26 44.6828 153.765 44.2596 154.202C43.6152 154.866 43.5094 155.496 43.9182 156.362C44.9473 158.554 45.784 160.814 46.1735 163.233C46.587 165.811 47.1016 168.374 47.5825 170.942C47.645 171.274 47.7508 171.601 47.8325 171.932C48.0008 171.807 48.0249 171.735 48.0345 171.658C48.3422 167.749 48.65 163.844 48.953 159.934C49.0107 159.218 49.1982 158.525 48.9818 157.775C48.8087 157.179 49.4771 156.52 50.1455 156.453C50.7707 156.386 51.2515 156.847 51.3141 157.593C51.3285 157.785 51.3092 157.977 51.2948 158.17C51.0448 161.579 50.7659 164.988 50.5543 168.403C50.3042 172.505 50.1119 176.611 49.8955 180.718C49.631 185.551 49.3713 190.388 49.1068 195.221C48.9626 197.909 48.8568 200.602 48.6548 203.281C48.1884 209.455 47.7315 215.625 47.7411 221.818C47.746 224.737 47.6642 227.661 47.6113 230.58C47.5199 235.576 47.419 240.573 47.318 245.569C47.3084 246.031 47.2795 246.492 47.2603 246.949C47.0246 252.979 46.7794 259.014 46.5486 265.044C46.4139 268.574 46.2985 272.108 46.1687 275.643C46.0292 279.485 45.8609 283.323 45.7359 287.165C45.6974 288.28 45.8176 288.367 46.8852 288.372C49.1934 288.386 51.4968 288.396 53.805 288.396C54.1849 288.396 54.6417 288.482 54.9399 288.314C56.1805 287.602 57.4981 287.9 58.7724 287.968C59.864 288.03 60.9075 287.9 61.9751 287.737C67.3272 286.934 72.3332 284.905 77.4737 283.361C81.6622 282.101 85.7544 280.543 89.8755 279.076C90.5103 278.855 91.246 278.557 91.6211 278.057C92.352 277.086 92.9195 275.975 93.4388 274.869C94.1986 273.253 93.8428 271.536 93.6167 269.872C92.4723 261.342 92.5829 252.768 92.7464 244.194C92.7512 244.016 92.857 243.833 92.9147 243.655C92.9964 243.66 93.0734 243.665 93.1503 243.669C93.3234 244.944 93.5254 246.218 93.6648 247.502C94.4294 254.494 95.1892 261.486 95.9298 268.478C96.2856 271.801 95.824 274.926 93.5879 277.59C93.5302 277.658 93.535 277.788 93.511 277.898C96.5982 277.422 99.6517 276.951 102.758 276.47C102.7 275.816 102.657 275.21 102.595 274.604C102.354 272.387 102.095 270.175 101.869 267.959C101.71 266.391 101.686 264.804 101.45 263.251C100.498 257.081 99.9932 250.887 100.157 244.641C100.277 239.909 100.565 235.196 101.503 230.542C101.551 230.32 101.676 230.118 101.768 229.907C101.854 229.921 101.941 229.936 102.032 229.95C102.032 230.311 102.027 230.671 102.032 231.032C102.075 234.643 101.994 238.264 102.196 241.866C102.47 246.737 102.951 251.599 103.359 256.466C103.585 259.144 103.98 261.818 104.061 264.496C104.186 268.415 104.095 272.334 104.1 276.254C104.1 276.316 104.167 276.379 104.244 276.509C104.619 276.509 105.033 276.499 105.451 276.513C106.793 276.552 108.144 276.533 109.481 276.653C112.78 276.961 115.997 276.648 119.156 275.643C120.618 275.176 122.085 274.705 123.571 274.321C125.908 273.715 128.24 273.003 130.62 272.657C134.357 272.113 138.136 272.258 141.902 272.411C143.536 272.479 144.931 273.128 146.104 274.306C146.778 274.984 147.513 275.633 148.316 276.133C149.951 277.143 151.644 278.052 153.327 278.975C153.861 279.269 154.424 279.528 155.106 279.379C155.188 279.211 155.246 279.149 155.251 279.081C155.65 275.066 156.02 271.051 156.438 267.04C156.679 264.751 156.895 262.448 157.29 260.183C158.054 255.792 159.011 251.44 159.742 247.045C160.454 242.765 161.031 238.462 161.579 234.153C161.93 231.373 162.122 228.57 162.372 225.776C162.613 223.064 162.964 220.347 163.031 217.625C163.219 210.59 163.214 203.555 162.613 196.534C162.372 193.779 162.074 191.028 161.824 188.272C161.435 183.988 160.944 179.708 160.978 175.395C161.036 168.359 161.156 161.324 160.867 154.289C160.747 151.442 160.689 148.605 159.809 145.859C159.444 144.715 159.877 143.849 160.728 143.104C161.824 142.137 163.108 141.57 164.527 141.291C164.887 141.224 165.248 141.151 165.618 141.079C164.392 137.732 163.503 134.405 163.7 130.89C163.892 127.384 165.344 121.863 166.306 120.873C166.306 121.133 166.33 121.354 166.301 121.575C166.138 122.83 165.955 124.085 165.787 125.34C165.416 128.168 165.296 131.015 165.469 133.857C165.594 135.804 165.931 137.747 166.676 139.584C167.167 140.786 167.725 141.906 168.571 142.955C169.917 144.619 170.951 146.532 172.168 148.307C173.149 149.73 174.13 151.163 175.26 152.466C176.025 153.351 177.015 154.049 177.953 154.775C178.347 155.078 178.886 155.227 179.362 154.909C180.449 154.188 181.362 153.361 181.295 151.865C181.256 151.067 181.338 150.254 181.41 149.451C181.569 147.773 182.348 146.484 183.815 145.6C185.426 144.628 186.969 143.537 188.619 142.633C193.033 140.223 197.486 137.886 201.929 135.52C202.92 134.991 203.093 134.703 202.79 133.573ZM39.6143 85.5525C39.4508 85.1149 39.297 84.7495 39.1815 84.3648C38.3929 81.6863 37.0897 79.2819 35.2672 77.1564C35.1951 77.0699 35.1181 76.9833 35.0508 76.8919C34.8248 76.5842 34.493 76.2572 34.9114 75.9013C35.272 75.5936 35.6615 75.7907 35.9356 76.0744C36.3925 76.5361 36.8445 77.0122 37.2148 77.5411C38.8353 79.8638 39.5614 82.4941 39.7971 85.2832C39.8019 85.3361 39.7249 85.3938 39.6143 85.5525ZM67.659 212.278C67.5484 215.269 67.308 218.255 67.1205 221.246C67.106 221.458 67.0291 221.665 66.9762 221.876C66.8944 221.881 66.8127 221.886 66.7309 221.886C66.7309 221.362 66.7309 220.833 66.7261 220.304C66.6588 201.819 66.5867 183.334 66.5194 164.849C66.5001 159.011 66.5146 153.169 66.4713 147.326C66.4232 141.026 66.3078 134.727 66.2597 128.427C66.2501 126.98 66.3943 125.533 66.4665 124.085C66.553 124.08 66.6396 124.071 66.7261 124.061C66.7983 124.282 66.8993 124.504 66.9281 124.73C67.5869 130.418 68.0534 136.121 68.087 141.854C68.1832 158.376 68.3275 174.899 68.2986 191.427C68.289 198.376 67.9187 205.324 67.659 212.278ZM135.025 223.843C134.881 229.888 134.227 235.879 133.371 241.857C132.856 245.487 131.894 249.002 130.75 252.47C130.687 252.667 130.558 252.835 130.457 253.018C130.361 252.994 130.26 252.965 130.163 252.936C130.308 251.609 130.457 250.282 130.596 248.954C130.971 245.478 131.332 242.001 131.721 238.524C132.13 234.817 132.649 231.123 132.972 227.411C133.477 221.554 133.929 215.692 134.27 209.821C134.544 205.07 134.621 200.299 134.785 195.539C134.866 193.274 134.938 191.014 135.03 188.749C135.044 188.508 135.155 188.273 135.41 188.056C135.41 189.191 135.386 190.326 135.415 191.461C135.482 194.033 135.684 196.606 135.636 199.179C135.477 207.402 135.217 215.62 135.025 223.843ZM149.245 253.854C149.163 253.691 149.057 253.532 149.004 253.359C147.706 249.094 146.893 244.713 146.047 240.342C144.07 230.114 142.56 219.818 141.166 209.498C140.305 203.103 139.439 196.707 138.771 190.287C138.367 186.397 138.271 182.468 138.165 178.554C137.982 171.716 137.886 164.873 137.785 158.035C137.737 154.616 137.771 151.197 137.756 147.773C137.747 144.623 137.747 141.474 137.703 138.319C137.665 135.482 137.578 132.64 137.502 129.803C137.439 127.576 137.357 125.355 137.285 123.133C137.271 122.796 137.28 122.455 137.28 122.114C137.362 122.128 137.444 122.142 137.526 122.157C137.526 123.922 137.463 125.686 137.54 127.451C137.699 130.971 137.963 134.491 138.141 138.011C138.281 140.848 138.386 143.69 138.463 146.532C138.579 150.49 138.598 154.448 138.752 158.405C138.949 163.32 139.257 168.225 139.483 173.139C139.622 176.251 139.622 179.367 139.829 182.473C140.079 186.19 140.43 189.903 140.834 193.605C141.363 198.491 141.959 203.377 142.58 208.253C143.277 213.778 143.993 219.303 144.768 224.819C145.614 230.83 146.499 236.831 147.436 242.828C147.961 246.165 148.619 249.478 149.216 252.801C149.278 253.133 149.336 253.465 149.245 253.854ZM168.186 88.8802C168.008 89.4524 167.811 90.015 167.624 90.5825C167.513 90.5681 167.407 90.5488 167.297 90.5344C167.47 89.64 167.648 88.7504 167.806 87.8607C168.797 82.1864 169.533 76.4784 169.985 70.7367C170.066 69.7461 169.985 68.7411 169.946 67.7457C169.932 67.3177 169.816 66.8705 170.331 66.6637C170.764 66.4858 171.23 66.7695 171.442 67.4042C171.596 67.8659 171.706 68.3852 171.673 68.8661C171.533 70.9675 171.466 73.0882 171.134 75.1656C170.403 79.7868 169.581 84.3984 168.186 88.8802ZM174.707 83.2684C173.404 86.8942 172.663 90.6594 171.879 94.4151C170.889 99.1325 169.946 103.864 168.984 108.586H168.768C169.047 106.855 169.297 105.119 169.61 103.398C170.509 98.4929 171.403 93.588 172.355 88.6974C172.673 87.0817 173.163 85.4996 173.591 83.9079C173.683 83.5761 173.793 83.2299 173.986 82.951C174.111 82.7731 174.39 82.7009 174.601 82.5807C174.64 82.8115 174.774 83.076 174.707 83.2684Z" fill="white"/>
<path d="M112.972 279.124C114.054 278.99 115.049 278.97 115.987 278.735C118.588 278.086 121.171 277.35 123.758 276.643C126.311 275.946 128.817 274.965 131.476 274.854C135.001 274.705 138.535 274.739 142.065 274.748C142.969 274.748 143.762 275.191 144.392 275.869C145.69 277.268 147.253 278.297 148.946 279.148C149.528 279.442 150.086 279.783 150.663 280.091C151.774 280.682 152.884 281.264 154.192 281.952C154.106 283.063 154.053 284.361 153.899 285.645C153.798 286.477 153.625 286.612 152.783 286.664C151.942 286.717 151.096 286.684 150.249 286.679C146.527 286.669 142.805 286.621 139.083 286.655C136.626 286.679 134.174 286.833 131.716 286.915C128.235 287.035 125.056 285.982 122.051 284.332C119.127 282.726 116.227 281.067 113.323 279.427C113.231 279.374 113.164 279.288 112.976 279.12L112.972 279.124Z" fill="white"/>
<path d="M4.04297 140.896C7.96692 141.801 11.6985 142.656 15.4253 143.517C16.5073 143.767 17.5844 144.061 18.6664 144.306C19.9696 144.604 21.1141 145.191 22.1143 146.066C22.8645 146.725 23.6098 147.388 24.3456 148.062C26.4326 149.985 28.8369 151.13 31.7222 151.053C32.4724 151.033 32.9148 151.336 33.2899 151.966C33.9631 153.096 34.5834 154.217 34.7565 155.558C34.8527 156.313 35.0835 157.049 35.2663 157.847C34.0352 158.655 32.8138 159.516 31.5347 160.285C30.3902 160.973 29.1399 160.79 27.9762 160.362C27.0866 160.035 26.2739 159.492 25.442 159.021C24.3119 158.376 23.2203 157.66 22.0662 157.059C20.8256 156.414 19.734 155.611 18.7001 154.678C16.5217 152.707 14.6751 150.495 13.0305 148.057C11.6793 146.056 9.93851 144.34 7.76495 143.161C7.46681 142.998 7.13981 142.883 6.81762 142.757C5.82221 142.368 4.93259 141.82 4.04297 140.901V140.896Z" fill="white"/>
<path d="M128.639 49.8523C127.716 50.5303 126.985 51.1458 126.187 51.6459C123.941 53.0501 121.739 54.5504 119.382 55.7478C117.209 56.8538 114.886 57.6858 112.573 58.484C111.703 58.787 110.669 58.7773 109.731 58.6908C106.509 58.3975 103.374 57.6617 100.277 56.724C96.9686 55.7238 93.6891 54.6466 90.4912 53.3338C88.4283 52.4875 86.4759 51.444 84.6582 50.0879C84.9275 50.1504 85.2064 50.1889 85.4613 50.2851C89.1015 51.6988 92.9004 52.4923 96.7522 52.9491C100.83 53.43 104.922 53.8532 109.019 54.084C112.717 54.2908 116.377 53.8243 119.921 52.651C122.652 51.7469 125.48 51.141 128.081 49.8475C128.168 49.8042 128.298 49.8427 128.634 49.8427L128.639 49.8523Z" fill="white"/>
<path d="M70.0342 288.098C71.7076 287.574 73.3811 287.045 75.0545 286.52C78.9641 285.294 82.9024 284.159 86.7014 282.592C88.8797 281.692 91.1927 281.115 93.448 280.394C93.4865 280.461 93.525 280.524 93.5635 280.591C93.3855 280.808 93.222 281.034 93.0297 281.236C90.7407 283.645 88.1825 285.708 85.2587 287.299C83.7872 288.098 82.2148 288.574 80.5317 288.579C77.5022 288.588 74.4775 288.579 71.448 288.564C71.0007 288.564 70.5487 288.463 70.1015 288.405C70.0775 288.304 70.0582 288.203 70.0342 288.107V288.098Z" fill="white"/>
<path d="M137.526 122.157C137.526 123.922 137.459 125.687 137.54 127.447C137.699 130.967 137.963 134.487 138.137 138.007C138.281 140.844 138.382 143.686 138.464 146.528C138.574 150.485 138.598 154.443 138.752 158.396C138.944 163.31 139.257 168.22 139.478 173.135C139.622 176.246 139.618 179.362 139.824 182.464C140.075 186.181 140.426 189.893 140.829 193.596C141.358 198.486 141.955 203.367 142.575 208.243C143.272 213.769 143.989 219.294 144.768 224.81C145.614 230.821 146.499 236.822 147.437 242.818C147.956 246.156 148.62 249.469 149.216 252.792C149.274 253.124 149.336 253.455 149.24 253.845C149.158 253.681 149.052 253.523 149 253.354C147.701 249.084 146.889 244.703 146.042 240.332C144.066 230.109 142.556 219.809 141.161 209.494C140.296 203.098 139.43 196.698 138.767 190.283C138.363 186.392 138.262 182.464 138.161 178.545C137.978 171.706 137.882 164.868 137.781 158.03C137.733 154.611 137.762 151.187 137.752 147.768C137.742 144.619 137.742 141.464 137.699 138.314C137.661 135.472 137.579 132.635 137.497 129.793C137.435 127.572 137.348 125.35 137.281 123.128C137.271 122.787 137.281 122.45 137.281 122.109L137.526 122.152V122.157Z" fill="black"/>
<path d="M66.7256 221.886C66.7256 221.357 66.7256 220.828 66.7256 220.304C66.6583 201.819 66.5862 183.334 66.5188 164.849C66.4996 159.007 66.5092 153.169 66.466 147.326C66.4179 141.027 66.3025 134.727 66.2544 128.423C66.2447 126.975 66.389 125.528 66.4611 124.085C66.5477 124.076 66.6343 124.066 66.7208 124.061C66.7881 124.282 66.8939 124.504 66.918 124.73C67.5816 130.418 68.0432 136.122 68.0769 141.854C68.1731 158.377 68.3173 174.9 68.2885 191.422C68.2789 198.371 67.9038 205.325 67.6489 212.273C67.5383 215.264 67.3027 218.255 67.1103 221.242C67.0959 221.453 67.0141 221.665 66.9661 221.872C66.8843 221.872 66.7978 221.876 66.716 221.881L66.7256 221.886Z" fill="black"/>
<path d="M130.163 252.936C130.307 251.609 130.452 250.282 130.596 248.955C130.971 245.478 131.332 242.001 131.716 238.524C132.13 234.822 132.644 231.124 132.967 227.411C133.472 221.554 133.928 215.692 134.27 209.821C134.544 205.065 134.621 200.3 134.784 195.539C134.861 193.274 134.938 191.014 135.03 188.749C135.039 188.508 135.155 188.268 135.409 188.056C135.409 189.191 135.385 190.326 135.414 191.461C135.482 194.034 135.684 196.606 135.635 199.179C135.477 207.402 135.217 215.62 135.025 223.843C134.88 229.888 134.226 235.88 133.371 241.857C132.851 245.483 131.894 248.998 130.75 252.47C130.687 252.662 130.553 252.835 130.456 253.018C130.36 252.989 130.264 252.965 130.163 252.936Z" fill="black"/>
<path d="M167.296 90.5344C167.464 89.6448 167.647 88.7552 167.801 87.8607C168.791 82.1864 169.532 76.4784 169.984 70.7367C170.061 69.7461 169.984 68.7411 169.941 67.7457C169.926 67.3177 169.811 66.8753 170.325 66.6637C170.753 66.4906 171.225 66.7695 171.436 67.4042C171.59 67.8707 171.701 68.3852 171.667 68.8661C171.528 70.9675 171.46 73.0882 171.128 75.1656C170.393 79.7868 169.575 84.3984 168.181 88.8802C168.003 89.4524 167.806 90.0151 167.618 90.5825C167.512 90.5681 167.402 90.5488 167.296 90.5344Z" fill="black"/>
<path d="M168.768 108.586C169.046 106.855 169.297 105.124 169.614 103.398C170.508 98.4928 171.403 93.5878 172.36 88.6925C172.677 87.0768 173.168 85.4947 173.596 83.903C173.682 83.5712 173.798 83.2298 173.99 82.9508C174.115 82.7729 174.394 82.7008 174.605 82.5806C174.644 82.8114 174.779 83.0759 174.711 83.2634C173.408 86.8892 172.667 90.6545 171.884 94.4101C170.893 99.1275 169.955 103.859 168.994 108.586C168.921 108.586 168.849 108.586 168.772 108.586H168.768Z" fill="black"/>
<path d="M39.6132 85.5524C39.4545 85.1148 39.2959 84.7494 39.1804 84.3695C38.387 81.6862 37.0886 79.2818 35.2661 77.1611C35.1892 77.0746 35.117 76.988 35.0497 76.8919C34.8237 76.5889 34.4919 76.2619 34.9103 75.9061C35.2709 75.5983 35.6604 75.7955 35.9345 76.0744C36.3866 76.536 36.8434 77.0121 37.2088 77.541C38.8294 79.8637 39.5555 82.4989 39.7912 85.288C39.7912 85.336 39.719 85.3937 39.6084 85.5524H39.6132Z" fill="black"/>
<path d="M95.4076 87.001C95.8958 86.7923 96.4168 86.6631 96.8241 86.5294C97.8169 87.5199 97.1597 88.972 98.0916 89.9918C98.436 89.6654 98.7204 89.4294 98.9659 89.1575C100.553 87.4017 101.936 85.4567 103.766 83.9267C104.338 83.4486 104.296 82.9041 103.684 82.4134H103.685C103.006 81.8428 102.278 81.3349 101.51 80.8955C99.9987 80.0759 98.4432 79.3394 96.8957 78.5907C96.6758 78.5463 96.4495 78.5426 96.2285 78.5801V82.0819C95.0057 82.6134 93.7958 83.0907 92.6285 83.658L92.6281 83.6576C90.5319 84.6443 88.5895 85.9391 86.8634 87.5006C85.5465 88.7547 84.3883 90.1706 83.4151 91.7157C81.715 94.164 80.52 96.9371 79.9016 99.868C78.7213 105.709 79.6753 111.788 82.5849 116.964C84.2253 120.068 86.6262 122.689 89.555 124.571C92.3168 126.363 95.322 127.733 98.4747 128.637C99.8139 128.991 103.944 131.425 103.489 127.904C103.33 126.671 103.637 124.773 102.136 124.709C99.8228 124.595 97.5467 124.072 95.4102 123.161C90.0545 120.923 86.6218 116.76 84.9495 111.238C84.0668 108.504 83.7841 105.606 84.1213 102.749C84.4581 99.8923 85.4069 97.1452 86.9003 94.7014C88.8359 91.2599 91.8232 88.556 95.4076 87.001Z" fill="#4DF7CE"/>
<path d="M127.293 91.8565C125.605 88.7567 123.157 86.1532 120.188 84.2986C117.387 82.5328 114.347 81.1939 111.164 80.325C108.486 79.6539 104.61 77.7984 106.284 82.6094C106.757 83.9683 107.581 84.2387 108.844 84.4071C110.717 84.6337 112.555 85.0983 114.314 85.7906C119.73 87.9718 123.234 92.1125 124.984 97.6421C125.906 100.379 126.226 103.288 125.921 106.164C125.617 109.04 124.697 111.813 123.224 114.288C121.319 117.771 118.347 120.527 114.76 122.135C114.272 122.351 113.749 122.488 113.341 122.627C112.33 121.645 112.973 120.176 112.023 119.164C111.68 119.496 111.397 119.737 111.153 120.013C109.579 121.798 108.211 123.77 106.389 125.332C105.819 125.82 105.868 126.366 106.489 126.852L106.489 126.851C107.18 127.416 107.918 127.917 108.695 128.349C110.226 129.154 111.8 129.874 113.366 130.607C113.588 130.649 113.815 130.65 114.037 130.61C114.023 129.386 114.008 128.245 113.995 127.09C115.218 126.54 116.43 126.045 117.597 125.46H117.597C119.694 124.442 121.632 123.116 123.35 121.525C124.659 120.248 125.807 118.809 126.767 117.244C128.447 114.762 129.616 111.959 130.202 109.006C131.318 103.12 130.283 97.0219 127.293 91.8565Z" fill="#4DF7CE"/>
</svg>
