<svg width="52" height="53" viewBox="0 0 52 53" fill="none" xmlns="http://www.w3.org/2000/svg">
<path d="M15.9994 8.44657C16.4876 8.23789 17.0086 8.10869 17.4159 7.97501C18.4087 8.96541 17.7515 10.4176 18.6834 11.4374C19.0278 11.1109 19.3122 10.8749 19.5577 10.6031C21.1445 8.84727 22.5273 6.90229 24.3575 5.37226C24.9294 4.89418 24.8874 4.34965 24.2762 3.85892H24.2766C23.5974 3.28831 22.8697 2.78047 22.1019 2.3411C20.5905 1.52147 19.035 0.784989 17.4875 0.0362522C17.2676 -0.00817331 17.0413 -0.0118417 16.8203 0.0256556V3.52748C15.5975 4.05897 14.3876 4.53623 13.2203 5.10353L13.2199 5.10312C11.1237 6.08985 9.18129 7.3847 7.45517 8.94614C6.13833 10.2003 4.9801 11.6162 4.00692 13.1612C2.30685 15.6095 1.11181 18.3827 0.493372 21.3136C-0.686902 27.1545 0.267098 33.2332 3.17667 38.4095C4.81708 41.514 7.21803 44.1347 10.1468 46.0165C12.9086 47.8086 15.9138 49.1784 19.0665 50.0824C20.4057 50.437 24.536 52.8703 24.081 49.3496C23.9216 48.1163 24.2292 46.2182 22.7282 46.1542C20.4146 46.0409 18.1385 45.5172 16.002 44.6063C10.6463 42.3687 7.21362 38.2057 5.54132 32.6834C4.65864 29.9494 4.37591 27.052 4.71311 24.1949C5.04993 21.3378 5.99868 18.5908 7.49207 16.147C9.42765 12.7054 12.415 10.0015 15.9994 8.44657Z" fill="#4DF7CE"/>
<path d="M47.8846 13.3018C46.1967 10.2021 43.7493 7.5985 40.7797 5.7439C37.9789 3.97813 34.9388 2.63922 31.756 1.77029C29.0782 1.09922 25.2015 -0.756285 26.8754 4.05469C27.3484 5.41363 28.1728 5.68401 29.436 5.85245C31.3092 6.07901 33.147 6.54359 34.9062 7.23593C40.3216 9.41713 43.8259 13.5578 45.5761 19.0874C46.4976 21.8242 46.8175 24.7329 46.5133 27.609C46.2091 30.485 45.2884 33.2582 43.8161 35.7331C41.911 39.2167 38.939 41.9723 35.3521 43.5807C34.8633 43.7966 34.3411 43.9331 33.9325 44.0728C32.922 43.0899 33.565 41.6216 32.6146 40.6089C32.2721 40.9415 31.9888 41.182 31.745 41.4586C30.1703 43.2432 28.8032 45.2158 26.9804 46.7772C26.4107 47.2651 26.4598 47.8116 27.0807 48.2975L27.0811 48.2967C27.7714 48.8617 28.5096 49.3627 29.2872 49.7945C30.818 50.5991 32.3918 51.3198 33.9576 52.0527C34.1796 52.0945 34.4072 52.0953 34.6292 52.0551C34.6143 50.8314 34.6002 49.6904 34.5865 48.5354C35.8102 47.9856 37.0214 47.4907 38.1892 46.9057H38.1888C40.2856 45.8876 42.2241 44.5614 43.9415 42.9699C45.2506 41.6928 46.3989 40.2548 47.3592 38.6898C49.039 36.2075 50.2075 33.4047 50.7938 30.4509C51.9095 24.5649 50.8751 18.4672 47.8846 13.3018Z" fill="#4DF7CE"/>
</svg>
