<svg width="1090" height="107" viewBox="0 0 1090 107" fill="none" xmlns="http://www.w3.org/2000/svg">
<path d="M25.914 83H38.114V12.362H63.246V1.62599H0.66V12.362H25.914V83ZM115.492 83H126.472V41.398C126.472 28.954 120.128 22.61 107.562 22.61C98.5335 22.61 90.6035 27.612 86.6995 32.37V1.62599H75.7195V83H86.6995V40.91C89.8715 36.518 96.0935 32.37 102.926 32.37C110.49 32.37 115.492 35.298 115.492 45.058V83ZM140.327 53.476C140.327 72.02 153.259 84.464 170.827 84.464C180.343 84.464 188.639 81.414 194.495 75.68L189.371 68.482C184.979 72.996 178.147 75.436 171.925 75.436C160.091 75.436 152.771 67.14 151.917 57.136H198.521V54.452C198.521 36.396 187.541 22.61 169.851 22.61C152.649 22.61 140.327 36.396 140.327 53.476ZM169.851 31.638C182.295 31.638 187.541 41.398 187.785 49.206H151.795C152.405 41.154 158.017 31.638 169.851 31.638ZM263.838 83H276.038V12.362H301.17V1.62599H238.584V12.362H263.838V83ZM353.415 83H364.395V41.398C364.395 28.954 358.051 22.61 345.485 22.61C336.457 22.61 328.527 27.612 324.623 32.37V1.62599H313.643V83H324.623V40.91C327.795 36.518 334.017 32.37 340.849 32.37C348.413 32.37 353.415 35.298 353.415 45.058V83ZM381.911 83H392.891V42.008C395.453 37.616 402.895 33.468 408.385 33.468C409.849 33.468 411.069 33.59 412.167 33.834V22.732C404.359 22.732 397.405 27.246 392.891 33.102V24.074H381.911V83ZM428.502 14.192C432.406 14.192 435.578 11.142 435.578 7.23799C435.578 3.33399 432.406 0.161998 428.502 0.161998C424.72 0.161998 421.426 3.33399 421.426 7.23799C421.426 11.142 424.72 14.192 428.502 14.192ZM423.134 83H434.114V24.074H423.134V83ZM454.292 83H465.272V33.712H477.228V24.074H465.272V20.17C465.272 13.094 468.566 9.43399 474.056 9.43399C476.008 9.43399 477.838 9.922 479.302 10.776L481.864 2.602C479.302 1.138 476.008 0.405994 472.226 0.405994C461.734 0.405994 454.292 7.482 454.292 20.17V24.074H444.532V33.712H454.292V83ZM503.934 84.464C509.668 84.464 513.084 82.878 515.402 80.682L512.596 72.386C511.498 73.606 509.18 74.704 506.618 74.704C502.836 74.704 500.884 71.654 500.884 67.506V33.712H512.84V24.074H500.884V7.97H489.904V24.074H480.144V33.712H489.904V69.946C489.904 79.218 494.662 84.464 503.934 84.464ZM629.266 105.448V74.46C634.024 80.926 640.856 84.464 648.542 84.464C663.914 84.464 674.772 72.752 674.772 53.476C674.772 34.2 663.914 22.61 648.542 22.61C640.612 22.61 633.536 26.636 629.266 32.492V24.074H618.286V105.448H629.266ZM663.304 53.476C663.304 65.798 656.594 74.704 645.614 74.704C638.904 74.704 632.194 70.678 629.266 66.042V41.032C632.194 36.274 638.904 32.37 645.614 32.37C656.594 32.37 663.304 41.276 663.304 53.476ZM683.574 75.314C689.552 81.414 698.214 84.464 708.096 84.464C723.59 84.464 731.886 76.534 731.886 66.408C731.886 52.866 719.686 50.06 709.438 47.742C702.118 46.034 695.774 44.326 695.774 39.202C695.774 34.444 700.41 31.516 707.852 31.516C715.294 31.516 721.882 34.566 725.298 38.714L730.178 31.028C725.176 26.27 717.856 22.61 707.73 22.61C693.334 22.61 685.282 30.662 685.282 40.056C685.282 52.744 696.994 55.428 706.998 57.746C714.562 59.454 721.272 61.406 721.272 67.262C721.272 72.264 716.88 75.68 708.584 75.68C700.654 75.68 692.846 71.654 688.82 67.262L683.574 75.314ZM847.492 83H859.692V1.62599H842.246L818.578 60.064L794.91 1.62599H777.464V83H789.664V18.34L816.016 83H821.14L847.492 18.34V83ZM913.892 83H924.872V43.228C924.872 28.222 914.014 22.61 901.204 22.61C891.688 22.61 883.636 25.782 877.048 32.248L881.806 39.812C887.052 34.566 892.786 32.004 899.496 32.004C907.914 32.004 913.892 36.396 913.892 43.716V53.476C909.378 48.23 902.546 45.668 894.616 45.668C884.734 45.668 874.12 51.524 874.12 64.944C874.12 77.876 884.856 84.464 894.616 84.464C902.546 84.464 909.256 81.658 913.892 76.534V83ZM913.892 70.068C910.598 74.46 904.864 76.778 898.764 76.778C890.834 76.778 885.222 72.02 885.222 65.066C885.222 58.112 890.834 53.354 898.764 53.354C904.864 53.354 910.598 55.672 913.892 60.064V70.068ZM941.98 98.128C949.056 104.838 956.254 106.912 966.136 106.912C980.654 106.912 995.416 100.934 995.416 80.682V24.074H984.436V32.614C979.678 26.27 972.724 22.61 965.038 22.61C949.788 22.61 938.808 34.078 938.808 52.988C938.808 72.264 949.788 83.488 965.038 83.488C972.968 83.488 979.922 79.218 984.436 73.362V81.048C984.436 93.492 975.286 97.884 966.136 97.884C958.084 97.884 952.106 95.688 947.226 90.076L941.98 98.128ZM984.436 64.944C981.386 69.702 974.676 73.728 968.088 73.728C957.108 73.728 950.276 65.188 950.276 52.988C950.276 40.91 957.108 32.37 968.088 32.37C974.676 32.37 981.386 36.274 984.436 41.032V64.944ZM1018.25 14.192C1022.15 14.192 1025.32 11.142 1025.32 7.23799C1025.32 3.33399 1022.15 0.161998 1018.25 0.161998C1014.47 0.161998 1011.17 3.33399 1011.17 7.23799C1011.17 11.142 1014.47 14.192 1018.25 14.192ZM1012.88 83H1023.86V24.074H1012.88V83ZM1037.69 53.476C1037.69 71.166 1049.89 84.464 1067.71 84.464C1078.81 84.464 1085.52 79.828 1089.79 74.094L1082.47 67.384C1078.93 72.264 1074.17 74.704 1068.19 74.704C1056.6 74.704 1049.16 65.676 1049.16 53.476C1049.16 41.276 1056.6 32.37 1068.19 32.37C1074.17 32.37 1078.93 34.688 1082.47 39.69L1089.79 32.98C1085.52 27.246 1078.81 22.61 1067.71 22.61C1049.89 22.61 1037.69 35.786 1037.69 53.476Z" fill="white"/>
<path d="M521.827 42.374C521.827 66.53 538.541 84.464 562.819 84.464C587.097 84.464 603.811 66.53 603.811 42.374C603.811 18.218 587.097 0.283996 562.819 0.283996C538.541 0.283996 521.827 18.218 521.827 42.374ZM591.245 42.374C591.245 60.186 580.021 73.606 562.819 73.606C545.373 73.606 534.393 60.186 534.393 42.374C534.393 24.44 545.373 11.142 562.819 11.142C580.021 11.142 591.245 24.44 591.245 42.374Z" fill="#FB2D2D"/>
<path d="M25.914 83H24.914V84H25.914V83ZM38.114 83V84H39.114V83H38.114ZM38.114 12.362V11.362H37.114V12.362H38.114ZM63.246 12.362V13.362H64.246V12.362H63.246ZM63.246 1.62599H64.246V0.625993H63.246V1.62599ZM0.66 1.62599V0.625993H-0.34V1.62599H0.66ZM0.66 12.362H-0.34V13.362H0.66V12.362ZM25.914 12.362H26.914V11.362H25.914V12.362ZM25.914 84H38.114V82H25.914V84ZM39.114 83V12.362H37.114V83H39.114ZM38.114 13.362H63.246V11.362H38.114V13.362ZM64.246 12.362V1.62599H62.246V12.362H64.246ZM63.246 0.625993H0.66V2.62599H63.246V0.625993ZM-0.34 1.62599V12.362H1.66V1.62599H-0.34ZM0.66 13.362H25.914V11.362H0.66V13.362ZM24.914 12.362V83H26.914V12.362H24.914ZM115.492 83H114.492V84H115.492V83ZM126.472 83V84H127.472V83H126.472ZM86.6995 32.37H85.6995V35.1652L87.4726 33.0043L86.6995 32.37ZM86.6995 1.62599H87.6995V0.625993H86.6995V1.62599ZM75.7195 1.62599V0.625993H74.7195V1.62599H75.7195ZM75.7195 83H74.7195V84H75.7195V83ZM86.6995 83V84H87.6995V83H86.6995ZM86.6995 40.91L85.8889 40.3245L85.6995 40.5866V40.91H86.6995ZM115.492 84H126.472V82H115.492V84ZM127.472 83V41.398H125.472V83H127.472ZM127.472 41.398C127.472 35.0169 125.844 30.0218 122.434 26.6287C119.025 23.2364 114.001 21.61 107.562 21.61V23.61C113.688 23.61 118.119 25.1556 121.023 28.0463C123.927 30.9362 125.472 35.3351 125.472 41.398H127.472ZM107.562 21.61C98.1886 21.61 89.9895 26.7838 85.9265 31.7357L87.4726 33.0043C91.2176 28.4402 98.8785 23.61 107.562 23.61V21.61ZM87.6995 32.37V1.62599H85.6995V32.37H87.6995ZM86.6995 0.625993H75.7195V2.62599H86.6995V0.625993ZM74.7195 1.62599V83H76.7195V1.62599H74.7195ZM75.7195 84H86.6995V82H75.7195V84ZM87.6995 83V40.91H85.6995V83H87.6995ZM87.5102 41.4955C90.5324 37.311 96.4747 33.37 102.926 33.37V31.37C95.7124 31.37 89.2107 35.725 85.8889 40.3245L87.5102 41.4955ZM102.926 33.37C106.609 33.37 109.454 34.0884 111.381 35.8014C113.284 37.4932 114.492 40.337 114.492 45.058H116.492C116.492 40.019 115.198 36.5188 112.709 34.3066C110.245 32.1156 106.806 31.37 102.926 31.37V33.37ZM114.492 45.058V83H116.492V45.058H114.492ZM194.495 75.68L195.195 76.3945L195.806 75.7965L195.31 75.1001L194.495 75.68ZM189.371 68.482L190.186 67.9021L189.49 66.9253L188.654 67.7846L189.371 68.482ZM151.917 57.136V56.136H150.828L150.921 57.2211L151.917 57.136ZM198.521 57.136V58.136H199.521V57.136H198.521ZM187.785 49.206V50.206H188.817L188.785 49.1748L187.785 49.206ZM151.795 49.206L150.798 49.1305L150.717 50.206H151.795V49.206ZM139.327 53.476C139.327 62.9875 142.648 70.9972 148.282 76.6311C153.915 82.2638 161.802 85.464 170.827 85.464V83.464C162.285 83.464 154.922 80.4422 149.696 75.2169C144.472 69.9928 141.327 62.5085 141.327 53.476H139.327ZM170.827 85.464C180.555 85.464 189.119 82.3433 195.195 76.3945L193.796 74.9655C188.159 80.4847 180.131 83.464 170.827 83.464V85.464ZM195.31 75.1001L190.186 67.9021L188.556 69.0619L193.68 76.2599L195.31 75.1001ZM188.654 67.7846C184.48 72.0748 177.923 74.436 171.925 74.436V76.436C178.372 76.436 185.478 73.9172 190.088 69.1794L188.654 67.7846ZM171.925 74.436C160.662 74.436 153.728 66.5906 152.914 57.0509L150.921 57.2211C151.814 67.6894 159.52 76.436 171.925 76.436V74.436ZM151.917 58.136H198.521V56.136H151.917V58.136ZM199.521 57.136V54.452H197.521V57.136H199.521ZM199.521 54.452C199.521 45.2262 196.715 37.0197 191.575 31.1041C186.422 25.1746 178.976 21.61 169.851 21.61V23.61C178.417 23.61 185.305 26.9384 190.065 32.4159C194.837 37.9073 197.521 45.6218 197.521 54.452H199.521ZM169.851 21.61C152.037 21.61 139.327 35.9058 139.327 53.476H141.327C141.327 36.8862 153.262 23.61 169.851 23.61V21.61ZM169.851 32.638C175.781 32.638 179.924 34.95 182.631 38.1409C185.361 41.3598 186.67 45.5249 186.786 49.2372L188.785 49.1748C188.657 45.0791 187.22 40.4602 184.156 36.8471C181.067 33.206 176.365 30.638 169.851 30.638V32.638ZM187.785 48.206H151.795V50.206H187.785V48.206ZM152.792 49.2815C153.083 45.4392 154.57 41.2609 157.367 38.0605C160.143 34.8844 164.233 32.638 169.851 32.638V30.638C163.635 30.638 159.003 33.1496 155.861 36.7445C152.741 40.3151 151.117 44.9208 150.798 49.1305L152.792 49.2815ZM263.838 83H262.838V84H263.838V83ZM276.038 83V84H277.038V83H276.038ZM276.038 12.362V11.362H275.038V12.362H276.038ZM301.17 12.362V13.362H302.17V12.362H301.17ZM301.17 1.62599H302.17V0.625993H301.17V1.62599ZM238.584 1.62599V0.625993H237.584V1.62599H238.584ZM238.584 12.362H237.584V13.362H238.584V12.362ZM263.838 12.362H264.838V11.362H263.838V12.362ZM263.838 84H276.038V82H263.838V84ZM277.038 83V12.362H275.038V83H277.038ZM276.038 13.362H301.17V11.362H276.038V13.362ZM302.17 12.362V1.62599H300.17V12.362H302.17ZM301.17 0.625993H238.584V2.62599H301.17V0.625993ZM237.584 1.62599V12.362H239.584V1.62599H237.584ZM238.584 13.362H263.838V11.362H238.584V13.362ZM262.838 12.362V83H264.838V12.362H262.838ZM353.415 83H352.415V84H353.415V83ZM364.395 83V84H365.395V83H364.395ZM324.623 32.37H323.623V35.1652L325.396 33.0043L324.623 32.37ZM324.623 1.62599H325.623V0.625993H324.623V1.62599ZM313.643 1.62599V0.625993H312.643V1.62599H313.643ZM313.643 83H312.643V84H313.643V83ZM324.623 83V84H325.623V83H324.623ZM324.623 40.91L323.813 40.3245L323.623 40.5866V40.91H324.623ZM353.415 84H364.395V82H353.415V84ZM365.395 83V41.398H363.395V83H365.395ZM365.395 41.398C365.395 35.0169 363.768 30.0218 360.358 26.6287C356.949 23.2364 351.925 21.61 345.485 21.61V23.61C351.612 23.61 356.042 25.1556 358.947 28.0463C361.851 30.9362 363.395 35.3351 363.395 41.398H365.395ZM345.485 21.61C336.112 21.61 327.913 26.7838 323.85 31.7357L325.396 33.0043C329.141 28.4402 336.802 23.61 345.485 23.61V21.61ZM325.623 32.37V1.62599H323.623V32.37H325.623ZM324.623 0.625993H313.643V2.62599H324.623V0.625993ZM312.643 1.62599V83H314.643V1.62599H312.643ZM313.643 84H324.623V82H313.643V84ZM325.623 83V40.91H323.623V83H325.623ZM325.434 41.4955C328.456 37.311 334.398 33.37 340.849 33.37V31.37C333.636 31.37 327.135 35.725 323.813 40.3245L325.434 41.4955ZM340.849 33.37C344.533 33.37 347.377 34.0884 349.305 35.8014C351.208 37.4932 352.415 40.337 352.415 45.058H354.415C354.415 40.019 353.122 36.5188 350.633 34.3066C348.168 32.1156 344.73 31.37 340.849 31.37V33.37ZM352.415 45.058V83H354.415V45.058H352.415ZM381.911 83H380.911V84H381.911V83ZM392.891 83V84H393.891V83H392.891ZM392.891 42.008L392.027 41.5041L391.891 41.7376V42.008H392.891ZM412.167 33.834L411.95 34.8102L413.167 35.0806V33.834H412.167ZM412.167 22.732H413.167V21.732H412.167V22.732ZM392.891 33.102H391.891V36.0373L393.683 33.7125L392.891 33.102ZM392.891 24.074H393.891V23.074H392.891V24.074ZM381.911 24.074V23.074H380.911V24.074H381.911ZM381.911 84H392.891V82H381.911V84ZM393.891 83V42.008H391.891V83H393.891ZM393.755 42.5119C394.912 40.5281 397.245 38.5032 400.024 36.966C402.797 35.4321 405.862 34.468 408.385 34.468V32.468C405.418 32.468 402.017 33.5779 399.056 35.216C396.101 36.8508 393.432 39.0959 392.027 41.5041L393.755 42.5119ZM408.385 34.468C409.793 34.468 410.938 34.5853 411.95 34.8102L412.384 32.8578C411.2 32.5947 409.905 32.468 408.385 32.468V34.468ZM413.167 33.834V22.732H411.167V33.834H413.167ZM412.167 21.732C403.966 21.732 396.745 26.4635 392.099 32.4915L393.683 33.7125C398.064 28.0284 404.752 23.732 412.167 23.732V21.732ZM393.891 33.102V24.074H391.891V33.102H393.891ZM392.891 23.074H381.911V25.074H392.891V23.074ZM380.911 24.074V83H382.911V24.074H380.911ZM423.134 83H422.134V84H423.134V83ZM434.114 83V84H435.114V83H434.114ZM434.114 24.074H435.114V23.074H434.114V24.074ZM423.134 24.074V23.074H422.134V24.074H423.134ZM428.502 15.192C432.935 15.192 436.578 11.7169 436.578 7.23799H434.578C434.578 10.5671 431.876 13.192 428.502 13.192V15.192ZM436.578 7.23799C436.578 2.78171 432.958 -0.838002 428.502 -0.838002V1.162C431.853 1.162 434.578 3.88628 434.578 7.23799H436.578ZM428.502 -0.838002C424.179 -0.838002 420.426 2.77058 420.426 7.23799H422.426C422.426 3.8974 425.261 1.162 428.502 1.162V-0.838002ZM420.426 7.23799C420.426 11.7278 424.201 15.192 428.502 15.192V13.192C425.238 13.192 422.426 10.5561 422.426 7.23799H420.426ZM423.134 84H434.114V82H423.134V84ZM435.114 83V24.074H433.114V83H435.114ZM434.114 23.074H423.134V25.074H434.114V23.074ZM422.134 24.074V83H424.134V24.074H422.134ZM454.292 83H453.292V84H454.292V83ZM465.272 83V84H466.272V83H465.272ZM465.272 33.712V32.712H464.272V33.712H465.272ZM477.228 33.712V34.712H478.228V33.712H477.228ZM477.228 24.074H478.228V23.074H477.228V24.074ZM465.272 24.074H464.272V25.074H465.272V24.074ZM479.302 10.776L478.798 11.6398L479.881 12.2716L480.256 11.0751L479.302 10.776ZM481.864 2.602L482.818 2.90108L483.059 2.13307L482.36 1.73375L481.864 2.602ZM454.292 24.074V25.074H455.292V24.074H454.292ZM444.532 24.074V23.074H443.532V24.074H444.532ZM444.532 33.712H443.532V34.712H444.532V33.712ZM454.292 33.712H455.292V32.712H454.292V33.712ZM454.292 84H465.272V82H454.292V84ZM466.272 83V33.712H464.272V83H466.272ZM465.272 34.712H477.228V32.712H465.272V34.712ZM478.228 33.712V24.074H476.228V33.712H478.228ZM477.228 23.074H465.272V25.074H477.228V23.074ZM466.272 24.074V20.17H464.272V24.074H466.272ZM466.272 20.17C466.272 16.7712 467.065 14.3488 468.372 12.7912C469.656 11.2603 471.547 10.434 474.056 10.434V8.43399C471.075 8.43399 468.574 9.43774 466.839 11.5058C465.127 13.5472 464.272 16.4928 464.272 20.17H466.272ZM474.056 10.434C475.847 10.434 477.5 10.8825 478.798 11.6398L479.806 9.91222C478.176 8.96153 476.17 8.43399 474.056 8.43399V10.434ZM480.256 11.0751L482.818 2.90108L480.91 2.30291L478.348 10.4769L480.256 11.0751ZM482.36 1.73375C479.606 0.159912 476.128 -0.594006 472.226 -0.594006V1.40599C475.889 1.40599 478.998 2.11609 481.368 3.47024L482.36 1.73375ZM472.226 -0.594006C466.749 -0.594006 461.987 1.25841 458.598 4.84298C455.213 8.42345 453.292 13.6311 453.292 20.17H455.292C455.292 14.0209 457.093 9.34654 460.051 6.21701C463.006 3.09158 467.211 1.40599 472.226 1.40599V-0.594006ZM453.292 20.17V24.074H455.292V20.17H453.292ZM454.292 23.074H444.532V25.074H454.292V23.074ZM443.532 24.074V33.712H445.532V24.074H443.532ZM444.532 34.712H454.292V32.712H444.532V34.712ZM453.292 33.712V83H455.292V33.712H453.292ZM515.402 80.682L516.09 81.408L516.554 80.9678L516.349 80.3616L515.402 80.682ZM512.596 72.386L513.543 72.0656L512.996 70.4469L511.853 71.717L512.596 72.386ZM500.884 33.712V32.712H499.884V33.712H500.884ZM512.84 33.712V34.712H513.84V33.712H512.84ZM512.84 24.074H513.84V23.074H512.84V24.074ZM500.884 24.074H499.884V25.074H500.884V24.074ZM500.884 7.97H501.884V6.97H500.884V7.97ZM489.904 7.97V6.97H488.904V7.97H489.904ZM489.904 24.074V25.074H490.904V24.074H489.904ZM480.144 24.074V23.074H479.144V24.074H480.144ZM480.144 33.712H479.144V34.712H480.144V33.712ZM489.904 33.712H490.904V32.712H489.904V33.712ZM503.934 85.464C509.874 85.464 513.553 83.8112 516.09 81.408L514.714 79.956C512.615 81.9448 509.461 83.464 503.934 83.464V85.464ZM516.349 80.3616L513.543 72.0656L511.649 72.7064L514.455 81.0024L516.349 80.3616ZM511.853 71.717C510.971 72.6965 508.939 73.704 506.618 73.704V75.704C509.421 75.704 512.025 74.5155 513.339 73.055L511.853 71.717ZM506.618 73.704C505.03 73.704 503.898 73.0808 503.133 72.0605C502.341 71.0047 501.884 69.4393 501.884 67.506H499.884C499.884 69.7207 500.403 71.7543 501.533 73.2605C502.689 74.8022 504.423 75.704 506.618 75.704V73.704ZM501.884 67.506V33.712H499.884V67.506H501.884ZM500.884 34.712H512.84V32.712H500.884V34.712ZM513.84 33.712V24.074H511.84V33.712H513.84ZM512.84 23.074H500.884V25.074H512.84V23.074ZM501.884 24.074V7.97H499.884V24.074H501.884ZM500.884 6.97H489.904V8.97H500.884V6.97ZM488.904 7.97V24.074H490.904V7.97H488.904ZM489.904 23.074H480.144V25.074H489.904V23.074ZM479.144 24.074V33.712H481.144V24.074H479.144ZM480.144 34.712H489.904V32.712H480.144V34.712ZM488.904 33.712V69.946H490.904V33.712H488.904ZM488.904 69.946C488.904 74.7424 490.135 78.655 492.717 81.371C495.307 84.0955 499.111 85.464 503.934 85.464V83.464C499.485 83.464 496.274 82.2095 494.167 79.993C492.051 77.768 490.904 74.4216 490.904 69.946H488.904ZM520.827 42.374C520.827 67.0448 537.952 85.464 562.819 85.464V83.464C539.13 83.464 522.827 66.0152 522.827 42.374H520.827ZM562.819 85.464C587.686 85.464 604.811 67.0448 604.811 42.374H602.811C602.811 66.0152 586.508 83.464 562.819 83.464V85.464ZM604.811 42.374C604.811 17.7032 587.686 -0.716004 562.819 -0.716004V1.284C586.508 1.284 602.811 18.7328 602.811 42.374H604.811ZM562.819 -0.716004C537.952 -0.716004 520.827 17.7032 520.827 42.374H522.827C522.827 18.7328 539.13 1.284 562.819 1.284V-0.716004ZM590.245 42.374C590.245 51.0728 587.505 58.6332 582.735 64.0055C577.974 69.3672 571.142 72.606 562.819 72.606V74.606C571.697 74.606 579.079 71.1348 584.23 65.3335C589.372 59.5428 592.245 51.4872 592.245 42.374H590.245ZM562.819 72.606C554.37 72.606 547.541 69.3651 542.813 64.0078C538.075 58.6383 535.393 51.0784 535.393 42.374H533.393C533.393 51.4816 536.201 59.5377 541.314 65.3312C546.437 71.1369 553.821 74.606 562.819 74.606V72.606ZM535.393 42.374C535.393 33.6073 538.075 26.0485 542.812 20.6955C547.539 15.3545 554.367 12.142 562.819 12.142V10.142C553.824 10.142 546.44 13.5785 541.315 19.37C536.2 25.1495 533.393 33.2067 533.393 42.374H535.393ZM562.819 12.142C571.145 12.142 577.976 15.3525 582.736 20.6977C587.505 26.0535 590.245 33.6129 590.245 42.374H592.245C592.245 33.2011 589.373 25.1445 584.229 19.3677C579.076 13.5805 571.694 10.142 562.819 10.142V12.142ZM629.266 105.448V106.448H630.266V105.448H629.266ZM629.266 74.46L630.071 73.8673L628.266 71.4138V74.46H629.266ZM629.266 32.492H628.266V35.5607L630.074 33.0812L629.266 32.492ZM629.266 24.074H630.266V23.074H629.266V24.074ZM618.286 24.074V23.074H617.286V24.074H618.286ZM618.286 105.448H617.286V106.448H618.286V105.448ZM629.266 66.042H628.266V66.3313L628.42 66.576L629.266 66.042ZM629.266 41.032L628.414 40.5079L628.266 40.749V41.032H629.266ZM630.266 105.448V74.46H628.266V105.448H630.266ZM628.461 75.0527C633.398 81.7623 640.523 85.464 648.542 85.464V83.464C641.189 83.464 634.65 80.0897 630.071 73.8673L628.461 75.0527ZM648.542 85.464C656.498 85.464 663.338 82.4249 668.176 76.8543C673.005 71.2956 675.772 63.2973 675.772 53.476H673.772C673.772 62.9307 671.11 70.4264 666.666 75.5427C662.233 80.6471 655.958 83.464 648.542 83.464V85.464ZM675.772 53.476C675.772 43.6546 673.004 35.6855 668.175 30.1566C663.335 24.6161 656.494 21.61 648.542 21.61V23.61C655.961 23.61 662.236 26.3989 666.668 31.4724C671.11 36.5575 673.772 44.0214 673.772 53.476H675.772ZM648.542 21.61C640.27 21.61 632.903 25.8074 628.458 31.9028L630.074 33.0812C634.169 27.4646 640.954 23.61 648.542 23.61V21.61ZM630.266 32.492V24.074H628.266V32.492H630.266ZM629.266 23.074H618.286V25.074H629.266V23.074ZM617.286 24.074V105.448H619.286V24.074H617.286ZM618.286 106.448H629.266V104.448H618.286V106.448ZM662.304 53.476C662.304 59.4646 660.673 64.5323 657.799 68.0815C654.942 71.6098 650.807 73.704 645.614 73.704V75.704C651.401 75.704 656.111 73.3452 659.354 69.34C662.58 65.3557 664.304 59.8094 664.304 53.476H662.304ZM645.614 73.704C639.246 73.704 632.856 69.853 630.111 65.508L628.42 66.576C631.532 71.503 638.562 75.704 645.614 75.704V73.704ZM630.266 66.042V41.032H628.266V66.042H630.266ZM630.118 41.5561C632.855 37.1075 639.235 33.37 645.614 33.37V31.37C638.573 31.37 631.533 35.4405 628.414 40.5079L630.118 41.5561ZM645.614 33.37C650.808 33.37 654.943 35.4645 657.801 38.9788C660.674 42.5134 662.304 47.5505 662.304 53.476H664.304C664.304 47.2015 662.579 41.6856 659.352 37.7172C656.11 33.7285 651.4 31.37 645.614 31.37V33.37ZM683.574 75.314L682.736 74.7681L682.298 75.4406L682.86 76.0139L683.574 75.314ZM709.438 47.742L709.211 48.7159L709.217 48.7174L709.438 47.742ZM725.298 38.714L724.526 39.3497L725.403 40.4144L726.142 39.25L725.298 38.714ZM730.178 31.028L731.022 31.564L731.463 30.87L730.867 30.3034L730.178 31.028ZM706.998 57.746L706.772 58.7202L706.778 58.7214L706.998 57.746ZM688.82 67.262L689.557 66.5863L688.686 65.6359L687.982 66.7161L688.82 67.262ZM682.86 76.0139C689.069 82.3502 698.015 85.464 708.096 85.464V83.464C698.414 83.464 690.035 80.4778 684.288 74.6141L682.86 76.0139ZM708.096 85.464C716.006 85.464 722.196 83.4398 726.431 80.0104C730.682 76.5674 732.886 71.7649 732.886 66.408H730.886C730.886 71.1771 728.942 75.4026 725.172 78.4561C721.385 81.5232 715.681 83.464 708.096 83.464V85.464ZM732.886 66.408C732.886 62.8658 732.086 59.9712 730.68 57.5951C729.277 55.2231 727.302 53.4228 725.032 52.016C720.532 49.2273 714.744 47.9169 709.659 46.7666L709.217 48.7174C714.38 49.8851 719.816 51.1367 723.978 53.716C726.039 54.9932 727.755 56.5784 728.959 58.6136C730.161 60.6448 730.886 63.1792 730.886 66.408H732.886ZM709.665 46.7682C705.98 45.9082 702.689 45.0779 700.317 43.863C697.976 42.6639 696.774 41.2267 696.774 39.202H694.774C694.774 42.3013 696.744 44.2801 699.405 45.643C702.035 46.99 705.576 47.8678 709.211 48.7158L709.665 46.7682ZM696.774 39.202C696.774 37.2038 697.724 35.5839 699.558 34.4189C701.432 33.2289 704.243 32.516 707.852 32.516V30.516C704.019 30.516 700.791 31.2671 698.486 32.7306C696.142 34.2191 694.774 36.4422 694.774 39.202H696.774ZM707.852 32.516C715.053 32.516 721.334 35.4737 724.526 39.3497L726.07 38.0783C722.43 33.6583 715.535 30.516 707.852 30.516V32.516ZM726.142 39.25L731.022 31.564L729.334 30.492L724.454 38.178L726.142 39.25ZM730.867 30.3034C725.685 25.3738 718.12 21.61 707.73 21.61V23.61C717.592 23.61 724.667 27.1662 729.489 31.7526L730.867 30.3034ZM707.73 21.61C700.349 21.61 694.494 23.6755 690.466 27.043C686.431 30.4167 684.282 35.0573 684.282 40.056H686.282C686.282 35.6607 688.159 31.5783 691.749 28.5775C695.346 25.5705 700.715 23.61 707.73 23.61V21.61ZM684.282 40.056C684.282 43.3892 685.054 46.1191 686.413 48.3647C687.769 50.6051 689.677 52.3079 691.868 53.6436C696.211 56.2906 701.812 57.5708 706.772 58.7202L707.224 56.7718C702.18 55.6032 696.923 54.3824 692.909 51.9359C690.922 50.7248 689.276 49.2328 688.124 47.329C686.975 45.4304 686.282 43.0668 686.282 40.056H684.282ZM706.778 58.7214C710.576 59.5791 714.01 60.4695 716.492 61.826C718.927 63.1568 720.272 64.8295 720.272 67.262H722.272C722.272 63.8385 720.262 61.6072 717.451 60.071C714.687 58.5604 710.984 57.6209 707.218 56.7706L706.778 58.7214ZM720.272 67.262C720.272 69.4289 719.34 71.2289 717.47 72.5248C715.56 73.8478 712.613 74.68 708.584 74.68V76.68C712.851 76.68 716.248 75.8042 718.609 74.1687C721.008 72.5061 722.272 70.0971 722.272 67.262H720.272ZM708.584 74.68C700.948 74.68 693.403 70.782 689.557 66.5863L688.083 67.9377C692.289 72.526 700.36 76.68 708.584 76.68V74.68ZM687.982 66.7161L682.736 74.7681L684.412 75.8599L689.658 67.8079L687.982 66.7161ZM847.492 83H846.492V84H847.492V83ZM859.692 83V84H860.692V83H859.692ZM859.692 1.62599H860.692V0.625993H859.692V1.62599ZM842.246 1.62599V0.625993H841.572L841.319 1.2506L842.246 1.62599ZM818.578 60.064L817.651 60.4394L818.578 62.7279L819.504 60.4394L818.578 60.064ZM794.91 1.62599L795.836 1.2506L795.583 0.625993H794.91V1.62599ZM777.464 1.62599V0.625993H776.464V1.62599H777.464ZM777.464 83H776.464V84H777.464V83ZM789.664 83V84H790.664V83H789.664ZM789.664 18.34L790.59 17.9626L788.664 18.34H789.664ZM816.016 83L815.09 83.3774L815.343 84H816.016V83ZM821.14 83V84H821.812L822.066 83.3774L821.14 83ZM847.492 18.34H848.492L846.565 17.9626L847.492 18.34ZM847.492 84H859.692V82H847.492V84ZM860.692 83V1.62599H858.692V83H860.692ZM859.692 0.625993H842.246V2.62599H859.692V0.625993ZM841.319 1.2506L817.651 59.6886L819.504 60.4394L843.172 2.00138L841.319 1.2506ZM819.504 59.6886L795.836 1.2506L793.983 2.00138L817.651 60.4394L819.504 59.6886ZM794.91 0.625993H777.464V2.62599H794.91V0.625993ZM776.464 1.62599V83H778.464V1.62599H776.464ZM777.464 84H789.664V82H777.464V84ZM790.664 83V18.34H788.664V83H790.664ZM788.738 18.7174L815.09 83.3774L816.942 82.6226L790.59 17.9626L788.738 18.7174ZM816.016 84H821.14V82H816.016V84ZM822.066 83.3774L848.418 18.7174L846.565 17.9626L820.214 82.6226L822.066 83.3774ZM846.492 18.34V83H848.492V18.34H846.492ZM913.892 83H912.892V84H913.892V83ZM924.872 83V84H925.872V83H924.872ZM877.048 32.248L876.347 31.5343L875.773 32.0986L876.201 32.7805L877.048 32.248ZM881.806 39.812L880.959 40.3445L881.627 41.4053L882.513 40.5191L881.806 39.812ZM913.892 53.476L913.134 54.1282L914.892 56.1713V53.476H913.892ZM913.892 76.534H914.892V73.9382L913.15 75.8631L913.892 76.534ZM913.892 70.068L914.692 70.668L914.892 70.4013V70.068H913.892ZM913.892 60.064H914.892V59.7307L914.692 59.464L913.892 60.064ZM913.892 84H924.872V82H913.892V84ZM925.872 83V43.228H923.872V83H925.872ZM925.872 43.228C925.872 35.4548 923.043 29.9876 918.447 26.4955C913.894 23.0371 907.733 21.61 901.204 21.61V23.61C907.485 23.61 913.157 24.9889 917.237 28.088C921.272 31.1534 923.872 35.9952 923.872 43.228H925.872ZM901.204 21.61C891.44 21.61 883.132 24.8754 876.347 31.5343L877.748 32.9617C884.14 26.6886 891.936 23.61 901.204 23.61V21.61ZM876.201 32.7805L880.959 40.3445L882.652 39.2795L877.894 31.7155L876.201 32.7805ZM882.513 40.5191C887.597 35.4354 893.085 33.004 899.496 33.004V31.004C892.487 31.004 886.507 33.6966 881.099 39.1049L882.513 40.5191ZM899.496 33.004C903.542 33.004 906.904 34.0602 909.231 35.8995C911.534 37.7198 912.892 40.3569 912.892 43.716H914.892C914.892 39.7551 913.261 36.5362 910.471 34.3305C907.704 32.1438 903.868 31.004 899.496 31.004V33.004ZM912.892 43.716V53.476H914.892V43.716H912.892ZM914.65 52.8238C909.899 47.3024 902.757 44.668 894.616 44.668V46.668C902.335 46.668 908.857 49.1576 913.134 54.1282L914.65 52.8238ZM894.616 44.668C889.493 44.668 884.134 46.1835 880.034 49.4956C875.905 52.8314 873.12 57.939 873.12 64.944H875.12C875.12 58.529 877.642 53.9986 881.291 51.0514C884.968 48.0805 889.857 46.668 894.616 46.668V44.668ZM873.12 64.944C873.12 78.5886 884.479 85.464 894.616 85.464V83.464C885.233 83.464 875.12 77.1634 875.12 64.944H873.12ZM894.616 85.464C902.79 85.464 909.783 82.5656 914.633 77.2049L913.15 75.8631C908.729 80.7504 902.302 83.464 894.616 83.464V85.464ZM912.892 76.534V83H914.892V76.534H912.892ZM913.092 69.468C910.033 73.546 904.636 75.778 898.764 75.778V77.778C905.092 77.778 911.162 75.374 914.692 70.668L913.092 69.468ZM898.764 75.778C894.995 75.778 891.854 74.6483 889.671 72.7715C887.5 70.9047 886.222 68.2547 886.222 65.066H884.222C884.222 68.8313 885.75 72.0373 888.367 74.288C890.973 76.5287 894.603 77.778 898.764 77.778V75.778ZM886.222 65.066C886.222 61.8773 887.5 59.2273 889.671 57.3605C891.854 55.4837 894.995 54.354 898.764 54.354V52.354C894.603 52.354 890.973 53.6033 888.367 55.844C885.75 58.0947 884.222 61.3007 884.222 65.066H886.222ZM898.764 54.354C904.636 54.354 910.033 56.586 913.092 60.664L914.692 59.464C911.162 54.758 905.092 52.354 898.764 52.354V54.354ZM912.892 60.064V70.068H914.892V60.064H912.892ZM941.98 98.128L941.142 97.5821L940.687 98.2803L941.292 98.8536L941.98 98.128ZM995.416 24.074H996.416V23.074H995.416V24.074ZM984.436 24.074V23.074H983.436V24.074H984.436ZM984.436 32.614L983.636 33.214L985.436 35.614V32.614H984.436ZM984.436 73.362H985.436V70.4267L983.644 72.7515L984.436 73.362ZM947.226 90.076L947.98 89.4198L947.111 88.4201L946.388 89.5301L947.226 90.076ZM984.436 64.944L985.277 65.4837L985.436 65.237V64.944H984.436ZM984.436 41.032H985.436V40.739L985.277 40.4923L984.436 41.032ZM941.292 98.8536C948.598 105.783 956.067 107.912 966.136 107.912V105.912C956.44 105.912 949.513 103.893 942.668 97.4024L941.292 98.8536ZM966.136 107.912C973.506 107.912 981.067 106.398 986.81 102.199C992.606 97.9602 996.416 91.0837 996.416 80.682H994.416C994.416 90.5323 990.844 96.7708 985.63 100.584C980.362 104.437 973.283 105.912 966.136 105.912V107.912ZM996.416 80.682V24.074H994.416V80.682H996.416ZM995.416 23.074H984.436V25.074H995.416V23.074ZM983.436 24.074V32.614H985.436V24.074H983.436ZM985.236 32.014C980.302 25.436 973.06 21.61 965.038 21.61V23.61C972.387 23.61 979.053 27.104 983.636 33.214L985.236 32.014ZM965.038 21.61C957.148 21.61 950.311 24.5837 945.457 30.0432C940.61 35.4938 937.808 43.342 937.808 52.988H939.808C939.808 43.724 942.495 36.3832 946.951 31.3722C951.399 26.3703 957.677 23.61 965.038 23.61V21.61ZM937.808 52.988C937.808 62.8127 940.608 70.6938 945.458 76.1321C950.316 81.5798 957.155 84.488 965.038 84.488V82.488C957.671 82.488 951.394 79.7842 946.95 74.8009C942.498 69.8082 939.808 62.4393 939.808 52.988H937.808ZM965.038 84.488C973.339 84.488 980.565 80.0214 985.228 73.9725L983.644 72.7515C979.278 78.4146 972.596 82.488 965.038 82.488V84.488ZM983.436 73.362V81.048H985.436V73.362H983.436ZM983.436 81.048C983.436 86.9949 981.265 90.8975 978.105 93.3414C974.904 95.8169 970.571 96.884 966.136 96.884V98.884C970.851 98.884 975.667 97.7551 979.329 94.9236C983.031 92.0605 985.436 87.5451 985.436 81.048H983.436ZM966.136 96.884C958.303 96.884 952.629 94.7658 947.98 89.4198L946.471 90.7322C951.582 96.6102 957.864 98.884 966.136 98.884V96.884ZM946.388 89.5301L941.142 97.5821L942.817 98.6739L948.063 90.6219L946.388 89.5301ZM983.594 64.4043C980.722 68.8841 974.325 72.728 968.088 72.728V74.728C975.026 74.728 982.049 70.5199 985.277 65.4837L983.594 64.4043ZM968.088 72.728C962.878 72.728 958.711 70.7126 955.829 67.2891C952.933 63.8481 951.276 58.9085 951.276 52.988H949.276C949.276 59.2674 951.034 64.6979 954.299 68.5769C957.579 72.4734 962.317 74.728 968.088 74.728V72.728ZM951.276 52.988C951.276 47.1307 952.932 42.2218 955.828 38.7953C958.71 35.3857 962.878 33.37 968.088 33.37V31.37C962.317 31.37 957.58 33.6243 954.3 37.5042C951.035 41.3672 949.276 46.7673 949.276 52.988H951.276ZM968.088 33.37C974.337 33.37 980.729 37.1023 983.594 41.5717L985.277 40.4923C982.042 35.4457 975.014 31.37 968.088 31.37V33.37ZM983.436 41.032V64.944H985.436V41.032H983.436ZM1012.88 83H1011.88V84H1012.88V83ZM1023.86 83V84H1024.86V83H1023.86ZM1023.86 24.074H1024.86V23.074H1023.86V24.074ZM1012.88 24.074V23.074H1011.88V24.074H1012.88ZM1018.25 15.192C1022.68 15.192 1026.32 11.7169 1026.32 7.23799H1024.32C1024.32 10.5671 1021.62 13.192 1018.25 13.192V15.192ZM1026.32 7.23799C1026.32 2.78171 1022.7 -0.838002 1018.25 -0.838002V1.162C1021.6 1.162 1024.32 3.88628 1024.32 7.23799H1026.32ZM1018.25 -0.838002C1013.92 -0.838002 1010.17 2.77058 1010.17 7.23799H1012.17C1012.17 3.8974 1015.01 1.162 1018.25 1.162V-0.838002ZM1010.17 7.23799C1010.17 11.7278 1013.95 15.192 1018.25 15.192V13.192C1014.98 13.192 1012.17 10.5561 1012.17 7.23799H1010.17ZM1012.88 84H1023.86V82H1012.88V84ZM1024.86 83V24.074H1022.86V83H1024.86ZM1023.86 23.074H1012.88V25.074H1023.86V23.074ZM1011.88 24.074V83H1013.88V24.074H1011.88ZM1089.79 74.094L1090.59 74.6913L1091.13 73.967L1090.46 73.3568L1089.79 74.094ZM1082.47 67.384L1083.14 66.6468L1082.32 65.8889L1081.66 66.797L1082.47 67.384ZM1082.47 39.69L1081.65 40.2675L1082.31 41.1941L1083.14 40.4272L1082.47 39.69ZM1089.79 32.98L1090.46 33.7172L1091.13 33.107L1090.59 32.3827L1089.79 32.98ZM1036.69 53.476C1036.69 71.6725 1049.3 85.464 1067.71 85.464V83.464C1050.49 83.464 1038.69 70.6595 1038.69 53.476H1036.69ZM1067.71 85.464C1079.15 85.464 1086.15 80.6603 1090.59 74.6913L1088.99 73.4967C1084.89 78.9957 1078.47 83.464 1067.71 83.464V85.464ZM1090.46 73.3568L1083.14 66.6468L1081.79 68.1212L1089.11 74.8312L1090.46 73.3568ZM1081.66 66.797C1078.31 71.4201 1073.85 73.704 1068.19 73.704V75.704C1074.5 75.704 1079.55 73.1079 1083.28 67.971L1081.66 66.797ZM1068.19 73.704C1062.68 73.704 1058.2 71.564 1055.08 68.0065C1051.96 64.4367 1050.16 59.3766 1050.16 53.476H1048.16C1048.16 59.7754 1050.08 65.3293 1053.58 69.3235C1057.09 73.33 1062.12 75.704 1068.19 75.704V73.704ZM1050.16 53.476C1050.16 47.5757 1051.96 42.5479 1055.08 39.0095C1058.19 35.4829 1062.67 33.37 1068.19 33.37V31.37C1062.13 31.37 1057.09 33.7101 1053.58 37.6865C1050.08 41.6511 1048.16 47.1763 1048.16 53.476H1050.16ZM1068.19 33.37C1073.86 33.37 1078.31 35.5412 1081.65 40.2675L1083.28 39.1125C1079.55 33.8348 1074.48 31.37 1068.19 31.37V33.37ZM1083.14 40.4272L1090.46 33.7172L1089.11 32.2428L1081.79 38.9528L1083.14 40.4272ZM1090.59 32.3827C1086.15 26.4137 1079.15 21.61 1067.71 21.61V23.61C1078.47 23.61 1084.89 28.0783 1088.99 33.5773L1090.59 32.3827ZM1067.71 21.61C1049.3 21.61 1036.69 35.2741 1036.69 53.476H1038.69C1038.69 36.2979 1050.49 23.61 1067.71 23.61V21.61Z" fill="black"/>
</svg>
