<svg width="252" height="179" viewBox="0 0 252 179" fill="none" xmlns="http://www.w3.org/2000/svg">
<path d="M13.694 42H19.894V6.102H32.666V0.645997H0.86V6.102H13.694V42ZM59.217 42H64.797V20.858C64.797 14.534 61.573 11.31 55.187 11.31C50.599 11.31 46.569 13.852 44.585 16.27V0.645997H39.005V42H44.585V20.61C46.197 18.378 49.359 16.27 52.831 16.27C56.675 16.27 59.217 17.758 59.217 22.718V42ZM71.8384 26.996C71.8384 36.42 78.4104 42.744 87.3384 42.744C92.1744 42.744 96.3904 41.194 99.3664 38.28L96.7624 34.622C94.5304 36.916 91.0584 38.156 87.8964 38.156C81.8824 38.156 78.1624 33.94 77.7284 28.856H101.412V27.492C101.412 18.316 95.8324 11.31 86.8424 11.31C78.1004 11.31 71.8384 18.316 71.8384 26.996ZM86.8424 15.898C93.1664 15.898 95.8324 20.858 95.9564 24.826H77.6664C77.9764 20.734 80.8284 15.898 86.8424 15.898ZM13.694 104H19.894V68.102H32.666V62.646H0.86V68.102H13.694V104ZM59.217 104H64.797V82.858C64.797 76.534 61.573 73.31 55.187 73.31C50.599 73.31 46.569 75.852 44.585 78.27V62.646H39.005V104H44.585V82.61C46.197 80.378 49.359 78.27 52.831 78.27C56.675 78.27 59.217 79.758 59.217 84.718V104ZM73.6984 104H79.2784V83.168C80.5804 80.936 84.3624 78.828 87.1524 78.828C87.8964 78.828 88.5164 78.89 89.0744 79.014V73.372C85.1064 73.372 81.5724 75.666 79.2784 78.642V74.054H73.6984V104ZM97.3756 69.032C99.3596 69.032 100.972 67.482 100.972 65.498C100.972 63.514 99.3596 61.902 97.3756 61.902C95.4536 61.902 93.7796 63.514 93.7796 65.498C93.7796 67.482 95.4536 69.032 97.3756 69.032ZM94.6476 104H100.228V74.054H94.6476V104ZM110.482 104H116.062V78.952H122.138V74.054H116.062V72.07C116.062 68.474 117.736 66.614 120.526 66.614C121.518 66.614 122.448 66.862 123.192 67.296L124.494 63.142C123.192 62.398 121.518 62.026 119.596 62.026C114.264 62.026 110.482 65.622 110.482 72.07V74.054H105.522V78.952H110.482V104ZM135.71 104.744C138.624 104.744 140.36 103.938 141.538 102.822L140.112 98.606C139.554 99.226 138.376 99.784 137.074 99.784C135.152 99.784 134.16 98.234 134.16 96.126V78.952H140.236V74.054H134.16V65.87H128.58V74.054H123.62V78.952H128.58V97.366C128.58 102.078 130.998 104.744 135.71 104.744ZM199.403 115.408V99.66C201.821 102.946 205.293 104.744 209.199 104.744C217.011 104.744 222.529 98.792 222.529 88.996C222.529 79.2 217.011 73.31 209.199 73.31C205.169 73.31 201.573 75.356 199.403 78.332V74.054H193.823V115.408H199.403ZM216.701 88.996C216.701 95.258 213.291 99.784 207.711 99.784C204.301 99.784 200.891 97.738 199.403 95.382V82.672C200.891 80.254 204.301 78.27 207.711 78.27C213.291 78.27 216.701 82.796 216.701 88.996ZM227.003 100.094C230.041 103.194 234.443 104.744 239.465 104.744C247.339 104.744 251.555 100.714 251.555 95.568C251.555 88.686 245.355 87.26 240.147 86.082C236.427 85.214 233.203 84.346 233.203 81.742C233.203 79.324 235.559 77.836 239.341 77.836C243.123 77.836 246.471 79.386 248.207 81.494L250.687 77.588C248.145 75.17 244.425 73.31 239.279 73.31C231.963 73.31 227.871 77.402 227.871 82.176C227.871 88.624 233.823 89.988 238.907 91.166C242.751 92.034 246.161 93.026 246.161 96.002C246.161 98.544 243.929 100.28 239.713 100.28C235.683 100.28 231.715 98.234 229.669 96.002L227.003 100.094ZM39.176 166H45.376V124.646H36.51L24.482 154.344L12.454 124.646H3.588V166H9.788V133.14L23.18 166H25.784L39.176 133.14V166ZM72.9205 166H78.5005V145.788C78.5005 138.162 72.9825 135.31 66.4725 135.31C61.6365 135.31 57.5445 136.922 54.1965 140.208L56.6145 144.052C59.2805 141.386 62.1945 140.084 65.6045 140.084C69.8825 140.084 72.9205 142.316 72.9205 146.036V150.996C70.6265 148.33 67.1545 147.028 63.1245 147.028C58.1025 147.028 52.7085 150.004 52.7085 156.824C52.7085 163.396 58.1645 166.744 63.1245 166.744C67.1545 166.744 70.5645 165.318 72.9205 162.714V166ZM72.9205 159.428C71.2465 161.66 68.3325 162.838 65.2325 162.838C61.2025 162.838 58.3505 160.42 58.3505 156.886C58.3505 153.352 61.2025 150.934 65.2325 150.934C68.3325 150.934 71.2465 152.112 72.9205 154.344V159.428ZM87.1945 173.688C90.7905 177.098 94.4485 178.152 99.4705 178.152C106.849 178.152 114.351 175.114 114.351 164.822V136.054H108.771V140.394C106.353 137.17 102.819 135.31 98.9125 135.31C91.1625 135.31 85.5825 141.138 85.5825 150.748C85.5825 160.544 91.1625 166.248 98.9125 166.248C102.943 166.248 106.477 164.078 108.771 161.102V165.008C108.771 171.332 104.121 173.564 99.4705 173.564C95.3785 173.564 92.3405 172.448 89.8605 169.596L87.1945 173.688ZM108.771 156.824C107.221 159.242 103.811 161.288 100.463 161.288C94.8825 161.288 91.4105 156.948 91.4105 150.748C91.4105 144.61 94.8825 140.27 100.463 140.27C103.811 140.27 107.221 142.254 108.771 144.672V156.824ZM125.954 131.032C127.938 131.032 129.55 129.482 129.55 127.498C129.55 125.514 127.938 123.902 125.954 123.902C124.032 123.902 122.358 125.514 122.358 127.498C122.358 129.482 124.032 131.032 125.954 131.032ZM123.226 166H128.806V136.054H123.226V166ZM135.836 150.996C135.836 159.986 142.036 166.744 151.088 166.744C156.73 166.744 160.14 164.388 162.31 161.474L158.59 158.064C156.792 160.544 154.374 161.784 151.336 161.784C145.446 161.784 141.664 157.196 141.664 150.996C141.664 144.796 145.446 140.27 151.336 140.27C154.374 140.27 156.792 141.448 158.59 143.99L162.31 140.58C160.14 137.666 156.73 135.31 151.088 135.31C142.036 135.31 135.836 142.006 135.836 150.996Z" fill="white"/>
<path d="M144.803 83.354C144.803 95.63 153.297 104.744 165.635 104.744C177.973 104.744 186.467 95.63 186.467 83.354C186.467 71.078 177.973 61.964 165.635 61.964C153.297 61.964 144.803 71.078 144.803 83.354ZM180.081 83.354C180.081 92.406 174.377 99.226 165.635 99.226C156.769 99.226 151.189 92.406 151.189 83.354C151.189 74.24 156.769 67.482 165.635 67.482C174.377 67.482 180.081 74.24 180.081 83.354Z" fill="#FB2D2D"/>
<path d="M13.694 42H12.694V43H13.694V42ZM19.894 42V43H20.894V42H19.894ZM19.894 6.102V5.102H18.894V6.102H19.894ZM32.666 6.102V7.102H33.666V6.102H32.666ZM32.666 0.645997H33.666V-0.354003H32.666V0.645997ZM0.86 0.645997V-0.354003H-0.14V0.645997H0.86ZM0.86 6.102H-0.14V7.102H0.86V6.102ZM13.694 6.102H14.694V5.102H13.694V6.102ZM13.694 43H19.894V41H13.694V43ZM20.894 42V6.102H18.894V42H20.894ZM19.894 7.102H32.666V5.102H19.894V7.102ZM33.666 6.102V0.645997H31.666V6.102H33.666ZM32.666 -0.354003H0.86V1.646H32.666V-0.354003ZM-0.14 0.645997V6.102H1.86V0.645997H-0.14ZM0.86 7.102H13.694V5.102H0.86V7.102ZM12.694 6.102V42H14.694V6.102H12.694ZM59.217 42H58.217V43H59.217V42ZM64.797 42V43H65.797V42H64.797ZM44.585 16.27H43.585V19.0652L45.3581 16.9043L44.585 16.27ZM44.585 0.645997H45.585V-0.354003H44.585V0.645997ZM39.005 0.645997V-0.354003H38.005V0.645997H39.005ZM39.005 42H38.005V43H39.005V42ZM44.585 42V43H45.585V42H44.585ZM44.585 20.61L43.7743 20.0245L43.585 20.2866V20.61H44.585ZM59.217 43H64.797V41H59.217V43ZM65.797 42V20.858H63.797V42H65.797ZM65.797 20.858C65.797 17.5369 64.9493 14.8518 63.0922 13.0037C61.2359 11.1564 58.5366 10.31 55.187 10.31V12.31C58.2234 12.31 60.3291 13.0756 61.6814 14.4213C63.0328 15.7662 63.797 17.8551 63.797 20.858H65.797ZM55.187 10.31C50.2541 10.31 45.955 13.0238 43.8119 15.6357L45.3581 16.9043C47.183 14.6802 50.944 12.31 55.187 12.31V10.31ZM45.585 16.27V0.645997H43.585V16.27H45.585ZM44.585 -0.354003H39.005V1.646H44.585V-0.354003ZM38.005 0.645997V42H40.005V0.645997H38.005ZM39.005 43H44.585V41H39.005V43ZM45.585 42V20.61H43.585V42H45.585ZM45.3957 21.1955C46.8578 19.171 49.7401 17.27 52.831 17.27V15.27C48.9779 15.27 45.5362 17.585 43.7743 20.0245L45.3957 21.1955ZM52.831 17.27C54.6543 17.27 55.954 17.6284 56.8012 18.3814C57.6245 19.1132 58.217 20.397 58.217 22.718H60.217C60.217 20.079 59.5386 18.1388 58.1299 16.8866C56.7451 15.6556 54.8517 15.27 52.831 15.27V17.27ZM58.217 22.718V42H60.217V22.718H58.217ZM99.3664 38.28L100.066 38.9945L100.677 38.3965L100.181 37.7001L99.3664 38.28ZM96.7624 34.622L97.577 34.0421L96.8817 33.0653L96.0457 33.9246L96.7624 34.622ZM77.7284 28.856V27.856H76.6394L76.732 28.9411L77.7284 28.856ZM101.412 28.856V29.856H102.412V28.856H101.412ZM95.9564 24.826V25.826H96.9881L96.9559 24.7948L95.9564 24.826ZM77.6664 24.826L76.6692 24.7505L76.5878 25.826H77.6664V24.826ZM70.8384 26.996C70.8384 31.9475 72.5693 36.1472 75.5333 39.1111C78.4959 42.0738 82.6329 43.744 87.3384 43.744V41.744C83.1159 41.744 79.5028 40.2522 76.9475 37.6969C74.3934 35.1428 72.8384 31.4685 72.8384 26.996H70.8384ZM87.3384 43.744C92.3867 43.744 96.8707 42.1233 100.066 38.9945L98.6668 37.5655C95.9101 40.2647 91.962 41.744 87.3384 41.744V43.744ZM100.181 37.7001L97.577 34.0421L95.9477 35.2019L98.5517 38.8599L100.181 37.7001ZM96.0457 33.9246C94.0314 35.9948 90.8339 37.156 87.8964 37.156V39.156C91.2828 39.156 95.0293 37.8372 97.4791 35.3194L96.0457 33.9246ZM87.8964 37.156C82.4534 37.156 79.1191 33.3906 78.7248 28.7709L76.732 28.9411C77.2056 34.4894 81.3114 39.156 87.8964 39.156V37.156ZM77.7284 29.856H101.412V27.856H77.7284V29.856ZM102.412 28.856V27.492H100.412V28.856H102.412ZM102.412 27.492C102.412 22.7062 100.957 18.4147 98.2534 15.3041C95.5383 12.1796 91.617 10.31 86.8424 10.31V12.31C91.0578 12.31 94.4214 13.9434 96.7438 16.6159C99.0782 19.3023 100.412 23.1018 100.412 27.492H102.412ZM86.8424 10.31C77.4879 10.31 70.8384 17.8258 70.8384 26.996H72.8384C72.8384 18.8062 78.7128 12.31 86.8424 12.31V10.31ZM86.8424 16.898C89.7122 16.898 91.6803 18.01 92.9618 19.5209C94.2671 21.0598 94.9009 23.0649 94.9569 24.8572L96.9559 24.7948C96.8879 22.6191 96.1266 20.1602 94.487 18.2271C92.8235 16.266 90.2966 14.898 86.8424 14.898V16.898ZM95.9564 23.826H77.6664V25.826H95.9564V23.826ZM78.6635 24.9015C78.8046 23.0392 79.5266 21.0209 80.8684 19.4855C82.1889 17.9744 84.1343 16.898 86.8424 16.898V14.898C83.5365 14.898 81.0489 16.2396 79.3624 18.1695C77.6971 20.0751 76.8381 22.5208 76.6692 24.7505L78.6635 24.9015ZM13.694 104H12.694V105H13.694V104ZM19.894 104V105H20.894V104H19.894ZM19.894 68.102V67.102H18.894V68.102H19.894ZM32.666 68.102V69.102H33.666V68.102H32.666ZM32.666 62.646H33.666V61.646H32.666V62.646ZM0.86 62.646V61.646H-0.14V62.646H0.86ZM0.86 68.102H-0.14V69.102H0.86V68.102ZM13.694 68.102H14.694V67.102H13.694V68.102ZM13.694 105H19.894V103H13.694V105ZM20.894 104V68.102H18.894V104H20.894ZM19.894 69.102H32.666V67.102H19.894V69.102ZM33.666 68.102V62.646H31.666V68.102H33.666ZM32.666 61.646H0.86V63.646H32.666V61.646ZM-0.14 62.646V68.102H1.86V62.646H-0.14ZM0.86 69.102H13.694V67.102H0.86V69.102ZM12.694 68.102V104H14.694V68.102H12.694ZM59.217 104H58.217V105H59.217V104ZM64.797 104V105H65.797V104H64.797ZM44.585 78.27H43.585V81.0652L45.3581 78.9043L44.585 78.27ZM44.585 62.646H45.585V61.646H44.585V62.646ZM39.005 62.646V61.646H38.005V62.646H39.005ZM39.005 104H38.005V105H39.005V104ZM44.585 104V105H45.585V104H44.585ZM44.585 82.61L43.7743 82.0245L43.585 82.2866V82.61H44.585ZM59.217 105H64.797V103H59.217V105ZM65.797 104V82.858H63.797V104H65.797ZM65.797 82.858C65.797 79.5369 64.9493 76.8518 63.0922 75.0037C61.2359 73.1564 58.5366 72.31 55.187 72.31V74.31C58.2234 74.31 60.3291 75.0756 61.6814 76.4213C63.0328 77.7662 63.797 79.8551 63.797 82.858H65.797ZM55.187 72.31C50.2541 72.31 45.955 75.0238 43.8119 77.6357L45.3581 78.9043C47.183 76.6802 50.944 74.31 55.187 74.31V72.31ZM45.585 78.27V62.646H43.585V78.27H45.585ZM44.585 61.646H39.005V63.646H44.585V61.646ZM38.005 62.646V104H40.005V62.646H38.005ZM39.005 105H44.585V103H39.005V105ZM45.585 104V82.61H43.585V104H45.585ZM45.3957 83.1955C46.8578 81.171 49.7401 79.27 52.831 79.27V77.27C48.9779 77.27 45.5362 79.585 43.7743 82.0245L45.3957 83.1955ZM52.831 79.27C54.6543 79.27 55.954 79.6284 56.8012 80.3814C57.6245 81.1132 58.217 82.397 58.217 84.718H60.217C60.217 82.079 59.5386 80.1388 58.1299 78.8866C56.7451 77.6556 54.8517 77.27 52.831 77.27V79.27ZM58.217 84.718V104H60.217V84.718H58.217ZM73.6984 104H72.6984V105H73.6984V104ZM79.2784 104V105H80.2784V104H79.2784ZM79.2784 83.168L78.4146 82.6641L78.2784 82.8976V83.168H79.2784ZM89.0744 79.014L88.8574 79.9902L90.0744 80.2606V79.014H89.0744ZM89.0744 73.372H90.0744V72.372H89.0744V73.372ZM79.2784 78.642H78.2784V81.5773L80.0704 79.2525L79.2784 78.642ZM79.2784 74.054H80.2784V73.054H79.2784V74.054ZM73.6984 74.054V73.054H72.6984V74.054H73.6984ZM73.6984 105H79.2784V103H73.6984V105ZM80.2784 104V83.168H78.2784V104H80.2784ZM80.1422 83.6719C80.6693 82.7681 81.7728 81.7932 83.1414 81.036C84.5044 80.2821 85.9793 79.828 87.1524 79.828V77.828C85.5354 77.828 83.7243 78.4279 82.1733 79.286C80.628 80.1408 79.1894 81.3359 78.4146 82.6641L80.1422 83.6719ZM87.1524 79.828C87.8405 79.828 88.3856 79.8853 88.8574 79.9902L89.2913 78.0378C88.6471 77.8947 87.9522 77.828 87.1524 77.828V79.828ZM90.0744 79.014V73.372H88.0744V79.014H90.0744ZM89.0744 72.372C84.7138 72.372 80.9129 74.8835 78.4864 78.0315L80.0704 79.2525C82.2318 76.4485 85.499 74.372 89.0744 74.372V72.372ZM80.2784 78.642V74.054H78.2784V78.642H80.2784ZM79.2784 73.054H73.6984V75.054H79.2784V73.054ZM72.6984 74.054V104H74.6984V74.054H72.6984ZM94.6476 104H93.6476V105H94.6476V104ZM100.228 104V105H101.228V104H100.228ZM100.228 74.054H101.228V73.054H100.228V74.054ZM94.6476 74.054V73.054H93.6476V74.054H94.6476ZM97.3756 70.032C99.889 70.032 101.972 68.0569 101.972 65.498H99.9716C99.9716 66.9071 98.8302 68.032 97.3756 68.032V70.032ZM101.972 65.498C101.972 62.9617 99.9119 60.902 97.3756 60.902V62.902C98.8073 62.902 99.9716 64.0663 99.9716 65.498H101.972ZM97.3756 60.902C94.9125 60.902 92.7796 62.9506 92.7796 65.498H94.7796C94.7796 64.0774 95.9947 62.902 97.3756 62.902V60.902ZM92.7796 65.498C92.7796 68.0678 94.9355 70.032 97.3756 70.032V68.032C95.9717 68.032 94.7796 66.8961 94.7796 65.498H92.7796ZM94.6476 105H100.228V103H94.6476V105ZM101.228 104V74.054H99.2276V104H101.228ZM100.228 73.054H94.6476V75.054H100.228V73.054ZM93.6476 74.054V104H95.6476V74.054H93.6476ZM110.482 104H109.482V105H110.482V104ZM116.062 104V105H117.062V104H116.062ZM116.062 78.952V77.952H115.062V78.952H116.062ZM122.138 78.952V79.952H123.138V78.952H122.138ZM122.138 74.054H123.138V73.054H122.138V74.054ZM116.062 74.054H115.062V75.054H116.062V74.054ZM123.192 67.296L122.688 68.1598L123.772 68.7916L124.147 67.5951L123.192 67.296ZM124.494 63.142L125.449 63.4411L125.689 62.6731L124.99 62.2738L124.494 63.142ZM110.482 74.054V75.054H111.482V74.054H110.482ZM105.522 74.054V73.054H104.522V74.054H105.522ZM105.522 78.952H104.522V79.952H105.522V78.952ZM110.482 78.952H111.482V77.952H110.482V78.952ZM110.482 105H116.062V103H110.482V105ZM117.062 104V78.952H115.062V104H117.062ZM116.062 79.952H122.138V77.952H116.062V79.952ZM123.138 78.952V74.054H121.138V78.952H123.138ZM122.138 73.054H116.062V75.054H122.138V73.054ZM117.062 74.054V72.07H115.062V74.054H117.062ZM117.062 72.07C117.062 70.4112 117.45 69.3088 118.014 68.6362C118.556 67.9903 119.367 67.614 120.526 67.614V65.614C118.895 65.614 117.474 66.1677 116.482 67.3508C115.512 68.5072 115.062 70.1328 115.062 72.07H117.062ZM120.526 67.614C121.357 67.614 122.11 67.8225 122.688 68.1598L123.696 66.4322C122.786 65.9015 121.68 65.614 120.526 65.614V67.614ZM124.147 67.5951L125.449 63.4411L123.54 62.8429L122.238 66.9969L124.147 67.5951ZM124.99 62.2738C123.496 61.4199 121.638 61.026 119.596 61.026V63.026C121.399 63.026 122.888 63.3761 123.998 64.0102L124.99 62.2738ZM119.596 61.026C116.699 61.026 114.142 62.0084 112.313 63.943C110.488 65.8735 109.482 68.6511 109.482 72.07H111.482C111.482 69.0409 112.368 66.7965 113.766 65.317C115.161 63.8416 117.161 63.026 119.596 63.026V61.026ZM109.482 72.07V74.054H111.482V72.07H109.482ZM110.482 73.054H105.522V75.054H110.482V73.054ZM104.522 74.054V78.952H106.522V74.054H104.522ZM105.522 79.952H110.482V77.952H105.522V79.952ZM109.482 78.952V104H111.482V78.952H109.482ZM141.538 102.822L142.226 103.548L142.69 103.108L142.485 102.502L141.538 102.822ZM140.112 98.606L141.059 98.2856L140.512 96.6669L139.369 97.937L140.112 98.606ZM134.16 78.952V77.952H133.16V78.952H134.16ZM140.236 78.952V79.952H141.236V78.952H140.236ZM140.236 74.054H141.236V73.054H140.236V74.054ZM134.16 74.054H133.16V75.054H134.16V74.054ZM134.16 65.87H135.16V64.87H134.16V65.87ZM128.58 65.87V64.87H127.58V65.87H128.58ZM128.58 74.054V75.054H129.58V74.054H128.58ZM123.62 74.054V73.054H122.62V74.054H123.62ZM123.62 78.952H122.62V79.952H123.62V78.952ZM128.58 78.952H129.58V77.952H128.58V78.952ZM135.71 105.744C138.83 105.744 140.829 104.871 142.226 103.548L140.85 102.096C139.891 103.005 138.418 103.744 135.71 103.744V105.744ZM142.485 102.502L141.059 98.2856L139.165 98.9264L140.591 103.142L142.485 102.502ZM139.369 97.937C139.027 98.3165 138.135 98.784 137.074 98.784V100.784C138.617 100.784 140.081 100.135 140.855 99.275L139.369 97.937ZM137.074 98.784C136.417 98.784 135.989 98.5358 135.696 98.1455C135.377 97.7197 135.16 97.0393 135.16 96.126H133.16C133.16 97.3207 133.439 98.4693 134.096 99.3455C134.78 100.257 135.809 100.784 137.074 100.784V98.784ZM135.16 96.126V78.952H133.16V96.126H135.16ZM134.16 79.952H140.236V77.952H134.16V79.952ZM141.236 78.952V74.054H139.236V78.952H141.236ZM140.236 73.054H134.16V75.054H140.236V73.054ZM135.16 74.054V65.87H133.16V74.054H135.16ZM134.16 64.87H128.58V66.87H134.16V64.87ZM127.58 65.87V74.054H129.58V65.87H127.58ZM128.58 73.054H123.62V75.054H128.58V73.054ZM122.62 74.054V78.952H124.62V74.054H122.62ZM123.62 79.952H128.58V77.952H123.62V79.952ZM127.58 78.952V97.366H129.58V78.952H127.58ZM127.58 97.366C127.58 99.8824 128.226 102.01 129.653 103.511C131.088 105.02 133.167 105.744 135.71 105.744V103.744C133.541 103.744 132.055 103.135 131.103 102.133C130.143 101.123 129.58 99.5616 129.58 97.366H127.58ZM143.803 83.354C143.803 96.1448 152.708 105.744 165.635 105.744V103.744C153.886 103.744 145.803 95.1152 145.803 83.354H143.803ZM165.635 105.744C178.562 105.744 187.467 96.1448 187.467 83.354H185.467C185.467 95.1152 177.384 103.744 165.635 103.744V105.744ZM187.467 83.354C187.467 70.5632 178.562 60.964 165.635 60.964V62.964C177.384 62.964 185.467 71.5928 185.467 83.354H187.467ZM165.635 60.964C152.708 60.964 143.803 70.5632 143.803 83.354H145.803C145.803 71.5928 153.886 62.964 165.635 62.964V60.964ZM179.081 83.354C179.081 87.6728 177.722 91.3932 175.389 94.0205C173.065 96.6372 169.729 98.226 165.635 98.226V100.226C170.284 100.226 174.17 98.4048 176.884 95.3485C179.589 92.3028 181.081 88.0872 181.081 83.354H179.081ZM165.635 98.226C161.477 98.226 158.143 96.6351 155.837 94.0228C153.521 91.3983 152.189 87.6784 152.189 83.354H150.189C150.189 88.0816 151.647 92.2977 154.338 95.3462C157.039 98.4069 160.928 100.226 165.635 100.226V98.226ZM152.189 83.354C152.189 78.9973 153.522 75.2785 155.836 72.663C158.14 70.0595 161.474 68.482 165.635 68.482V66.482C160.931 66.482 157.041 68.2835 154.339 71.3375C151.647 74.3795 150.189 78.5967 150.189 83.354H152.189ZM165.635 68.482C169.732 68.482 173.068 70.0575 175.39 72.6652C177.721 75.2835 179.081 79.0029 179.081 83.354H181.081C181.081 78.5911 179.589 74.3745 176.883 71.3352C174.168 68.2855 170.281 66.482 165.635 66.482V68.482ZM199.403 115.408V116.408H200.403V115.408H199.403ZM199.403 99.66L200.209 99.0673L198.403 96.6138V99.66H199.403ZM199.403 78.332H198.403V81.4007L200.211 78.9212L199.403 78.332ZM199.403 74.054H200.403V73.054H199.403V74.054ZM193.823 74.054V73.054H192.823V74.054H193.823ZM193.823 115.408H192.823V116.408H193.823V115.408ZM199.403 95.382H198.403V95.6713L198.558 95.916L199.403 95.382ZM199.403 82.672L198.552 82.1479L198.403 82.389V82.672H199.403ZM200.403 115.408V99.66H198.403V115.408H200.403ZM198.598 100.253C201.195 103.782 204.96 105.744 209.199 105.744V103.744C205.627 103.744 202.448 102.11 200.209 99.0673L198.598 100.253ZM209.199 105.744C213.375 105.744 216.99 104.145 219.549 101.199C222.097 98.2656 223.529 94.0773 223.529 88.996H221.529C221.529 93.7107 220.203 97.3964 218.039 99.8877C215.885 102.367 212.835 103.744 209.199 103.744V105.744ZM223.529 88.996C223.529 83.9146 222.097 79.7405 219.547 76.8216C216.987 73.8911 213.372 72.31 209.199 72.31V74.31C212.839 74.31 215.889 75.6739 218.041 78.1374C220.203 80.6125 221.529 84.2814 221.529 88.996H223.529ZM209.199 72.31C204.827 72.31 200.94 74.5274 198.595 77.7428L200.211 78.9212C202.207 76.1846 205.511 74.31 209.199 74.31V72.31ZM200.403 78.332V74.054H198.403V78.332H200.403ZM199.403 73.054H193.823V75.054H199.403V73.054ZM192.823 74.054V115.408H194.823V74.054H192.823ZM193.823 116.408H199.403V114.408H193.823V116.408ZM215.701 88.996C215.701 91.9546 214.895 94.4123 213.522 96.109C212.165 97.7848 210.205 98.784 207.711 98.784V100.784C210.798 100.784 213.333 99.5202 215.076 97.3675C216.802 95.2357 217.701 92.2994 217.701 88.996H215.701ZM207.711 98.784C204.643 98.784 201.553 96.913 200.249 94.848L198.558 95.916C200.23 98.563 203.959 100.784 207.711 100.784V98.784ZM200.403 95.382V82.672H198.403V95.382H200.403ZM200.255 83.1961C201.553 81.0875 204.632 79.27 207.711 79.27V77.27C203.97 77.27 200.23 79.4205 198.552 82.1479L200.255 83.1961ZM207.711 79.27C210.205 79.27 212.166 80.2695 213.523 81.9388C214.897 83.6284 215.701 86.0705 215.701 88.996H217.701C217.701 85.7215 216.801 82.8006 215.075 80.6772C213.332 78.5335 210.798 77.27 207.711 77.27V79.27ZM227.003 100.094L226.165 99.5481L225.727 100.221L226.288 100.794L227.003 100.094ZM240.147 86.082L239.919 87.0559L239.926 87.0574L240.147 86.082ZM248.207 81.494L247.435 82.1297L248.311 83.1944L249.051 82.03L248.207 81.494ZM250.687 77.588L251.531 78.124L251.971 77.43L251.376 76.8634L250.687 77.588ZM238.907 91.166L238.681 92.1402L238.686 92.1414L238.907 91.166ZM229.669 96.002L230.406 95.3263L229.535 94.3759L228.831 95.4561L229.669 96.002ZM226.288 100.794C229.558 104.13 234.243 105.744 239.465 105.744V103.744C234.642 103.744 230.523 102.258 227.717 99.3941L226.288 100.794ZM239.465 105.744C243.564 105.744 246.83 104.695 249.092 102.863C251.37 101.017 252.555 98.4349 252.555 95.568H250.555C250.555 97.8471 249.631 99.8526 247.833 101.309C246.018 102.778 243.239 103.744 239.465 103.744V105.744ZM252.555 95.568C252.555 93.6908 252.13 92.1312 251.365 90.8389C250.603 89.5506 249.535 88.5828 248.33 87.836C245.96 86.3673 242.933 85.6869 240.367 85.1066L239.926 87.0574C242.568 87.6551 245.245 88.2767 247.277 89.536C248.273 90.1532 249.081 90.9059 249.644 91.8574C250.204 92.8048 250.555 94.0042 250.555 95.568H252.555ZM240.374 85.1082C238.488 84.6682 236.878 84.258 235.735 83.673C234.624 83.1039 234.203 82.5067 234.203 81.742H232.203C232.203 83.5813 233.393 84.7201 234.824 85.453C236.224 86.17 238.085 86.6278 239.919 87.0558L240.374 85.1082ZM234.203 81.742C234.203 80.9138 234.582 80.2389 235.389 79.7264C236.236 79.1889 237.561 78.836 239.341 78.836V76.836C237.338 76.836 235.594 77.2271 234.317 78.0381C233.001 78.8741 232.203 80.1522 232.203 81.742H234.203ZM239.341 78.836C242.882 78.836 245.923 80.2937 247.435 82.1297L248.979 80.8583C247.018 78.4783 243.363 76.836 239.341 76.836V78.836ZM249.051 82.03L251.531 78.124L249.842 77.052L247.362 80.958L249.051 82.03ZM251.376 76.8634C248.653 74.2738 244.689 72.31 239.279 72.31V74.31C244.161 74.31 247.636 76.0662 249.997 78.3126L251.376 76.8634ZM239.279 72.31C235.437 72.31 232.343 73.3855 230.19 75.1855C228.029 76.9917 226.871 79.4873 226.871 82.176H228.871C228.871 80.0907 229.758 78.1533 231.472 76.72C233.194 75.2805 235.804 74.31 239.279 74.31V72.31ZM226.871 82.176C226.871 83.9492 227.282 85.4266 228.025 86.6531C228.764 87.8745 229.798 88.7917 230.962 89.5011C233.25 90.8956 236.18 91.5608 238.681 92.1402L239.132 90.1918C236.549 89.5932 233.962 88.9874 232.003 87.7934C231.043 87.2086 230.271 86.5022 229.735 85.6174C229.203 84.7379 228.871 83.6268 228.871 82.176H226.871ZM238.686 92.1414C240.625 92.5791 242.303 93.0195 243.496 93.671C244.641 94.2968 245.161 95.0095 245.161 96.002H247.161C247.161 94.0185 245.976 92.7472 244.455 91.916C242.981 91.1105 241.032 90.6209 239.127 90.1906L238.686 92.1414ZM245.161 96.002C245.161 96.9389 244.768 97.7039 243.948 98.2723C243.089 98.8678 241.702 99.28 239.713 99.28V101.28C241.939 101.28 243.777 100.824 245.087 99.9162C246.437 98.9811 247.161 97.6071 247.161 96.002H245.161ZM239.713 99.28C235.977 99.28 232.272 97.362 230.406 95.3263L228.931 96.6777C231.157 99.106 235.389 101.28 239.713 101.28V99.28ZM228.831 95.4561L226.165 99.5481L227.84 100.64L230.506 96.5479L228.831 95.4561ZM39.176 166H38.176V167H39.176V166ZM45.376 166V167H46.376V166H45.376ZM45.376 124.646H46.376V123.646H45.376V124.646ZM36.51 124.646V123.646H35.8361L35.5831 124.271L36.51 124.646ZM24.482 154.344L23.5551 154.719L24.482 157.008L25.4089 154.719L24.482 154.344ZM12.454 124.646L13.3809 124.271L13.1279 123.646H12.454V124.646ZM3.588 124.646V123.646H2.588V124.646H3.588ZM3.588 166H2.588V167H3.588V166ZM9.788 166V167H10.788V166H9.788ZM9.788 133.14L10.714 132.763L8.788 133.14H9.788ZM23.18 166L22.254 166.377L22.5077 167H23.18V166ZM25.784 166V167H26.4563L26.71 166.377L25.784 166ZM39.176 133.14H40.176L38.25 132.763L39.176 133.14ZM39.176 167H45.376V165H39.176V167ZM46.376 166V124.646H44.376V166H46.376ZM45.376 123.646H36.51V125.646H45.376V123.646ZM35.5831 124.271L23.5551 153.969L25.4089 154.719L37.4369 125.021L35.5831 124.271ZM25.4089 153.969L13.3809 124.271L11.5271 125.021L23.5551 154.719L25.4089 153.969ZM12.454 123.646H3.588V125.646H12.454V123.646ZM2.588 124.646V166H4.588V124.646H2.588ZM3.588 167H9.788V165H3.588V167ZM10.788 166V133.14H8.788V166H10.788ZM8.86195 133.517L22.254 166.377L24.106 165.623L10.714 132.763L8.86195 133.517ZM23.18 167H25.784V165H23.18V167ZM26.71 166.377L40.102 133.517L38.25 132.763L24.858 165.623L26.71 166.377ZM38.176 133.14V166H40.176V133.14H38.176ZM72.9205 166H71.9205V167H72.9205V166ZM78.5005 166V167H79.5005V166H78.5005ZM54.1965 140.208L53.496 139.494L52.9211 140.059L53.35 140.74L54.1965 140.208ZM56.6145 144.052L55.768 144.584L56.4353 145.645L57.3216 144.759L56.6145 144.052ZM72.9205 150.996L72.1625 151.648L73.9205 153.691V150.996H72.9205ZM72.9205 162.714H73.9205V160.118L72.1789 162.043L72.9205 162.714ZM72.9205 159.428L73.7205 160.028L73.9205 159.761V159.428H72.9205ZM72.9205 154.344H73.9205V154.011L73.7205 153.744L72.9205 154.344ZM72.9205 167H78.5005V165H72.9205V167ZM79.5005 166V145.788H77.5005V166H79.5005ZM79.5005 145.788C79.5005 141.705 78.0068 138.773 75.5327 136.893C73.103 135.047 69.8519 134.31 66.4725 134.31V136.31C69.6031 136.31 72.3659 136.999 74.3228 138.486C76.2352 139.938 77.5005 142.245 77.5005 145.788H79.5005ZM66.4725 134.31C61.3883 134.31 57.0406 136.015 53.496 139.494L54.8969 140.922C58.0483 137.829 61.8846 136.31 66.4725 136.31V134.31ZM53.35 140.74L55.768 144.584L57.4609 143.52L55.0429 139.676L53.35 140.74ZM57.3216 144.759C59.8253 142.255 62.4934 141.084 65.6045 141.084V139.084C61.8955 139.084 58.7356 140.517 55.9074 143.345L57.3216 144.759ZM65.6045 141.084C67.5804 141.084 69.1721 141.6 70.2466 142.45C71.2971 143.28 71.9205 144.477 71.9205 146.036H73.9205C73.9205 143.875 73.0248 142.096 71.4868 140.88C69.9728 139.684 67.9065 139.084 65.6045 139.084V141.084ZM71.9205 146.036V150.996H73.9205V146.036H71.9205ZM73.6785 150.344C71.1476 147.402 67.3651 146.028 63.1245 146.028V148.028C66.9439 148.028 70.1054 149.258 72.1625 151.648L73.6785 150.344ZM63.1245 146.028C60.4316 146.028 57.5923 146.823 55.4048 148.591C53.1881 150.381 51.7085 153.119 51.7085 156.824H53.7085C53.7085 153.709 54.9259 151.549 56.6616 150.146C58.4266 148.721 60.7953 148.028 63.1245 148.028V146.028ZM51.7085 156.824C51.7085 164.109 57.7875 167.744 63.1245 167.744V165.744C58.5414 165.744 53.7085 162.683 53.7085 156.824H51.7085ZM63.1245 167.744C67.3982 167.744 71.0918 166.226 73.662 163.385L72.1789 162.043C70.0371 164.41 66.9108 165.744 63.1245 165.744V167.744ZM71.9205 162.714V166H73.9205V162.714H71.9205ZM72.1205 158.828C70.682 160.746 68.1046 161.838 65.2325 161.838V163.838C68.5604 163.838 71.811 162.574 73.7205 160.028L72.1205 158.828ZM65.2325 161.838C63.4136 161.838 61.9373 161.293 60.9322 160.429C59.9387 159.575 59.3505 158.365 59.3505 156.886H57.3505C57.3505 158.941 58.1883 160.707 59.6282 161.945C61.0566 163.174 63.0213 163.838 65.2325 163.838V161.838ZM59.3505 156.886C59.3505 155.407 59.9387 154.197 60.9322 153.343C61.9373 152.479 63.4136 151.934 65.2325 151.934V149.934C63.0213 149.934 61.0566 150.598 59.6282 151.827C58.1883 153.065 57.3505 154.831 57.3505 156.886H59.3505ZM65.2325 151.934C68.1046 151.934 70.682 153.026 72.1205 154.944L73.7205 153.744C71.811 151.198 68.5604 149.934 65.2325 149.934V151.934ZM71.9205 154.344V159.428H73.9205V154.344H71.9205ZM87.1945 173.688L86.3567 173.142L85.9018 173.84L86.5064 174.414L87.1945 173.688ZM114.351 136.054H115.351V135.054H114.351V136.054ZM108.771 136.054V135.054H107.771V136.054H108.771ZM108.771 140.394L107.971 140.994L109.771 143.394V140.394H108.771ZM108.771 161.102H109.771V158.167L107.979 160.491L108.771 161.102ZM89.8605 169.596L90.6151 168.94L89.7458 167.94L89.0227 169.05L89.8605 169.596ZM108.771 156.824L109.612 157.364L109.771 157.117V156.824H108.771ZM108.771 144.672H109.771V144.379L109.612 144.132L108.771 144.672ZM86.5064 174.414C90.3334 178.043 94.2624 179.152 99.4705 179.152V177.152C94.6347 177.152 91.2476 176.153 87.8826 172.962L86.5064 174.414ZM99.4705 179.152C103.271 179.152 107.232 178.373 110.268 176.154C113.356 173.895 115.351 170.244 115.351 164.822H113.351C113.351 169.692 111.594 172.706 109.087 174.539C106.527 176.412 103.048 177.152 99.4705 177.152V179.152ZM115.351 164.822V136.054H113.351V164.822H115.351ZM114.351 135.054H108.771V137.054H114.351V135.054ZM107.771 136.054V140.394H109.771V136.054H107.771ZM109.571 139.794C106.977 136.336 103.155 134.31 98.9125 134.31V136.31C102.482 136.31 105.728 138.004 107.971 140.994L109.571 139.794ZM98.9125 134.31C94.7732 134.31 91.1612 135.874 88.594 138.761C86.0348 141.639 84.5825 145.752 84.5825 150.748H86.5825C86.5825 146.134 87.9202 142.528 90.0886 140.09C92.2488 137.66 95.3018 136.31 98.9125 136.31V134.31ZM84.5825 150.748C84.5825 155.833 86.0325 159.964 88.5949 162.837C91.1658 165.72 94.7796 167.248 98.9125 167.248V165.248C95.2955 165.248 92.2443 163.924 90.0876 161.506C87.9225 159.078 86.5825 155.459 86.5825 150.748H84.5825ZM98.9125 167.248C103.314 167.248 107.12 164.881 109.563 161.713L107.979 160.491C105.833 163.275 102.571 165.248 98.9125 165.248V167.248ZM107.771 161.102V165.008H109.771V161.102H107.771ZM107.771 165.008C107.771 167.895 106.725 169.727 105.253 170.866C103.739 172.037 101.656 172.564 99.4705 172.564V174.564C101.935 174.564 104.502 173.975 106.476 172.449C108.491 170.891 109.771 168.445 109.771 165.008H107.771ZM99.4705 172.564C95.5983 172.564 92.8638 171.526 90.6151 168.94L89.1059 170.252C91.8172 173.37 95.1588 174.564 99.4705 174.564V172.564ZM89.0227 169.05L86.3567 173.142L88.0324 174.234L90.6984 170.142L89.0227 169.05ZM107.929 156.284C106.557 158.424 103.46 160.288 100.463 160.288V162.288C104.161 162.288 107.884 160.06 109.612 157.364L107.929 156.284ZM100.463 160.288C97.9533 160.288 95.9756 159.323 94.6091 157.699C93.2279 156.058 92.4105 153.669 92.4105 150.748H90.4105C90.4105 154.027 91.3291 156.908 93.0789 158.987C94.8435 161.083 97.3917 162.288 100.463 162.288V160.288ZM92.4105 150.748C92.4105 147.861 93.2267 145.487 94.6078 143.853C95.9745 142.236 97.953 141.27 100.463 141.27V139.27C97.392 139.27 94.8445 140.474 93.0803 142.562C91.3303 144.632 90.4105 147.497 90.4105 150.748H92.4105ZM100.463 141.27C103.472 141.27 106.564 143.082 107.929 145.212L109.612 144.132C107.877 141.426 104.149 139.27 100.463 139.27V141.27ZM107.771 144.672V156.824H109.771V144.672H107.771ZM123.226 166H122.226V167H123.226V166ZM128.806 166V167H129.806V166H128.806ZM128.806 136.054H129.806V135.054H128.806V136.054ZM123.226 136.054V135.054H122.226V136.054H123.226ZM125.954 132.032C128.467 132.032 130.55 130.057 130.55 127.498H128.55C128.55 128.907 127.408 130.032 125.954 130.032V132.032ZM130.55 127.498C130.55 124.962 128.49 122.902 125.954 122.902V124.902C127.385 124.902 128.55 126.066 128.55 127.498H130.55ZM125.954 122.902C123.491 122.902 121.358 124.951 121.358 127.498H123.358C123.358 126.077 124.573 124.902 125.954 124.902V122.902ZM121.358 127.498C121.358 130.068 123.514 132.032 125.954 132.032V130.032C124.55 130.032 123.358 128.896 123.358 127.498H121.358ZM123.226 167H128.806V165H123.226V167ZM129.806 166V136.054H127.806V166H129.806ZM128.806 135.054H123.226V137.054H128.806V135.054ZM122.226 136.054V166H124.226V136.054H122.226ZM162.31 161.474L163.112 162.071L163.652 161.347L162.986 160.737L162.31 161.474ZM158.59 158.064L159.266 157.327L158.439 156.569L157.781 157.477L158.59 158.064ZM158.59 143.99L157.774 144.567L158.429 145.494L159.266 144.727L158.59 143.99ZM162.31 140.58L162.986 141.317L163.652 140.707L163.112 139.983L162.31 140.58ZM134.836 150.996C134.836 160.493 141.439 167.744 151.088 167.744V165.744C142.633 165.744 136.836 159.479 136.836 150.996H134.836ZM151.088 167.744C157.069 167.744 160.767 165.22 163.112 162.071L161.508 160.877C159.513 163.556 156.392 165.744 151.088 165.744V167.744ZM162.986 160.737L159.266 157.327L157.915 158.801L161.635 162.211L162.986 160.737ZM157.781 157.477C156.169 159.7 154.051 160.784 151.336 160.784V162.784C154.698 162.784 157.416 161.388 159.4 158.651L157.781 157.477ZM151.336 160.784C148.67 160.784 146.53 159.754 145.044 158.056C143.548 156.347 142.664 153.897 142.664 150.996H140.664C140.664 154.295 141.672 157.239 143.539 159.374C145.417 161.52 148.113 162.784 151.336 162.784V160.784ZM142.664 150.996C142.664 148.096 143.548 145.663 145.042 143.97C146.525 142.288 148.665 141.27 151.336 141.27V139.27C148.118 139.27 145.422 140.515 143.542 142.646C141.672 144.766 140.664 147.696 140.664 150.996H142.664ZM151.336 141.27C154.063 141.27 156.171 142.301 157.774 144.567L159.407 143.413C157.414 140.595 154.686 139.27 151.336 139.27V141.27ZM159.266 144.727L162.986 141.317L161.635 139.843L157.915 143.253L159.266 144.727ZM163.112 139.983C160.767 136.834 157.069 134.31 151.088 134.31V136.31C156.392 136.31 159.513 138.498 161.508 141.177L163.112 139.983ZM151.088 134.31C141.445 134.31 134.836 141.494 134.836 150.996H136.836C136.836 142.518 142.628 136.31 151.088 136.31V134.31Z" fill="black"/>
</svg>
