<svg width="221" height="92" viewBox="0 0 221 92" fill="none" xmlns="http://www.w3.org/2000/svg">
<path d="M196.61 31.9301H1.65C0.73873 31.9301 0 32.6688 0 33.5801C0 34.4913 0.73873 35.2301 1.65 35.2301H196.61C197.521 35.2301 198.26 34.4913 198.26 33.5801C198.26 32.6688 197.521 31.9301 196.61 31.9301Z" fill="black"/>
<path d="M139.26 41.3101H1.39C0.622324 41.3101 0 41.9324 0 42.7001V43.2201C0 43.9877 0.622324 44.6101 1.39 44.6101H139.26C140.028 44.6101 140.65 43.9877 140.65 43.2201V42.7001C140.65 41.9324 140.028 41.3101 139.26 41.3101Z" fill="black"/>
<path d="M76.88 0H1.03C0.461147 0 0 0.461147 0 1.03V2.27C0 2.83885 0.461147 3.3 1.03 3.3H76.88C77.4489 3.3 77.91 2.83885 77.91 2.27V1.03C77.91 0.461147 77.4489 0 76.88 0Z" fill="black"/>
<path d="M76.88 7.66003H1.03C0.461147 7.66003 0 8.12118 0 8.69003V9.93003C0 10.4989 0.461147 10.96 1.03 10.96H76.88C77.4489 10.96 77.91 10.4989 77.91 9.93003V8.69003C77.91 8.12118 77.4489 7.66003 76.88 7.66003Z" fill="black"/>
<path d="M218.46 50.6899H1.65C0.73873 50.6899 0 51.4287 0 52.3399C0 53.2512 0.73873 53.9899 1.65 53.9899H218.46C219.371 53.9899 220.11 53.2512 220.11 52.3399C220.11 51.4287 219.371 50.6899 218.46 50.6899Z" fill="black"/>
<path d="M218.57 60.0699H1.65C0.73873 60.0699 0 60.8087 0 61.7199C0 62.6312 0.73873 63.3699 1.65 63.3699H218.57C219.481 63.3699 220.22 62.6312 220.22 61.7199C220.22 60.8087 219.481 60.0699 218.57 60.0699Z" fill="black"/>
<path d="M161 69.45H1.78004C0.957135 69.45 0.290039 70.1171 0.290039 70.94V71.26C0.290039 72.0829 0.957135 72.75 1.78004 72.75H161C161.823 72.75 162.49 72.0829 162.49 71.26V70.94C162.49 70.1171 161.823 69.45 161 69.45Z" fill="black"/>
<path d="M201.35 78.83H1.65C0.73873 78.83 0 79.5687 0 80.48C0 81.3912 0.73873 82.13 1.65 82.13H201.35C202.261 82.13 203 81.3912 203 80.48C203 79.5687 202.261 78.83 201.35 78.83Z" fill="black"/>
<path d="M136.32 88.21H1.38C0.617847 88.21 0 88.8278 0 89.59V90.13C0 90.8921 0.617847 91.51 1.38 91.51H136.32C137.082 91.51 137.7 90.8921 137.7 90.13V89.59C137.7 88.8278 137.082 88.21 136.32 88.21Z" fill="black"/>
</svg>
